<svg width="49" height="48" viewBox="0 0 49 48" fill="none" xmlns="http://www.w3.org/2000/svg">
<path d="M25.8818 6.49463C27.1863 5.96497 28.6249 5.85911 29.9932 6.19092C31.3613 6.52281 32.5907 7.27615 33.5068 8.34424C34.4229 9.41241 34.98 10.7414 35.0986 12.1431C35.5275 12.0471 35.9658 11.9964 36.4053 11.9927C37.1942 11.9921 37.976 12.1466 38.7051 12.4478C39.4341 12.7489 40.0961 13.1915 40.6543 13.7485C41.4682 14.5413 42.0342 15.5533 42.2822 16.6616C42.5302 17.7698 42.4502 18.9263 42.0518 19.9897C43.3189 20.5386 44.358 21.5072 44.9941 22.7319C45.6303 23.9567 45.8243 25.3632 45.5439 26.7144C45.2636 28.0654 44.526 29.2787 43.4551 30.1499C42.3841 31.021 41.0451 31.4971 39.6641 31.4976C38.8675 31.4976 38.1033 31.8138 37.54 32.3765C36.9768 32.9392 36.6602 33.7027 36.6602 34.4985V40.4995C36.6602 40.8974 36.5023 41.2797 36.2207 41.561C35.9391 41.8424 35.5565 42.0005 35.1582 42.0005C34.7601 42.0004 34.3782 41.8422 34.0967 41.561C33.815 41.2797 33.6562 40.8974 33.6562 40.4995V34.4985C33.6562 32.9069 34.2895 31.3799 35.416 30.2544C36.5425 29.129 38.071 28.4966 39.6641 28.4966C40.4605 28.4965 41.2239 28.1803 41.7871 27.6177C42.3503 27.055 42.6669 26.2923 42.667 25.4966C42.667 24.7007 42.3504 23.9373 41.7871 23.3745C41.224 22.8119 40.4605 22.4957 39.6641 22.4956C39.4717 22.5124 39.2774 22.4915 39.0928 22.4351C38.7261 22.2828 38.4346 21.9919 38.2822 21.6255C38.132 21.2602 38.132 20.8501 38.2822 20.4849C38.3537 20.3007 38.461 20.1324 38.5977 19.9897C38.8687 19.7337 39.0838 19.424 39.2285 19.0806C39.3732 18.7371 39.4445 18.3672 39.4385 17.9946C39.443 17.5932 39.3637 17.195 39.2061 16.8257C39.0484 16.4564 38.8156 16.1237 38.5225 15.8491C38.2436 15.5702 37.9123 15.3488 37.5479 15.1978C37.1833 15.0468 36.7921 14.9683 36.3975 14.9683C36.0028 14.9683 35.6117 15.0467 35.2471 15.1978C34.8825 15.3488 34.5514 15.5702 34.2725 15.8491L33.2207 16.8989C33.0812 17.0394 32.9153 17.1509 32.7324 17.2271C32.5495 17.3032 32.3534 17.3432 32.1553 17.3433C31.957 17.3433 31.7602 17.3032 31.5771 17.2271C31.3943 17.1509 31.2284 17.0394 31.0889 16.8989C30.8092 16.6178 30.6524 16.2377 30.6523 15.8413C30.6523 15.4449 30.8092 15.0648 31.0889 14.7837L32.1553 13.7183C32.1482 13.6435 32.1483 13.5684 32.1553 13.4937V12.7427C32.2269 11.748 31.8994 10.7652 31.2461 10.0112C30.5927 9.2574 29.6664 8.7938 28.6709 8.72217C27.6752 8.65054 26.6913 8.97661 25.9365 9.62939C25.1819 10.2821 24.7182 11.208 24.6465 12.2026C24.6317 12.3823 24.6317 12.563 24.6465 12.7427C24.6537 12.8275 24.6537 12.9137 24.6465 12.9985V13.4937C24.6464 13.8914 24.4876 14.2729 24.2061 14.5542C23.9245 14.8354 23.5427 14.9936 23.1445 14.9937C22.7462 14.9937 22.3637 14.8356 22.082 14.5542C21.8006 14.273 21.6427 13.8913 21.6426 13.4937C21.6426 12.6978 21.326 11.9343 20.7627 11.3716C20.1995 10.809 19.436 10.4928 18.6396 10.4927C17.8431 10.4927 17.0789 10.8089 16.5156 11.3716C15.9524 11.9343 15.6357 12.6978 15.6357 13.4937V14.3335C15.6357 14.7312 15.4777 15.1127 15.1963 15.394C14.9147 15.6754 14.5321 15.8335 14.1338 15.8335C13.5493 15.8532 12.983 16.0429 12.5049 16.3794C12.0268 16.7159 11.6577 17.1848 11.4424 17.728C11.2271 18.2713 11.175 18.8657 11.293 19.438C11.4109 20.0102 11.6939 20.5357 12.1064 20.9497C12.2472 21.0891 12.3593 21.2552 12.4355 21.438C12.5118 21.6208 12.5508 21.8171 12.5508 22.0151C12.5508 22.2132 12.5118 22.4095 12.4355 22.5923C12.3593 22.7751 12.2472 22.9411 12.1064 23.0806C11.9669 23.2211 11.801 23.3325 11.6182 23.4087C11.4352 23.4849 11.2383 23.5239 11.04 23.5239C10.8419 23.5239 10.6458 23.4848 10.4629 23.4087C10.2799 23.3325 10.1132 23.2212 9.97363 23.0806C9.42438 22.5288 8.98632 21.8763 8.68262 21.1597C8.01427 21.3906 7.44871 21.85 7.08594 22.4565C6.72317 23.0631 6.58616 23.7786 6.69922 24.4761C6.81234 25.1734 7.16835 25.809 7.7041 26.27C8.23991 26.731 8.92183 26.9882 9.62891 26.9966H21.6426C22.0408 26.9966 22.4225 27.1548 22.7041 27.436C22.9857 27.7173 23.1445 28.0988 23.1445 28.4966C23.1445 28.8945 22.9857 29.2767 22.7041 29.5581C22.4225 29.8392 22.0407 29.9976 21.6426 29.9976H9.62891C8.16179 29.9862 6.74907 29.4387 5.6582 28.4585C4.56736 27.4783 3.87335 26.1326 3.70703 24.6763C3.54075 23.2198 3.91396 21.7528 4.75586 20.5522C5.59776 19.3518 6.85046 18.5009 8.27734 18.1597C8.40422 16.8072 8.98604 15.537 9.92871 14.5581C10.6857 13.8343 11.6168 13.3179 12.6318 13.0581C12.7199 11.9315 13.1251 10.8528 13.7998 9.9458C14.4745 9.0388 15.3919 8.34029 16.4463 7.93115C17.5006 7.52207 18.6492 7.41908 19.7598 7.6333C20.8702 7.84753 21.8976 8.37034 22.7236 9.14209C23.4723 7.95059 24.5774 7.02435 25.8818 6.49463ZM24.8652 18.0132C26.4659 18.0132 28.0035 18.636 29.1523 19.7495C30.2511 20.8881 30.8562 22.4142 30.835 23.9956C30.835 24.3935 30.6761 24.7748 30.3945 25.0562C30.1129 25.3375 29.7313 25.4956 29.333 25.4956C28.9347 25.4956 28.5531 25.3375 28.2715 25.0562C27.9899 24.7748 27.8311 24.3935 27.8311 23.9956C27.8317 23.2032 27.5185 22.443 26.96 21.8804C26.681 21.6014 26.3499 21.38 25.9854 21.229C25.6207 21.078 25.2297 21.0005 24.835 21.0005C24.4403 21.0005 24.0491 21.078 23.6846 21.229C23.3201 21.38 22.9888 21.6015 22.71 21.8804C22.4272 22.1628 22.0434 22.3218 21.6436 22.3218C21.2439 22.3217 20.8608 22.1626 20.5781 21.8804C20.2953 21.5978 20.1357 21.2145 20.1357 20.8149C20.1357 20.4154 20.2953 20.032 20.5781 19.7495C21.727 18.636 23.2646 18.0132 24.8652 18.0132Z" fill="#0E102F"/>
</svg>
