<svg width="49" height="48" viewBox="0 0 49 48" fill="none" xmlns="http://www.w3.org/2000/svg">
<path d="M19.8303 12.0049C20.228 12.0049 20.6096 12.1622 20.8909 12.4434C21.1722 12.7247 21.3303 13.1071 21.3303 13.5049C21.3302 13.9026 21.1721 14.2842 20.8909 14.5654C20.6096 14.8466 20.228 15.0049 19.8303 15.0049C19.4326 15.0049 19.0511 15.1622 18.7698 15.4434C18.4885 15.7247 18.3303 16.1071 18.3303 16.5049V30.0049C18.3303 29.6071 18.4885 29.2247 18.7698 28.9434C19.0511 28.6622 19.4326 28.5049 19.8303 28.5049C20.228 28.5049 20.6096 28.6622 20.8909 28.9434C21.1722 29.2247 21.3303 29.6071 21.3303 30.0049V43.5049C21.3302 43.9026 21.1721 44.2842 20.8909 44.5654C20.6096 44.8466 20.228 45.0049 19.8303 45.0049C19.4326 45.0049 19.0511 44.8466 18.7698 44.5654C18.4886 44.2842 18.3304 43.9026 18.3303 43.5049V30.1699C18.3302 30.5676 18.1721 30.9493 17.8909 31.2305C17.6096 31.5116 17.228 31.6699 16.8303 31.6699C16.4326 31.6699 16.0511 31.5116 15.7698 31.2305C15.4886 30.9493 15.3304 30.5676 15.3303 30.1699V16.5049C15.3303 15.3114 15.8048 14.1662 16.6487 13.3223C17.4926 12.4785 18.637 12.0049 19.8303 12.0049ZM28.8303 12.0049C30.0237 12.0049 31.1681 12.4785 32.012 13.3223C32.8559 14.1662 33.3303 15.3114 33.3303 16.5049V30.1699C33.3302 30.5676 33.1721 30.9493 32.8909 31.2305C32.6096 31.5116 32.228 31.6699 31.8303 31.6699C31.4326 31.6699 31.0511 31.5116 30.7698 31.2305C30.4886 30.9493 30.3304 30.5676 30.3303 30.1699V43.5049C30.3302 43.9026 30.1721 44.2842 29.8909 44.5654C29.6096 44.8466 29.228 45.0049 28.8303 45.0049C28.4326 45.0049 28.0511 44.8466 27.7698 44.5654C27.4886 44.2842 27.3304 43.9026 27.3303 43.5049V30.0049C27.3303 29.6071 27.4885 29.2247 27.7698 28.9434C28.0511 28.6622 28.4326 28.5049 28.8303 28.5049C29.228 28.5049 29.6096 28.6622 29.8909 28.9434C30.1722 29.2247 30.3303 29.6071 30.3303 30.0049V16.5049C30.3303 16.1071 30.1722 15.7247 29.8909 15.4434C29.6096 15.1622 29.228 15.0049 28.8303 15.0049C28.4326 15.0049 28.0511 14.8466 27.7698 14.5654C27.4886 14.2842 27.3304 13.9026 27.3303 13.5049C27.3303 13.1071 27.4885 12.7247 27.7698 12.4434C28.0511 12.1622 28.4326 12.0049 28.8303 12.0049ZM24.3303 27.0049C25.1587 27.0049 25.8303 27.6765 25.8303 28.5049C25.8301 29.3331 25.1586 30.0049 24.3303 30.0049C23.502 30.0049 22.8305 29.3331 22.8303 28.5049C22.8303 27.6765 23.5019 27.0049 24.3303 27.0049ZM24.3303 24.0049C25.1587 24.0049 25.8303 24.6765 25.8303 25.5049C25.8301 26.3331 25.1586 27.0049 24.3303 27.0049C23.502 27.0049 22.8305 26.3331 22.8303 25.5049C22.8303 24.6765 23.5019 24.0049 24.3303 24.0049ZM24.3303 21.0049C25.1587 21.0049 25.8303 21.6765 25.8303 22.5049C25.8301 23.3331 25.1586 24.0049 24.3303 24.0049C23.502 24.0049 22.8305 23.3331 22.8303 22.5049C22.8303 21.6765 23.5019 21.0049 24.3303 21.0049ZM24.3303 18.0049C25.1587 18.0049 25.8303 18.6765 25.8303 19.5049C25.8301 20.3331 25.1586 21.0049 24.3303 21.0049C23.502 21.0049 22.8305 20.3331 22.8303 19.5049C22.8303 18.6765 23.5019 18.0049 24.3303 18.0049ZM24.3303 15.0049C25.1587 15.0049 25.8303 15.6765 25.8303 16.5049C25.8301 17.3331 25.1586 18.0049 24.3303 18.0049C23.502 18.0049 22.8305 17.3331 22.8303 16.5049C22.8303 15.6765 23.5019 15.0049 24.3303 15.0049ZM24.3303 12.0049C25.1587 12.0049 25.8303 12.6765 25.8303 13.5049C25.8301 14.3331 25.1586 15.0049 24.3303 15.0049C23.502 15.0049 22.8305 14.3331 22.8303 13.5049C22.8303 12.6765 23.5019 12.0049 24.3303 12.0049ZM23.4524 3.09082C24.3251 2.91722 25.2299 3.00624 26.052 3.34668C26.8743 3.68727 27.5771 4.26486 28.0715 5.00488C28.5659 5.74487 28.8303 6.61492 28.8303 7.50488C28.8302 8.69821 28.3558 9.84271 27.512 10.6865C26.6681 11.5303 25.5237 12.0049 24.3303 12.0049C23.4403 12.0049 22.5703 11.7405 21.8303 11.2461C21.0903 10.7516 20.5137 10.0488 20.1731 9.22656C19.8325 8.40439 19.7437 7.49978 19.9172 6.62695C20.0909 5.75404 20.5193 4.9516 21.1487 4.32227C21.778 3.69308 22.5796 3.26443 23.4524 3.09082ZM24.9045 6.11816C24.6305 6.00464 24.3283 5.97533 24.0374 6.0332C23.7466 6.09109 23.4794 6.23381 23.2698 6.44336C23.06 6.65314 22.9175 6.92095 22.8596 7.21191C22.8018 7.50278 22.8311 7.80411 22.9446 8.07812C23.0581 8.35221 23.2506 8.58713 23.4973 8.75195C23.7439 8.91662 24.0338 9.00488 24.3303 9.00488C24.728 9.00488 25.1096 8.8466 25.3909 8.56543C25.6721 8.28422 25.8302 7.90256 25.8303 7.50488C25.8303 7.20821 25.7422 6.91757 25.5774 6.6709C25.4126 6.42433 25.1786 6.23166 24.9045 6.11816Z" fill="#0E102F"/>
</svg>
