<svg width="49" height="48" viewBox="0 0 49 48" fill="none" xmlns="http://www.w3.org/2000/svg">
<path d="M45.4357 32.16L41.8807 18.345C41.5874 17.0135 40.862 15.8164 39.8175 14.94C38.7729 14.0637 37.4679 13.5574 36.1057 13.5H35.1457C33.4663 13.6007 31.8944 14.3596 30.771 15.6121C29.6477 16.8646 29.0637 18.5096 29.1457 20.19V22.365C27.2187 20.3983 26.1414 17.7534 26.1457 15V9C26.1457 8.60218 25.9877 8.22064 25.7064 7.93934C25.4251 7.65803 25.0435 7.5 24.6457 7.5C24.2479 7.5 23.8664 7.65803 23.585 7.93934C23.3037 8.22064 23.1457 8.60218 23.1457 9V15C23.1344 17.7326 22.0582 20.3531 20.1457 22.305V20.19C20.2317 18.5086 19.649 16.8614 18.5249 15.608C17.4008 14.3547 15.8265 13.5968 14.1457 13.5H13.2307C11.8677 13.5549 10.5614 14.0603 9.51642 14.937C8.47141 15.8137 7.74667 17.0123 7.45571 18.345L3.90071 32.16C3.60672 33.2698 3.58127 34.4337 3.82647 35.5553C4.07166 36.677 4.58044 37.7241 5.3107 38.61C5.81407 39.2047 6.44147 39.682 7.14888 40.0085C7.85629 40.335 8.62659 40.5028 9.40571 40.5C10.1092 40.5014 10.8066 40.3691 11.4607 40.11L16.1257 38.325C17.3502 37.7948 18.3877 36.9097 19.1043 35.7841C19.8209 34.6584 20.1836 33.3438 20.1457 32.01V26.205C22.0471 24.9254 23.5949 23.1868 24.6457 21.15C25.688 23.2007 27.237 24.9511 29.1457 26.235V32.01C29.1123 33.3468 29.4803 34.663 30.2022 35.7886C30.9241 36.9143 31.9668 37.7977 33.1957 38.325L37.8607 40.11C38.5148 40.3691 39.2122 40.5014 39.9157 40.5C40.6948 40.5028 41.4651 40.335 42.1725 40.0085C42.8799 39.682 43.5073 39.2047 44.0107 38.61C44.7435 37.7254 45.2551 36.6789 45.5029 35.5572C45.7507 34.4356 45.7277 33.271 45.4357 32.16ZM17.1457 32.01C17.1769 32.7362 16.9946 33.4557 16.6214 34.0795C16.2482 34.7033 15.7004 35.2041 15.0457 35.52L10.3807 37.32C9.9084 37.5213 9.38399 37.5658 8.88452 37.447C8.38504 37.3282 7.93683 37.0524 7.6057 36.66C7.18512 36.1429 6.89367 35.5331 6.75543 34.881C6.61719 34.2289 6.63614 33.5533 6.81071 32.91L10.3657 19.08C10.4948 18.3955 10.845 17.7724 11.3626 17.3063C11.8802 16.8402 12.5365 16.5569 13.2307 16.5H14.1457C15.0299 16.5984 15.8401 17.0404 16.4013 17.7307C16.9625 18.421 17.2299 19.3043 17.1457 20.19V24.465C15.743 25.145 14.2046 25.4988 12.6457 25.5C12.2479 25.5 11.8664 25.658 11.585 25.9393C11.3037 26.2206 11.1457 26.6022 11.1457 27C11.1457 27.3978 11.3037 27.7794 11.585 28.0607C11.8664 28.342 12.2479 28.5 12.6457 28.5C14.1805 28.498 15.7032 28.229 17.1457 27.705V32.01ZM41.7157 36.66C41.3846 37.0524 40.9364 37.3282 40.4369 37.447C39.9374 37.5658 39.413 37.5213 38.9407 37.32L34.2607 35.52C33.6032 35.2063 33.0523 34.7065 32.6763 34.0825C32.3003 33.4585 32.1158 32.7379 32.1457 32.01V27.72C33.5905 28.2337 35.1123 28.4975 36.6457 28.5C37.0435 28.5 37.4251 28.342 37.7064 28.0607C37.9877 27.7794 38.1457 27.3978 38.1457 27C38.1457 26.6022 37.9877 26.2206 37.7064 25.9393C37.4251 25.658 37.0435 25.5 36.6457 25.5C35.0886 25.4979 33.5515 25.1495 32.1457 24.48V20.19C32.0655 19.3051 32.3343 18.4239 32.8948 17.7345C33.4553 17.0451 34.2631 16.6021 35.1457 16.5H36.0757C36.7699 16.5569 37.4262 16.8402 37.9438 17.3063C38.4614 17.7724 38.8116 18.3955 38.9407 19.08L42.4957 32.91C42.6744 33.551 42.6982 34.2252 42.5652 34.8772C42.4322 35.5292 42.1462 36.1402 41.7307 36.66H41.7157Z" fill="#0E102F"/>
</svg>
