<svg width="24" height="24" viewBox="0 0 24 24" fill="none" xmlns="http://www.w3.org/2000/svg">
<path d="M20.2383 7.24463C20.2713 7.24323 20.3049 7.24884 20.3359 7.26025C20.3666 7.27161 20.3949 7.28878 20.4189 7.31104L20.4199 7.31201C20.4452 7.33557 20.4649 7.36442 20.4785 7.396C20.492 7.42716 20.499 7.46057 20.499 7.49463C20.4982 7.56218 20.4737 7.627 20.4297 7.67822L12.1875 16.6704C12.164 16.6957 12.1352 16.7153 12.1035 16.729C12.0717 16.7428 12.0376 16.7497 12.0029 16.7495H11.9961C11.9615 16.7497 11.9273 16.7427 11.8955 16.729C11.8794 16.722 11.8638 16.7137 11.8496 16.7036L11.8115 16.6704L3.56348 7.67236L3.56055 7.66943C3.53827 7.64534 3.52111 7.61708 3.50977 7.58643C3.49837 7.55549 3.49274 7.52185 3.49414 7.48877C3.49558 7.45596 3.50371 7.42379 3.51758 7.39404C3.53157 7.36412 3.55172 7.33718 3.57617 7.31494L3.5791 7.31104C3.60328 7.28859 3.63218 7.27167 3.66309 7.26025C3.69393 7.24889 3.7269 7.2433 3.75977 7.24463C3.79272 7.24602 3.82555 7.25409 3.85547 7.26807C3.88541 7.28207 3.91235 7.30223 3.93457 7.32666L3.93555 7.32764L11.6309 15.728L11.999 16.1304L12.3682 15.728L20.0635 7.32764L20.0645 7.32666C20.0867 7.30223 20.1136 7.28207 20.1436 7.26807C20.1733 7.25418 20.2055 7.24606 20.2383 7.24463Z" fill="#5562FC" stroke="#5562FC"/>
</svg>
