<svg width="24" height="24" viewBox="0 0 24 24" fill="none" xmlns="http://www.w3.org/2000/svg">
<path d="M21.7665 4.88645C21.264 4.38395 20.559 4.15895 19.8465 4.19645C19.884 3.48395 19.644 2.77145 19.1115 2.23895C18.0915 1.21895 16.3815 1.25645 15.309 2.32895C14.784 2.85395 14.4915 3.53645 14.4765 4.24145L14.3865 6.43145L6.40651 14.389L4.25401 14.4714C3.53401 14.4864 2.85151 14.7789 2.32651 15.3039C1.25401 16.3764 1.21651 18.0789 2.23651 19.1064C2.73901 19.6089 3.44401 19.834 4.15651 19.7964C4.11901 20.5089 4.35901 21.2214 4.89151 21.754C5.91151 22.7739 7.62151 22.7364 8.69401 21.6639C9.21901 21.1389 9.51151 20.4564 9.52651 19.7514L9.61651 17.5614L17.5965 9.60395L19.749 9.52145C20.469 9.50645 21.1515 9.21395 21.6765 8.68895C22.749 7.61645 22.7865 5.91395 21.7665 4.88645ZM20.619 7.62395C20.3715 7.87145 20.0565 8.00645 19.7115 8.01395L17.214 8.11145C17.124 8.11145 17.0415 8.14145 16.9665 8.17145C16.854 8.21645 16.749 8.29145 16.674 8.38145L8.34151 16.6915C8.17651 16.8565 8.11651 17.0814 8.13151 17.2989L8.03401 19.7064C8.03401 20.0364 7.89151 20.3514 7.64401 20.5989C7.15651 21.0864 6.40651 21.1239 5.96401 20.6814C5.63401 20.3514 5.57401 19.8564 5.76901 19.4214L4.53151 18.184C4.08151 18.3489 3.59401 18.3114 3.31651 18.0339C2.88151 17.5989 2.91901 16.8414 3.39901 16.3539C3.64651 16.1064 3.96151 15.9714 4.30651 15.9639L6.80401 15.8664C6.89401 15.8664 6.97651 15.8364 7.05151 15.8064C7.16401 15.7614 7.26901 15.6864 7.34401 15.5964L15.6765 7.28645C15.8415 7.12145 15.9015 6.89645 15.8865 6.67895L15.984 4.27145C15.984 3.94145 16.1265 3.62645 16.374 3.37895C16.8615 2.89145 17.6115 2.85395 18.054 3.29645C18.384 3.62645 18.444 4.12145 18.249 4.55645L19.4865 5.79395C19.9365 5.62895 20.424 5.66645 20.7015 5.94395C21.1365 6.37895 21.099 7.13645 20.619 7.62395Z" fill="#0E102F"/>
</svg>
