<svg width="48" height="48" viewBox="0 0 48 48" fill="none" xmlns="http://www.w3.org/2000/svg">
<path d="M24.0054 3.00269C25.5863 2.98459 27.1556 3.28299 28.6196 3.87964C30.0836 4.47629 31.4139 5.35946 32.5317 6.47729C33.6495 7.59516 34.5328 8.92545 35.1294 10.3894C35.726 11.8534 36.0235 13.4219 36.0054 15.0027C36.0053 21.7075 31.6857 27.4371 28.0708 31.0671C27.9314 31.2077 27.7653 31.3201 27.5825 31.3962C27.3998 31.4723 27.2033 31.5115 27.0054 31.5115C26.8076 31.5114 26.6118 31.4723 26.4292 31.3962C26.2464 31.3201 26.0804 31.2077 25.9409 31.0671C25.8005 30.9278 25.6889 30.7624 25.6128 30.5798C25.5366 30.3971 25.4976 30.2007 25.4976 30.0027C25.4976 29.8047 25.5366 29.6083 25.6128 29.4255C25.6889 29.2429 25.8004 29.0766 25.9409 28.9373C29.1659 25.7273 33.0053 20.6875 33.0054 15.0027C33.0054 12.6157 32.0575 10.3263 30.3696 8.63843C28.6818 6.95073 26.3922 6.00269 24.0054 6.00269C21.6187 6.00281 19.3298 6.95085 17.6421 8.63843C15.9543 10.3263 15.0054 12.6157 15.0054 15.0027C15.0054 18.6177 17.916 23.8381 23.646 30.5281C27.371 34.6966 31.3271 38.6527 35.4956 42.3777C35.7936 42.6404 35.9751 43.0105 36.0005 43.407C36.0258 43.8035 35.8926 44.1944 35.6304 44.4929C35.3676 44.7907 34.9974 44.9725 34.6011 44.9978C34.2047 45.023 33.8146 44.8897 33.5161 44.6277C29.229 40.8219 25.1715 36.7644 21.3657 32.4773C12.0061 21.5576 12.0054 16.8027 12.0054 15.0027C11.9873 13.4219 12.2858 11.8534 12.8823 10.3894C13.4789 8.92544 14.3622 7.59516 15.48 6.47729C16.5978 5.35946 17.9282 4.47629 19.3921 3.87964C20.856 3.28305 22.4247 2.98466 24.0054 3.00269ZM21.0034 34.571C21.4028 34.571 21.7864 34.73 22.0688 35.0125C22.3513 35.2949 22.5103 35.6784 22.5103 36.0779C22.5102 36.4772 22.3512 36.86 22.0688 37.1423C19.732 39.2947 16.981 40.9487 13.9839 42.0027C13.8245 42.0233 13.6628 42.0233 13.5034 42.0027C13.1891 42.0034 12.8821 41.9054 12.6265 41.7224C12.3709 41.5394 12.1792 41.28 12.0786 40.9822C12.0152 40.7952 11.9893 40.5972 12.0024 40.4001C12.0156 40.2031 12.068 40.0107 12.1558 39.8337C12.2436 39.6567 12.3652 39.4986 12.5142 39.3689C12.6632 39.2392 12.8365 39.1405 13.0239 39.0779C15.5791 38.1668 17.9291 36.7592 19.939 34.9373V35.0125C20.2213 34.7302 20.6042 34.5712 21.0034 34.571Z" fill="#0E102F"/>
</svg>
