<svg width="24" height="24" viewBox="0 0 24 24" fill="none" xmlns="http://www.w3.org/2000/svg">
<path d="M18.24 7.17C17.8575 6.2475 18.525 4.605 17.835 3.915C17.5141 3.66316 17.1084 3.54494 16.7025 3.585C16.2825 3.585 15.825 3.6375 15.4125 3.6375C15.1294 3.64778 14.847 3.60452 14.58 3.51C13.7025 3.1425 13.02 1.5 12 1.5C10.98 1.5 10.2975 3.1425 9.42 3.51C9.153 3.60452 8.87055 3.64778 8.5875 3.6375C8.175 3.6375 7.7175 3.585 7.2975 3.585C6.89129 3.54172 6.48438 3.66029 6.165 3.915C5.475 4.605 6.165 6.2475 5.76 7.17C5.355 8.0925 3.75 8.73 3.75 9.75C3.75 10.77 5.3925 11.4525 5.76 12.33C6.1275 13.2075 5.475 14.895 6.165 15.585C6.48586 15.8368 6.89158 15.9551 7.2975 15.915C7.605 15.915 7.935 15.915 8.25 15.915V21.75C8.25039 21.8778 8.28345 22.0035 8.34605 22.115C8.40865 22.2264 8.4987 22.32 8.60766 22.3869C8.71662 22.4538 8.84087 22.4917 8.96861 22.4971C9.09634 22.5024 9.22333 22.475 9.3375 22.4175L12 21.09L14.6625 22.4175C14.767 22.471 14.8826 22.4993 15 22.5C15.1404 22.5005 15.2781 22.4615 15.3975 22.3875C15.5056 22.3199 15.5947 22.226 15.6563 22.1144C15.718 22.0029 15.7503 21.8775 15.75 21.75V15.8775C16.065 15.8775 16.395 15.8775 16.7025 15.8775C17.1087 15.9208 17.5156 15.8022 17.835 15.5475C18.525 14.8575 17.835 13.215 18.24 12.2925C18.645 11.37 20.25 10.77 20.25 9.75C20.25 8.73 18.6075 8.0475 18.24 7.17ZM12.3375 19.5825C12.2328 19.5297 12.1172 19.5023 12 19.5023C11.8828 19.5023 11.7672 19.5297 11.6625 19.5825L9.75 20.535V16.1925C10.5 16.755 11.115 18 12 18C12.885 18 13.5 16.755 14.25 16.1925V20.535L12.3375 19.5825ZM18.1875 10.14C17.6224 10.5686 17.1652 11.1234 16.8525 11.76C16.615 12.446 16.543 13.1784 16.6425 13.8975C16.6425 14.0475 16.6425 14.25 16.6425 14.415H16.125C15.8775 14.415 15.6225 14.415 15.375 14.415C14.8961 14.3999 14.4191 14.4815 13.9725 14.655C13.3359 14.9677 12.7811 15.4249 12.3525 15.99C12.24 16.125 12.09 16.2975 11.9625 16.425C11.835 16.2975 11.685 16.125 11.5725 15.99C11.1439 15.4249 10.5891 14.9677 9.9525 14.655C9.5059 14.4815 9.02888 14.3999 8.55 14.415C8.3175 14.415 8.0625 14.415 7.8 14.415H7.2825C7.2825 14.25 7.2825 14.0475 7.2825 13.8975C7.38196 13.1784 7.31 12.446 7.0725 11.76C6.75978 11.1234 6.30262 10.5686 5.7375 10.14C5.6025 10.0275 5.43 9.8775 5.3025 9.75C5.43 9.6225 5.6025 9.4725 5.7375 9.36C6.30262 8.93137 6.75978 8.37662 7.0725 7.74C7.31 7.05401 7.38196 6.32159 7.2825 5.6025C7.2825 5.4525 7.2825 5.25 7.2825 5.085H7.8C8.0475 5.085 8.3025 5.085 8.55 5.085C9.02888 5.10012 9.5059 5.0185 9.9525 4.845C10.5891 4.53227 11.1439 4.07512 11.5725 3.51C11.685 3.375 11.835 3.2025 11.9625 3.075C12.09 3.2025 12.24 3.375 12.3525 3.51C12.7811 4.07512 13.3359 4.53227 13.9725 4.845C14.4191 5.0185 14.8961 5.10012 15.375 5.085C15.6075 5.085 15.8625 5.085 16.125 5.085H16.6425C16.6425 5.25 16.6425 5.4525 16.6425 5.6025C16.543 6.32159 16.615 7.05401 16.8525 7.74C17.1652 8.37662 17.6224 8.93137 18.1875 9.36C18.3225 9.4725 18.495 9.6225 18.6225 9.75C18.495 9.8775 18.3225 10.0275 18.1875 10.14Z" fill="white"/>
</svg>
