<svg width="49" height="48" viewBox="0 0 49 48" fill="none" xmlns="http://www.w3.org/2000/svg">
<path d="M36.6382 9.00391C36.98 9.00343 37.3212 9.0334 37.6577 9.09375C38.5298 9.21799 39.3662 9.52367 40.1128 9.99121C40.8595 10.4589 41.5001 11.0781 41.9927 11.8086C44.2944 14.8879 45.4744 18.6618 45.3374 22.5039C45.4717 26.3501 44.2922 30.1278 41.9927 33.2139C41.494 33.9436 40.8478 34.5604 40.0962 35.0254C39.3444 35.4904 38.5032 35.7928 37.6274 35.9131C37.3013 35.9747 36.9701 36.0057 36.6382 36.0039C35.8371 36.036 35.0368 35.9095 34.2847 35.6318C33.5326 35.3542 32.8425 34.9306 32.2544 34.3857C31.6663 33.8408 31.192 33.1848 30.8579 32.4561C30.5238 31.7273 30.3371 30.9398 30.3081 30.1387C30.3073 29.072 30.583 28.0228 31.1089 27.0947C31.6347 26.1667 32.3928 25.3913 33.3081 24.8438C33.1649 24.5781 33.0539 24.296 32.978 24.0039H30.3374C29.9398 24.004 29.5581 24.1612 29.2769 24.4424C28.9956 24.7237 28.8374 25.1061 28.8374 25.5039V37.5039C28.8373 37.9015 28.6801 38.2833 28.3989 38.5645C28.1176 38.8458 27.7352 39.0039 27.3374 39.0039C26.9397 39.0038 26.5581 38.8457 26.2769 38.5645C25.9957 38.2832 25.8375 37.9016 25.8374 37.5039V25.5039C25.8374 24.3104 26.3118 23.1652 27.1558 22.3213C27.9996 21.4775 29.1441 21.004 30.3374 21.0039H33.0073C33.0832 20.7117 33.1941 20.4288 33.3374 20.1631C32.4223 19.6155 31.6649 18.84 31.1392 17.9121C30.6133 16.984 30.3366 15.9349 30.3374 14.8682C30.3961 13.2554 31.0927 11.7315 32.2739 10.6318C33.4552 9.5322 35.0253 8.94719 36.6382 9.00391ZM12.0366 9.00293C12.8377 8.97081 13.638 9.09736 14.3901 9.375C15.1422 9.65264 15.8323 10.0762 16.4204 10.6211C17.0085 11.166 17.4828 11.822 17.8169 12.5508C18.151 13.2795 18.3377 14.067 18.3667 14.8682C18.3675 15.9349 18.0918 16.984 17.5659 17.9121C17.0401 18.8401 16.282 19.6155 15.3667 20.1631C15.5099 20.4287 15.6209 20.7109 15.6968 21.0029H18.3374C19.5307 21.003 20.6752 21.4775 21.519 22.3213C22.3629 23.1651 22.8373 24.3096 22.8374 25.5029V37.5029C22.8374 37.9008 22.6793 38.2831 22.3979 38.5645C22.1168 38.8456 21.735 39.0028 21.3374 39.0029C20.9396 39.0029 20.5572 38.8458 20.2759 38.5645C19.9946 38.2831 19.8374 37.9008 19.8374 37.5029V25.5029C19.8373 25.1053 19.6792 24.7236 19.3979 24.4424C19.1167 24.1612 18.7351 24.003 18.3374 24.0029H15.6675C15.5916 24.2951 15.4807 24.578 15.3374 24.8438C16.2525 25.3913 17.0099 26.1669 17.5356 27.0947C18.0615 28.0228 18.3382 29.072 18.3374 30.1387C18.2787 31.7512 17.5818 33.2744 16.4009 34.374C15.2196 35.4737 13.6495 36.0596 12.0366 36.0029C11.6948 36.0034 11.3536 35.9734 11.0171 35.9131C10.1466 35.7888 9.31131 35.4844 8.56494 35.0195C7.8187 34.5547 7.17748 33.9392 6.68213 33.2129C4.38262 30.1267 3.20301 26.3492 3.3374 22.5029C3.2005 18.661 4.38049 14.8878 6.68213 11.8086C7.17792 11.0747 7.82266 10.4532 8.57471 9.98535C9.32684 9.51753 10.1698 9.21402 11.0474 9.09375C11.3735 9.03211 11.7047 9.00112 12.0366 9.00293ZM11.5269 12.0029C11.0466 12.0655 10.5855 12.2322 10.1763 12.4912C9.76699 12.7502 9.41888 13.0956 9.15674 13.5029C9.12553 13.5638 9.08493 13.6195 9.03662 13.668C7.16259 16.2224 6.2115 19.3373 6.3374 22.5029C6.21142 25.6685 7.16274 28.7835 9.03662 31.3379C9.08482 31.3862 9.12556 31.4422 9.15674 31.5029C9.41025 31.9083 9.7501 32.2535 10.1519 32.5127C10.5537 32.7719 11.008 32.939 11.4819 33.0029C11.6663 33.0235 11.8523 33.0235 12.0366 33.0029C12.8522 33.0527 13.6549 32.7807 14.272 32.2451C14.889 31.7094 15.2721 30.9531 15.3374 30.1387C15.3556 29.7337 15.2914 29.3288 15.1489 28.9492C15.0064 28.5695 14.7877 28.2217 14.5073 27.9287C14.227 27.6359 13.89 27.4032 13.5171 27.2441C13.1442 27.0851 12.7429 27.0026 12.3374 27.0029C12.0126 26.9661 11.7079 26.825 11.4712 26.5996C11.2344 26.3742 11.0775 26.0766 11.0249 25.7539C10.9724 25.4314 11.0274 25.1004 11.1802 24.8115C11.333 24.5227 11.5755 24.2914 11.8716 24.1533C12.1868 24.028 12.4574 23.8109 12.6479 23.5303C12.8385 23.2495 12.9409 22.9175 12.9409 22.5781C12.9409 22.2389 12.8384 21.9077 12.6479 21.627C12.4574 21.3462 12.1869 21.1283 11.8716 21.0029C11.4739 20.9412 11.117 20.7242 10.8794 20.3994C10.6418 20.0745 10.5423 19.6683 10.604 19.2705C10.6657 18.8728 10.8837 18.516 11.2085 18.2783C11.5334 18.0407 11.9396 17.9413 12.3374 18.0029C12.7429 18.0033 13.1442 17.9218 13.5171 17.7627C13.8902 17.6036 14.2269 17.3702 14.5073 17.0771C14.7877 16.7841 15.0064 16.4373 15.1489 16.0576C15.2914 15.678 15.3556 15.2732 15.3374 14.8682C15.2721 14.0536 14.889 13.2974 14.272 12.7617C13.6549 12.2261 12.8522 11.9532 12.0366 12.0029C11.8671 11.9875 11.6964 11.9875 11.5269 12.0029ZM37.1929 12.0039C37.0085 11.9834 36.8225 11.9834 36.6382 12.0039C35.8226 11.9542 35.0199 12.2261 34.4028 12.7617C33.7858 13.2974 33.4027 14.0537 33.3374 14.8682C33.3192 15.2732 33.3834 15.6781 33.5259 16.0576C33.6684 16.4373 33.8871 16.7841 34.1675 17.0771C34.4479 17.3702 34.7847 17.6036 35.1577 17.7627C35.5307 17.9218 35.932 18.0043 36.3374 18.0039C36.6622 18.0407 36.9669 18.1818 37.2036 18.4072C37.4403 18.6326 37.5972 18.9294 37.6499 19.252C37.7025 19.5746 37.6475 19.9063 37.4946 20.1953C37.3418 20.4841 37.0993 20.7154 36.8032 20.8535C36.488 20.9789 36.2174 21.1959 36.0269 21.4766C35.8363 21.7574 35.7339 22.0894 35.7339 22.4287C35.7339 22.7679 35.8364 23.0992 36.0269 23.3799C36.2174 23.6607 36.4879 23.8785 36.8032 24.0039C37.2009 24.0657 37.5578 24.2826 37.7954 24.6074C38.033 24.9323 38.1315 25.3386 38.0698 25.7363C38.0081 26.134 37.7911 26.4909 37.4663 26.7285C37.1414 26.9661 36.7352 27.0656 36.3374 27.0039C35.932 27.0035 35.5307 27.0851 35.1577 27.2441C34.7847 27.4033 34.4479 27.6367 34.1675 27.9297C33.8871 28.2227 33.6684 28.5696 33.5259 28.9492C33.3834 29.3288 33.3192 29.7336 33.3374 30.1387C33.4101 30.9478 33.7964 31.6962 34.4126 32.2256C35.0289 32.755 35.8273 33.0238 36.6382 32.9736C36.8077 32.9891 36.9784 32.9891 37.1479 32.9736C37.6283 32.911 38.0892 32.7444 38.4985 32.4854C38.9079 32.2263 39.2559 31.881 39.5181 31.4736C39.5493 31.4127 39.5899 31.357 39.6382 31.3086V31.3389C41.5122 28.7845 42.4633 25.6695 42.3374 22.5039C42.4634 19.3384 41.5121 16.2233 39.6382 13.6689C39.59 13.6206 39.5492 13.5646 39.5181 13.5039C39.2661 13.097 38.9261 12.7507 38.5239 12.4912C38.1219 12.2319 37.6672 12.0658 37.1929 12.0039Z" fill="#0E102F"/>
</svg>
