<svg width="24" height="24" viewBox="0 0 24 24" fill="none" xmlns="http://www.w3.org/2000/svg">
<path d="M18.0037 21.7293C17.8859 21.7314 17.7696 21.703 17.666 21.6468L12 18.7767L6.31148 21.6768C6.19219 21.7337 6.05996 21.7581 5.92818 21.7476C5.79639 21.7371 5.66973 21.692 5.56102 21.6169C5.44594 21.5327 5.35729 21.4174 5.30545 21.2847C5.25362 21.152 5.24074 21.0073 5.26834 20.8675L6.31148 14.7601L1.72614 10.4212C1.62838 10.3259 1.55853 10.2057 1.52415 10.0736C1.48976 9.94158 1.49214 9.80265 1.53102 9.67184C1.57334 9.53726 1.65284 9.41734 1.76037 9.32587C1.86791 9.2344 1.99911 9.17509 2.1389 9.15477L8.49533 8.24053L11.3321 2.65769C11.3951 2.53494 11.4907 2.43193 11.6086 2.35999C11.7264 2.28806 11.8619 2.25 12 2.25C12.1381 2.25 12.2736 2.28806 12.3914 2.35999C12.5093 2.43193 12.6049 2.53494 12.6679 2.65769L15.5047 8.24053L21.8611 9.13229C22.0009 9.15261 22.1321 9.21192 22.2396 9.30339C22.3472 9.39486 22.4267 9.51478 22.469 9.64936C22.5079 9.78017 22.5102 9.9191 22.4759 10.0512C22.4415 10.1832 22.3716 10.3034 22.2739 10.3987L17.6885 14.7601L18.7542 20.8825C18.7818 21.0223 18.7689 21.167 18.7171 21.2997C18.6652 21.4324 18.5766 21.5476 18.4615 21.6319C18.3232 21.7122 18.1628 21.7464 18.0037 21.7293ZM12 17.1506C12.1175 17.1513 12.2332 17.1795 12.3377 17.233L17.0281 19.6235L16.1426 14.5952C16.1203 14.4736 16.1285 14.3484 16.1665 14.2307C16.2045 14.113 16.271 14.0066 16.3602 13.9208L20.1125 10.3762L14.9193 9.62687C14.7998 9.60961 14.6862 9.56381 14.5883 9.49336C14.4903 9.42292 14.4108 9.3299 14.3565 9.22221L12 4.65102L9.65105 9.26717C9.59675 9.37486 9.51723 9.46788 9.41925 9.53833C9.32126 9.60877 9.2077 9.65457 9.0882 9.67184L3.89499 10.4212L7.64731 13.9658C7.73649 14.0515 7.80303 14.158 7.841 14.2757C7.87897 14.3933 7.8872 14.5186 7.86494 14.6402L6.97189 19.6535L11.6623 17.233C11.7693 17.1898 11.8849 17.1719 12 17.1806V17.1506Z" fill="#008A19"/>
<path d="M12 2.25012C11.8645 2.24767 11.7308 2.28186 11.6132 2.34909C11.4956 2.41631 11.3985 2.51405 11.3321 2.63192L8.49533 8.23911L2.1389 9.12997C1.99911 9.15027 1.86791 9.20952 1.76037 9.30089C1.65284 9.39227 1.57334 9.51207 1.53102 9.64652C1.49214 9.7772 1.48976 9.91599 1.52415 10.0479C1.55853 10.1798 1.62838 10.2999 1.72614 10.3951L6.31148 14.7297L5.24582 20.8684C5.21823 21.008 5.2311 21.1526 5.28294 21.2852C5.33478 21.4178 5.42343 21.5329 5.5385 21.617C5.64722 21.692 5.77388 21.7371 5.90566 21.7476C6.03744 21.7581 6.16967 21.7337 6.28897 21.6769L12 18.7647V2.25012Z" fill="#008A19"/>
</svg>
