<svg width="32" height="32" viewBox="0 0 32 32" fill="none" xmlns="http://www.w3.org/2000/svg">
<path d="M14 2C14.7956 2 15.5585 2.3163 16.1211 2.87891C16.6837 3.44152 17 4.20435 17 5V6C16.9951 8.01951 16.7632 10.0321 16.3096 12H26C26.7956 12 27.5585 12.3163 28.1211 12.8789C28.6837 13.4415 29 14.2044 29 15C28.9956 15.7401 28.7175 16.4524 28.2197 17C28.5572 17.3808 28.7927 17.8412 28.9033 18.3379C29.0139 18.8344 28.9965 19.351 28.8525 19.8389C28.7085 20.3269 28.4426 20.7709 28.0801 21.1279C27.7177 21.4848 27.2702 21.7434 26.7803 21.8799C26.9358 22.2723 27.0065 22.6935 26.9883 23.1152C26.97 23.5367 26.8635 23.9498 26.6748 24.3271C26.486 24.7047 26.219 25.0381 25.8926 25.3057C25.5662 25.5731 25.1873 25.7689 24.7803 25.8799C24.9633 26.3348 25.032 26.8278 24.9805 27.3154C24.9288 27.8032 24.7578 28.2711 24.4834 28.6777C24.209 29.0844 23.8393 29.418 23.4062 29.6484C22.9733 29.8788 22.4904 29.9995 22 30H16C13.4532 30.0289 10.9309 29.4999 8.61035 28.4502C8.35251 28.9172 7.97429 29.3067 7.51562 29.5791C7.05684 29.8516 6.53358 29.9971 6 30H3V28H6C6.26522 28 6.51949 27.8946 6.70703 27.707C6.89457 27.5195 7 27.2652 7 27V15C7 14.7348 6.89457 14.4805 6.70703 14.293C6.51949 14.1054 6.26522 14 6 14H3V12H6C6.70801 12.0047 7.39155 12.2596 7.92969 12.7197C8.92652 11.7001 9.7113 10.493 10.2383 9.16797C10.7653 7.8428 11.0244 6.4259 11 5C11 4.20435 11.3163 3.44152 11.8789 2.87891C12.4415 2.3163 13.2044 2 14 2ZM14 4C13.7348 4 13.4805 4.10543 13.293 4.29297C13.1054 4.4805 13 4.73478 13 5C13.0281 6.78024 12.682 8.54645 11.9844 10.1846C11.2868 11.8227 10.2532 13.2964 8.9502 14.5098C8.98215 14.6712 8.9987 14.8355 9 15V26.4199C11.1761 27.4912 13.5747 28.0327 16 28H22C22.2652 28 22.5195 27.8946 22.707 27.707C22.8946 27.5195 23 27.2652 23 27C23 26.7348 22.8946 26.4805 22.707 26.293C22.5195 26.1054 22.2652 26 22 26H18V24H24C24.2652 24 24.5195 23.8946 24.707 23.707C24.8946 23.5195 25 23.2652 25 23C25 22.7348 24.8946 22.4805 24.707 22.293C24.5195 22.1054 24.2652 22 24 22H18V20H26C26.2652 20 26.5195 19.8946 26.707 19.707C26.8946 19.5195 27 19.2652 27 19C27 18.7348 26.8946 18.4805 26.707 18.293C26.5195 18.1054 26.2652 18 26 18H18V16H26C26.2652 16 26.5195 15.8946 26.707 15.707C26.8946 15.5195 27 15.2652 27 15C27 14.7348 26.8946 14.4805 26.707 14.293C26.5195 14.1054 26.2652 14 26 14H13.6201L14.0498 12.6797C14.6854 10.5102 15.0056 8.26064 15 6V5C15 4.73478 14.8946 4.4805 14.707 4.29297C14.5195 4.10543 14.2652 4 14 4ZM4 16C4.55228 16 5 16.4477 5 17C5 17.5523 4.55228 18 4 18C3.44772 18 3 17.5523 3 17C3 16.4477 3.44772 16 4 16Z" fill="#0E102F"/>
</svg>
