<svg width="24" height="24" viewBox="0 0 24 24" fill="none" xmlns="http://www.w3.org/2000/svg">
<path d="M20.7825 19.7175L16.2825 15.2175C17.3799 13.889 17.9864 12.2231 18 10.5C18 8.51088 17.2098 6.60322 15.8033 5.1967C14.3968 3.79018 12.4891 3 10.5 3C8.51088 3 6.60322 3.79018 5.1967 5.1967C3.79018 6.60322 3 8.51088 3 10.5C3 12.4891 3.79018 14.3968 5.1967 15.8033C5.89314 16.4997 6.71993 17.0522 7.62987 17.4291C8.53981 17.806 9.51509 18 10.5 18C12.2307 17.9997 13.908 17.4008 15.2475 16.305L19.7475 20.805C19.885 20.93 20.0641 20.9995 20.25 21C20.3487 21.0006 20.4466 20.9817 20.5379 20.9443C20.6293 20.907 20.7124 20.852 20.7825 20.7825C20.8528 20.7128 20.9086 20.6298 20.9467 20.5384C20.9847 20.447 21.0043 20.349 21.0043 20.25C21.0043 20.151 20.9847 20.053 20.9467 19.9616C20.9086 19.8702 20.8528 19.7872 20.7825 19.7175ZM10.5 16.5C8.9087 16.5 7.38258 15.8679 6.25736 14.7426C5.13214 13.6174 4.5 12.0913 4.5 10.5C4.5 8.9087 5.13214 7.38258 6.25736 6.25736C7.38258 5.13214 8.9087 4.5 10.5 4.5C12.0913 4.5 13.6174 5.13214 14.7426 6.25736C15.8679 7.38258 16.5 8.9087 16.5 10.5C16.5 12.0913 15.8679 13.6174 14.7426 14.7426C13.6174 15.8679 12.0913 16.5 10.5 16.5Z" fill="#5562FC"/>
</svg>
