<svg width="16" height="16" viewBox="0 0 16 16" fill="none" xmlns="http://www.w3.org/2000/svg">
<path d="M9.40994 7.99994L13.7099 3.70994C13.8982 3.52164 14.004 3.26624 14.004 2.99994C14.004 2.73364 13.8982 2.47825 13.7099 2.28994C13.5216 2.10164 13.2662 1.99585 12.9999 1.99585C12.7336 1.99585 12.4782 2.10164 12.2899 2.28994L7.99994 6.58994L3.70994 2.28994C3.52164 2.10164 3.26624 1.99585 2.99994 1.99585C2.73364 1.99585 2.47824 2.10164 2.28994 2.28994C2.10164 2.47825 1.99585 2.73364 1.99585 2.99994C1.99585 3.26624 2.10164 3.52164 2.28994 3.70994L6.58994 7.99994L2.28994 12.2899C2.19621 12.3829 2.12182 12.4935 2.07105 12.6154C2.02028 12.7372 1.99414 12.8679 1.99414 12.9999C1.99414 13.132 2.02028 13.2627 2.07105 13.3845C2.12182 13.5064 2.19621 13.617 2.28994 13.7099C2.3829 13.8037 2.4935 13.8781 2.61536 13.9288C2.73722 13.9796 2.86793 14.0057 2.99994 14.0057C3.13195 14.0057 3.26266 13.9796 3.38452 13.9288C3.50637 13.8781 3.61698 13.8037 3.70994 13.7099L7.99994 9.40994L12.2899 13.7099C12.3829 13.8037 12.4935 13.8781 12.6154 13.9288C12.7372 13.9796 12.8679 14.0057 12.9999 14.0057C13.132 14.0057 13.2627 13.9796 13.3845 13.9288C13.5064 13.8781 13.617 13.8037 13.7099 13.7099C13.8037 13.617 13.8781 13.5064 13.9288 13.3845C13.9796 13.2627 14.0057 13.132 14.0057 12.9999C14.0057 12.8679 13.9796 12.7372 13.9288 12.6154C13.8781 12.4935 13.8037 12.3829 13.7099 12.2899L9.40994 7.99994Z" fill="#0E102F"/>
</svg>
