<svg width="49" height="48" viewBox="0 0 49 48" fill="none" xmlns="http://www.w3.org/2000/svg">
<path d="M37.8516 23.9846H35.8716C35.5772 22.8944 35.0671 21.8743 34.3716 20.9846H34.8516C35.2494 20.9846 35.6309 20.8266 35.9122 20.5453C36.1935 20.264 36.3516 19.8824 36.3516 19.4846C36.3516 19.0868 36.1935 18.7053 35.9122 18.424C35.6309 18.1427 35.2494 17.9846 34.8516 17.9846H28.7016C28.5046 17.96 28.3047 17.9744 28.1133 18.027C27.9219 18.0797 27.7427 18.1695 27.586 18.2914C27.2695 18.5375 27.0638 18.8993 27.0141 19.2971C26.9643 19.6949 27.0747 20.0962 27.3208 20.4127C27.567 20.7292 27.9287 20.9349 28.3266 20.9846C31.8966 21.4496 33.5916 23.9096 33.3216 28.3346C33.0216 33.6746 29.9466 38.5796 28.6716 38.9696C18.5616 35.7146 14.7516 28.8896 15.5166 23.8796C15.7274 22.1705 16.5849 20.607 17.9129 19.5106C19.2409 18.4142 20.9384 17.8681 22.6566 17.9846H22.8516C23.2494 17.9846 23.6309 17.8266 23.9122 17.5453C24.1935 17.264 24.3516 16.8824 24.3516 16.4846C24.3161 15.9633 24.3927 15.4404 24.5761 14.9512C24.7596 14.4619 25.0456 14.0176 25.4151 13.6482C25.7846 13.2787 26.2289 12.9926 26.7181 12.8092C27.2074 12.6257 27.7303 12.5492 28.2516 12.5846H30.3516C30.7494 12.5846 31.1309 12.4266 31.4122 12.1453C31.6935 11.864 31.8516 11.4824 31.8516 11.0846C31.8516 10.6868 31.6935 10.3053 31.4122 10.024C31.1309 9.74266 30.7494 9.58462 30.3516 9.58462H28.2516C26.6495 9.52191 25.0794 10.0445 23.8345 11.0548C22.5896 12.0651 21.755 13.494 21.4866 15.0746H21.3516V7.48462C21.3516 7.08679 21.1935 6.70526 20.9122 6.42396C20.6309 6.14265 20.2494 5.98462 19.8516 5.98462C19.4537 5.98462 19.0722 6.14265 18.7909 6.42396C18.5096 6.70526 18.3516 7.08679 18.3516 7.48462V15.8396C17.2346 16.3026 16.2164 16.9746 15.3516 17.8196V13.4846C15.3516 13.0868 15.1935 12.7053 14.9122 12.424C14.6309 12.1427 14.2494 11.9846 13.8516 11.9846C13.4537 11.9846 13.0722 12.1427 12.7909 12.424C12.5096 12.7053 12.3516 13.0868 12.3516 13.4846V17.9846H10.8516C10.4537 17.9846 10.0722 18.1427 9.7909 18.424C9.5096 18.7053 9.35156 19.0868 9.35156 19.4846C9.35156 19.8824 9.5096 20.264 9.7909 20.5453C10.0722 20.8266 10.4537 20.9846 10.8516 20.9846H12.3516V40.4846C12.3516 40.8824 12.5096 41.264 12.7909 41.5453C13.0722 41.8266 13.4537 41.9846 13.8516 41.9846C14.2494 41.9846 14.6309 41.8266 14.9122 41.5453C15.1935 41.264 15.3516 40.8824 15.3516 40.4846V33.4796C18.5569 37.6192 23.0213 40.6043 28.0716 41.9846C28.2207 42.0072 28.3724 42.0072 28.5216 41.9846C32.2566 41.9846 35.9316 34.6196 36.3216 28.5896C36.3216 28.0196 36.3216 27.5096 36.3216 26.9846H37.8216C38.2194 26.9846 38.6009 26.8266 38.8822 26.5453C39.1635 26.264 39.3216 25.8824 39.3216 25.4846C39.3216 25.0868 39.1635 24.7053 38.8822 24.424C38.6009 24.1427 38.2194 23.9846 37.8216 23.9846H37.8516Z" fill="#0E102F"/>
</svg>
