<svg width="24" height="24" viewBox="0 0 24 24" fill="none" xmlns="http://www.w3.org/2000/svg">
<path d="M14.2483 1.49658C14.2483 1.90908 14.5858 2.24658 14.9983 2.24658C15.4106 2.24681 15.7483 2.58422 15.7483 2.99658C15.7483 3.40894 15.4106 3.74635 14.9983 3.74658H14.2483C13.4747 3.74658 12.8331 4.34011 12.7561 5.09424L12.7444 5.32275C12.7059 5.69971 12.3849 5.99637 11.9983 5.99658H8.24829C6.17829 5.99658 4.49829 7.67658 4.49829 9.74658C4.49829 11.8166 6.17829 13.4966 8.24829 13.4966H18.7483C19.1606 13.4968 19.4983 13.8342 19.4983 14.2466C19.4983 14.6589 19.1606 14.9964 18.7483 14.9966H5.24829C4.01079 14.9966 2.99829 16.0091 2.99829 17.2466C2.99829 18.4841 4.01079 19.4966 5.24829 19.4966H15.0051C15.8301 19.4966 16.5051 20.1716 16.5051 20.9966V22.4966H15.0051V20.9966H5.25513C3.18524 20.9965 1.50513 19.3165 1.50513 17.2466C1.50513 15.3866 2.87052 13.8487 4.65552 13.5562C3.6431 12.5962 3.00513 11.2465 3.00513 9.74658C3.00513 6.85166 5.36024 4.49671 8.25513 4.49658H11.3606C11.5856 3.61919 12.2001 2.89895 13.01 2.52393C12.8451 2.21649 12.7483 1.87147 12.7483 1.49658H14.2483ZM17.9983 1.49658C20.4806 1.49685 22.4983 3.51424 22.4983 5.99658C22.4983 7.84621 21.3909 9.50831 19.6555 10.6108C21.2865 11.0185 22.4981 12.4867 22.4983 14.2388C22.4983 16.3086 20.8181 17.9885 18.7483 17.9888H18.7249C19.2048 18.6187 19.4982 19.3914 19.4983 20.2388V22.4888H17.9983V20.2388C17.9981 19.0016 16.9855 17.989 15.7483 17.9888H5.24829C4.83579 17.9888 4.49829 17.6513 4.49829 17.2388C4.49846 16.8264 4.8359 16.4888 5.24829 16.4888H18.7551C19.9926 16.4888 21.0051 15.4763 21.0051 14.2388C21.005 13.0014 19.9925 11.9888 18.7551 11.9888H8.25513C7.01771 11.9887 6.00513 10.9312 6.00513 9.73877C6.00529 8.54641 6.93581 7.58689 8.10571 7.50439H8.12817C8.17295 7.50435 8.21033 7.4966 8.25513 7.49658C8.45008 7.49658 8.64486 7.57941 8.78735 7.71436C8.83984 7.77434 8.87779 7.84153 8.91528 7.9165C9.97278 9.484 12.2083 10.4966 14.6458 10.4966C18.148 10.4964 20.9983 8.47898 20.9983 5.99658C20.9983 4.33924 19.6556 2.99685 17.9983 2.99658C17.1733 2.99658 16.4983 2.32158 16.4983 1.49658H17.9983ZM7.91821 9.07861C7.67071 9.20611 7.49829 9.45408 7.49829 9.74658C7.49829 10.1591 7.83579 10.4966 8.24829 10.4966H9.44067C8.84817 10.0916 8.33821 9.61861 7.91821 9.07861Z" fill="#0E102F"/>
</svg>
