<svg width="32" height="32" viewBox="0 0 32 32" fill="none" xmlns="http://www.w3.org/2000/svg">
<path d="M16 3C22.2274 3 25.4173 5.07827 25.5498 5.16992L26 5.45996V18C26 26.77 16.31 29 16.21 29H15.79C15.69 29 6 26.77 6 18V5.45996L6.4502 5.16992C6.58275 5.07826 9.77266 3 16 3ZM16 5C13.2472 4.91584 10.5114 5.45944 8 6.58984V18C8 24.5399 14.6798 26.5896 16 26.9297C17.3102 26.5896 24 24.5399 24 18V6.58984C21.4891 5.45809 18.7529 4.91443 16 5ZM18.876 12.0693C19.1257 12.0515 19.3733 12.1275 19.5693 12.2832C19.7655 12.4391 19.8966 12.6637 19.9355 12.9111C19.9744 13.1585 19.9189 13.4116 19.7803 13.6201L15.7803 18.6201C15.6937 18.7303 15.5849 18.8213 15.4609 18.8867C15.337 18.9521 15.2004 18.9907 15.0605 19H15C14.8685 19.0007 14.738 18.9755 14.6162 18.9258C14.4944 18.876 14.3835 18.8026 14.29 18.71L12.29 16.71C12.1018 16.5217 11.9961 16.2663 11.9961 16C11.9961 15.7337 12.1018 15.4783 12.29 15.29C12.4783 15.1018 12.7338 14.9961 13 14.9961C13.2663 14.9961 13.5217 15.1018 13.71 15.29L14.9199 16.5L18.2197 12.3799C18.3917 12.1977 18.6262 12.0872 18.876 12.0693Z" fill="#0E102F"/>
</svg>
