<svg width="32" height="32" viewBox="0 0 32 32" fill="none" xmlns="http://www.w3.org/2000/svg">
<path d="M5 5C5.26522 5 5.51949 5.10543 5.70703 5.29297C5.89457 5.48051 6 5.73478 6 6V25H27C27.2652 25 27.5195 25.1054 27.707 25.293C27.8946 25.4805 28 25.7348 28 26C28 26.2652 27.8946 26.5195 27.707 26.707C27.5195 26.8946 27.2652 27 27 27H4V6C4 5.73478 4.10543 5.48051 4.29297 5.29297C4.48051 5.10543 4.73478 5 5 5ZM9 19C9.26522 19 9.5195 19.1054 9.70703 19.293C9.89457 19.4805 10 19.7348 10 20V22C10 22.2652 9.89457 22.5195 9.70703 22.707C9.5195 22.8946 9.26522 23 9 23C8.73478 23 8.4805 22.8946 8.29297 22.707C8.10543 22.5195 8 22.2652 8 22V20C8 19.7348 8.10543 19.4805 8.29297 19.293C8.4805 19.1054 8.73478 19 9 19ZM13 17C13.2652 17 13.5195 17.1054 13.707 17.293C13.8946 17.4805 14 17.7348 14 18V22C14 22.2652 13.8946 22.5195 13.707 22.707C13.5195 22.8946 13.2652 23 13 23C12.7348 23 12.4805 22.8946 12.293 22.707C12.1054 22.5195 12 22.2652 12 22V18C12 17.7348 12.1054 17.4805 12.293 17.293C12.4805 17.1054 12.7348 17 13 17ZM17 17C17.2652 17 17.5195 17.1054 17.707 17.293C17.8946 17.4805 18 17.7348 18 18V22C18 22.2652 17.8946 22.5195 17.707 22.707C17.5195 22.8946 17.2652 23 17 23C16.7348 23 16.4805 22.8946 16.293 22.707C16.1054 22.5195 16 22.2652 16 22V18C16 17.7348 16.1054 17.4805 16.293 17.293C16.4805 17.1054 16.7348 17 17 17ZM21 13C21.2652 13 21.5195 13.1054 21.707 13.293C21.8946 13.4805 22 13.7348 22 14V22C22 22.2652 21.8946 22.5195 21.707 22.707C21.5195 22.8946 21.2652 23 21 23C20.7348 23 20.4805 22.8946 20.293 22.707C20.1054 22.5195 20 22.2652 20 22V14C20 13.7348 20.1054 13.4805 20.293 13.293C20.4805 13.1054 20.7348 13 21 13ZM25 7C25.2652 7 25.5195 7.10543 25.707 7.29297C25.8946 7.48051 26 7.73478 26 8V22C26 22.2652 25.8946 22.5195 25.707 22.707C25.5195 22.8946 25.2652 23 25 23C24.7348 23 24.4805 22.8946 24.293 22.707C24.1054 22.5195 24 22.2652 24 22V8C24 7.73478 24.1054 7.48051 24.293 7.29297C24.4805 7.10543 24.7348 7 25 7Z" fill="#0E102F"/>
</svg>
