<svg width="16" height="16" viewBox="0 0 16 16" fill="none" xmlns="http://www.w3.org/2000/svg">
<path d="M13.9998 5.00005C14.0003 5.2337 13.9189 5.46014 13.7698 5.64005L8.7698 11.64C8.67578 11.7529 8.55805 11.8437 8.42496 11.9059C8.29188 11.9682 8.14672 12.0003 7.99981 12.0001C7.8529 12.0003 7.70773 11.9682 7.57465 11.9059C7.44157 11.8437 7.32383 11.7529 7.22981 11.64L2.22981 5.64005C2.14561 5.539 2.08216 5.42234 2.04312 5.29673C2.00407 5.17113 1.99019 5.03905 2.00227 4.90808C2.01435 4.7771 2.05214 4.64979 2.11349 4.53344C2.17484 4.4171 2.25855 4.314 2.35981 4.23005C2.46086 4.14585 2.57752 4.08241 2.70312 4.04336C2.82873 4.00432 2.9608 3.99044 3.09178 4.00251C3.22276 4.01459 3.35007 4.05238 3.46641 4.11374C3.58276 4.17509 3.68585 4.25879 3.7698 4.36005L7.99981 9.44005L12.2298 4.36005C12.3138 4.25879 12.4169 4.17509 12.5332 4.11374C12.6495 4.05238 12.7769 4.01459 12.9078 4.00251C13.0388 3.99044 13.1709 4.00432 13.2965 4.04336C13.4221 4.08241 13.5388 4.14585 13.6398 4.23005C13.7527 4.32408 13.8435 4.44181 13.9057 4.57489C13.9679 4.70798 14 4.85314 13.9998 5.00005Z" fill="#5562FC"/>
</svg>
