<svg width="16" height="16" viewBox="0 0 16 16" fill="none" xmlns="http://www.w3.org/2000/svg">
<path d="M13.4299 12.245C12.449 10.3119 11.9579 8.16736 11.9999 6C11.999 5.02635 11.6431 4.08646 10.9987 3.35652C10.3544 2.62657 9.46592 2.15671 8.49991 2.035V1.5C8.49991 1.36739 8.44723 1.24021 8.35347 1.14645C8.2597 1.05268 8.13252 1 7.99991 1C7.8673 1 7.74013 1.05268 7.64636 1.14645C7.55259 1.24021 7.49991 1.36739 7.49991 1.5V2.035C6.5339 2.15671 5.64545 2.62657 5.00111 3.35652C4.35677 4.08646 4.0008 5.02635 3.99991 6C4.04188 8.16736 3.55082 10.3119 2.56991 12.245C2.5249 12.3209 2.50079 12.4074 2.50002 12.4956C2.49925 12.5839 2.52185 12.6708 2.56552 12.7474C2.6092 12.8241 2.6724 12.8879 2.74869 12.9323C2.82498 12.9766 2.91166 13 2.99991 13H6.58991C6.50768 13.2266 6.48126 13.4696 6.51288 13.7086C6.5445 13.9475 6.63324 14.1753 6.77157 14.3727C6.90991 14.5701 7.09377 14.7312 7.30759 14.8424C7.52141 14.9537 7.75889 15.0118 7.99991 15.0118C8.24094 15.0118 8.47842 14.9537 8.69224 14.8424C8.90605 14.7312 9.08992 14.5701 9.22825 14.3727C9.36659 14.1753 9.45533 13.9475 9.48695 13.7086C9.51857 13.4696 9.49215 13.2266 9.40991 13H12.9999C13.0882 13 13.1748 12.9766 13.2511 12.9323C13.3274 12.8879 13.3906 12.8241 13.4343 12.7474C13.478 12.6708 13.5006 12.5839 13.4998 12.4956C13.499 12.4074 13.4749 12.3209 13.4299 12.245ZM8.49991 13.5C8.49991 13.5989 8.47059 13.6956 8.41565 13.7778C8.36071 13.86 8.28262 13.9241 8.19125 13.9619C8.09989 13.9998 7.99936 14.0097 7.90237 13.9904C7.80538 13.9711 7.71629 13.9235 7.64636 13.8536C7.57643 13.7836 7.52881 13.6945 7.50952 13.5975C7.49023 13.5006 7.50013 13.4 7.53797 13.3087C7.57582 13.2173 7.6399 13.1392 7.72213 13.0843C7.80435 13.0293 7.90102 13 7.99991 13C8.13252 13 8.2597 13.0527 8.35347 13.1464C8.44723 13.2402 8.49991 13.3674 8.49991 13.5ZM3.80491 12C4.61052 10.1031 5.01728 8.06079 4.99991 6C4.99991 5.20435 5.31598 4.44129 5.87859 3.87868C6.4412 3.31607 7.20426 3 7.99991 3C8.79556 3 9.55862 3.31607 10.1212 3.87868C10.6838 4.44129 10.9999 5.20435 10.9999 6C10.9825 8.06079 11.3893 10.1031 12.1949 12H3.80491Z" fill="#008A19"/>
</svg>
