<svg width="32" height="32" viewBox="0 0 32 32" fill="none" xmlns="http://www.w3.org/2000/svg">
<path d="M26.0001 13.08C26.0001 13.08 26.0001 13.08 26.0001 13V6C26.0001 5.46957 25.7894 4.96086 25.4143 4.58578C25.0393 4.21071 24.5305 4 24.0001 4H8.00011C7.46968 4 6.96097 4.21071 6.5859 4.58578C6.21082 4.96086 6.00011 5.46957 6.00011 6V13C6.00011 13 6.00011 13 6.00011 13.08C4.85848 13.2931 3.82962 13.9047 3.09701 14.8058C2.3644 15.7069 1.97566 16.8389 2.00011 18V28H4.00011V24H28.0001V28H30.0001V18C30.0246 16.8389 29.6358 15.7069 28.9032 14.8058C28.1706 13.9047 27.1417 13.2931 26.0001 13.08ZM8.00011 6H24.0001V13H20.8201C20.9799 12.5482 21.029 12.0647 20.9635 11.5899C20.898 11.1152 20.7197 10.6631 20.4436 10.2714C20.1675 9.8797 19.8015 9.55988 19.3764 9.33868C18.9513 9.11748 18.4793 9.00135 18.0001 9H14.0001C13.5209 9.00135 13.0489 9.11748 12.6238 9.33868C12.1987 9.55988 11.8327 9.8797 11.5566 10.2714C11.2805 10.6631 11.1022 11.1152 11.0367 11.5899C10.9712 12.0647 11.0204 12.5482 11.1801 13H8.00011V6ZM13.0001 12C13.0001 11.7348 13.1055 11.4804 13.293 11.2929C13.4805 11.1054 13.7349 11 14.0001 11H18.0001C18.2653 11 18.5197 11.1054 18.7072 11.2929C18.8948 11.4804 19.0001 11.7348 19.0001 12C19.0001 12.2652 18.8948 12.5196 18.7072 12.7071C18.5197 12.8946 18.2653 13 18.0001 13H14.0001C13.7349 13 13.4805 12.8946 13.293 12.7071C13.1055 12.5196 13.0001 12.2652 13.0001 12ZM28.0001 22H4.00011V18C3.96468 17.2436 4.22963 16.5038 4.73725 15.9419C5.24486 15.3799 5.95398 15.0414 6.71011 15H25.2901C26.0462 15.0414 26.7554 15.3799 27.263 15.9419C27.7706 16.5038 28.0355 17.2436 28.0001 18V22Z" fill="#0E102F"/>
</svg>
