<svg width="24" height="24" viewBox="0 0 24 24" fill="none" xmlns="http://www.w3.org/2000/svg">
<path d="M18.0037 21.7293C17.8859 21.7314 17.7696 21.703 17.666 21.6468L12 18.7767L6.31148 21.6768C6.19219 21.7337 6.05996 21.7581 5.92818 21.7476C5.79639 21.7371 5.66973 21.692 5.56102 21.6169C5.44594 21.5327 5.35729 21.4174 5.30545 21.2847C5.25362 21.152 5.24074 21.0073 5.26834 20.8675L6.31148 14.7601L1.72614 10.4212C1.62838 10.3259 1.55853 10.2057 1.52415 10.0736C1.48976 9.94158 1.49214 9.80265 1.53102 9.67184C1.57334 9.53726 1.65284 9.41734 1.76037 9.32587C1.86791 9.2344 1.99911 9.17509 2.1389 9.15477L8.49533 8.24053L11.3321 2.65769C11.3951 2.53494 11.4907 2.43193 11.6086 2.35999C11.7264 2.28806 11.8619 2.25 12 2.25C12.1381 2.25 12.2736 2.28806 12.3914 2.35999C12.5093 2.43193 12.6049 2.53494 12.6679 2.65769L15.5047 8.24053L21.8611 9.13229C22.0009 9.15261 22.1321 9.21192 22.2396 9.30339C22.3472 9.39486 22.4267 9.51478 22.469 9.64936C22.5079 9.78017 22.5102 9.9191 22.4759 10.0512C22.4415 10.1832 22.3716 10.3034 22.2739 10.3987L17.6885 14.7601L18.7542 20.8825C18.7818 21.0223 18.7689 21.167 18.7171 21.2997C18.6652 21.4324 18.5766 21.5477 18.4615 21.6319C18.3232 21.7122 18.1628 21.7464 18.0037 21.7293Z" fill="#007A99"/>
</svg>
