<svg width="48" height="48" viewBox="0 0 48 48" fill="none" xmlns="http://www.w3.org/2000/svg">
<path d="M31.5029 3.00146C32.6964 3.00146 33.8407 3.47591 34.6846 4.31982C35.5285 5.16374 36.0029 6.30799 36.0029 7.50146V31.5015C36.0029 34.2862 34.8969 36.9571 32.9277 38.9263C30.9586 40.8954 28.2877 42.0015 25.5029 42.0015V43.5015C25.5029 43.8993 25.3448 44.2807 25.0635 44.562C24.7822 44.8433 24.4008 45.0015 24.0029 45.0015C23.6051 45.0015 23.2237 44.8433 22.9424 44.562C22.6611 44.2807 22.5029 43.8993 22.5029 43.5015V42.0015C19.7182 42.0015 17.0473 40.8954 15.0781 38.9263C13.109 36.9571 12.0029 34.2862 12.0029 31.5015V7.50146C12.0029 6.30799 12.4774 5.16374 13.3213 4.31982C14.1652 3.47591 15.3095 3.00146 16.5029 3.00146H31.5029ZM15.0029 31.5015C15.0029 33.4906 15.7927 35.3987 17.1992 36.8052C18.6057 38.2117 20.5138 39.0015 22.5029 39.0015V36.0015H25.5029V39.0015C27.4921 39.0015 29.4001 38.2117 30.8066 36.8052C32.2132 35.3987 33.0029 33.4906 33.0029 31.5015V27.0015H15.0029V31.5015ZM19.208 30.022C19.5 29.9634 19.803 29.9928 20.0781 30.1069C20.3533 30.2212 20.5882 30.4153 20.7529 30.6636C20.9176 30.9118 21.0047 31.2036 21.0029 31.5015C21.008 31.6982 20.9668 31.8938 20.8828 32.0718C20.8069 32.2532 20.7006 32.4203 20.5684 32.5659C20.3586 32.7775 20.09 32.9224 19.7979 32.981C19.5058 33.0395 19.2029 33.0093 18.9277 32.895C18.6526 32.7808 18.4176 32.5876 18.2529 32.3394C18.0882 32.0911 18.0012 31.7994 18.0029 31.5015C18.0085 31.1043 18.1634 30.7235 18.4375 30.436C18.6473 30.2245 18.9159 30.0806 19.208 30.022ZM28.208 30.0308C28.499 29.9747 28.8001 30.0067 29.0732 30.1216C29.255 30.1975 29.4226 30.3036 29.5684 30.436C29.7008 30.5818 29.8069 30.7495 29.8828 30.9312C29.9622 31.1107 30.0039 31.3052 30.0039 31.5015C30.0039 31.6977 29.9621 31.8923 29.8828 32.0718C29.8154 32.2577 29.7082 32.4271 29.5684 32.5669C29.4284 32.7067 29.2593 32.814 29.0732 32.8813C28.8952 32.9653 28.6997 33.0065 28.5029 33.0015C28.3058 33.0026 28.1103 32.9646 27.9277 32.8901C27.745 32.8155 27.5786 32.7049 27.4385 32.5659C27.3061 32.4202 27.199 32.2534 27.123 32.0718C27.0437 31.8923 27.003 31.6977 27.0029 31.5015C27.0029 31.3052 27.0437 31.1107 27.123 30.9312C27.199 30.7494 27.306 30.5818 27.4385 30.436C27.6494 30.228 27.9171 30.0868 28.208 30.0308ZM16.5029 6.00146C16.1051 6.00146 15.7237 6.15961 15.4424 6.44092C15.1611 6.72222 15.0029 7.10364 15.0029 7.50146V24.0015H33.0029V7.50146C33.0029 7.10364 32.8448 6.72222 32.5635 6.44092C32.2822 6.15961 31.9008 6.00146 31.5029 6.00146H16.5029ZM24.0029 9.00537C24.2444 9.00537 24.4822 9.06366 24.6963 9.17529C24.9104 9.28697 25.0952 9.44893 25.2334 9.64697C26.2236 11.0723 28.5028 14.5817 28.5029 16.5015C28.5029 17.6949 28.0285 18.8392 27.1846 19.6831C26.3407 20.527 25.1964 21.0015 24.0029 21.0015C22.8095 21.0015 21.6652 20.527 20.8213 19.6831C19.9774 18.8392 19.5029 17.6949 19.5029 16.5015C19.503 14.5817 21.7823 11.0723 22.7725 9.64697C22.9107 9.44893 23.0954 9.28697 23.3096 9.17529C23.5237 9.06366 23.7615 9.00537 24.0029 9.00537ZM24.0029 13.2769C23.3347 14.2652 22.8283 15.3537 22.5029 16.5015C22.5029 16.8993 22.6611 17.2807 22.9424 17.562C23.2237 17.8433 23.6051 18.0015 24.0029 18.0015C24.4008 18.0015 24.7822 17.8433 25.0635 17.562C25.3447 17.2807 25.5029 16.8993 25.5029 16.5015C25.1805 15.3526 24.6739 14.2636 24.0029 13.2769Z" fill="#0E102F"/>
</svg>
