<svg width="248" height="54" viewBox="0 0 248 54" fill="none" xmlns="http://www.w3.org/2000/svg">
<g clip-path="url(#clip0_11430_7364)">
<path d="M122.426 3.96619C134.662 3.96619 141.958 13.012 141.958 24.7381C141.958 36.0174 134.662 45.1749 122.426 45.1749C110.19 45.1749 102.894 36.1291 102.894 24.7381C102.894 13.012 110.19 3.96619 122.426 3.96619ZM122.426 37.8042C130.284 37.8042 133.202 31.2153 133.202 24.6264C133.202 17.7024 130.284 11.1135 122.426 11.1135C114.568 11.1135 111.649 17.7024 111.649 24.6264C111.649 31.2153 114.568 37.8042 122.426 37.8042Z" fill="#ED0973"/>
<path d="M184.952 31.7736C185.176 36.799 187.534 38.9209 192.024 38.9209C195.167 38.9209 197.749 37.0224 198.31 35.2356H205.27C203.025 42.0479 198.31 44.8398 191.799 44.8398C182.707 44.8398 177.094 38.6976 177.094 29.8751C177.094 21.3877 183.044 14.9104 191.799 14.9104C201.566 14.9104 206.392 23.0628 205.831 31.7736H184.952ZM197.749 26.8598C197.075 22.9511 195.279 20.8293 191.463 20.8293C186.299 20.8293 185.064 24.6263 184.84 26.8598H197.749Z" fill="#ED0973"/>
<path d="M208.974 15.6921H216.495V19.6008H216.608C218.628 16.3622 222.108 14.9104 225.363 14.9104C233.783 14.9104 235.915 19.6008 235.915 26.6365V44.058H227.945V28.0883C227.945 23.3978 226.598 21.1643 222.894 21.1643C218.628 21.1643 216.72 23.5095 216.72 29.3167V44.058H208.75L208.974 15.6921Z" fill="#ED0973"/>
<path d="M161.266 14.9104C157.674 14.9104 154.643 16.2505 152.735 19.2658H152.622V15.6921H145.101V54.1089H152.735V29.5401C152.847 25.073 154.531 20.8293 159.582 20.8293C164.634 20.8293 166.542 25.408 166.542 29.9868C166.542 34.5655 164.858 39.0326 159.694 39.0326C158.909 39.0326 158.235 38.8092 157.562 38.4742V41.7128V44.058C158.909 44.6164 160.256 44.8398 161.715 44.8398C170.134 44.8398 174.4 37.8041 174.4 30.2101C174.4 22.0577 170.246 14.9104 161.266 14.9104Z" fill="#ED0973"/>
<path d="M38.3468 4.7478L31.387 22.8394H34.6424L36.3262 18.0373H43.6227L45.3066 22.8394H48.6742L41.7144 4.7478H38.3468ZM37.2242 15.5804L39.9183 7.76307H40.0306L42.7247 15.5804H37.2242Z" fill="black"/>
<path d="M31.8363 4.7478H28.6931V17.1439C28.6931 19.3775 28.2441 20.6059 26.1113 20.6059C24.2029 20.6059 23.6417 19.3775 23.6417 17.3673V16.4739H20.4985V17.479C20.4985 20.8293 22.0701 23.2861 25.8868 23.2861C31.0505 23.2861 31.8363 20.1592 31.8363 17.0322V4.7478Z" fill="black"/>
<path d="M59.2265 18.9307H59.1142L54.175 4.7478H49.6848V22.8394H52.7157V8.87984L57.7672 22.8394H60.349L65.4005 8.87984H65.5127V22.8394H68.5436V4.7478H64.0534L59.2265 18.9307Z" fill="black"/>
<path d="M76.4012 4.7478L69.4414 22.8394H72.6968L74.3806 18.0373H81.6772L83.361 22.8394H86.7286L79.7688 4.7478H76.4012ZM75.2787 15.5804L77.9728 7.76307H78.085L80.7791 15.5804H75.2787Z" fill="black"/>
<path d="M80.7793 35.7939L86.3921 30.9918H84.2592L76.9627 37.2457V25.9663H75.3911V44.0579H76.9627V39.0325L79.5445 36.9106L84.7083 44.0579H86.7288L80.7793 35.7939Z" fill="black"/>
<path d="M69.1048 34.0071V30.9918H67.6455V44.058H69.2171V37.1341C69.2171 34.4538 71.2377 32.332 74.044 32.4436V30.8802C71.6867 30.6568 69.8906 31.8852 69.1048 34.0071Z" fill="black"/>
<path d="M22.6314 30.545C18.478 30.545 16.6819 34.007 16.6819 37.469C16.6819 41.1543 18.478 44.393 22.6314 44.393C25.999 44.393 27.6829 42.7178 28.3564 39.7025H26.7848C26.2235 41.7127 24.9887 43.0528 22.6314 43.0528C19.6005 43.0528 18.2535 40.2609 18.2535 37.9157H28.3564C28.5809 34.2304 26.7848 30.545 22.6314 30.545ZM22.6314 31.8852C25.2132 31.8852 26.6726 34.1187 26.7848 36.5756H18.2535C18.5902 34.2304 20.0495 31.8852 22.6314 31.8852Z" fill="black"/>
<path d="M32.3977 27.0831H30.8262V30.9918H28.5811V32.3319H30.8262V41.2661C30.8262 43.4996 31.4997 44.1697 33.6325 44.1697C34.0815 44.1697 34.5306 44.1697 35.0918 44.1697V42.8296C34.6428 42.8296 34.1938 42.9412 33.7448 42.9412C32.6222 42.8296 32.3977 42.2712 32.3977 41.2661V32.4436H35.0918V31.1035H32.3977V27.0831Z" fill="black"/>
<path d="M60.2365 30.545C56.1953 30.545 54.0625 33.672 54.0625 37.469C54.0625 41.266 56.3076 44.393 60.2365 44.393C64.2777 44.393 66.4105 41.266 66.4105 37.469C66.4105 33.7837 64.2777 30.545 60.2365 30.545ZM60.2365 43.0528C57.2056 43.0528 55.6341 40.2609 55.6341 37.469C55.6341 34.6771 57.2056 31.8852 60.2365 31.8852C63.2674 31.8852 64.839 34.6771 64.839 37.469C64.839 40.2609 63.2674 43.0528 60.2365 43.0528Z" fill="black"/>
<path d="M13.5386 41.266L2.9867 25.9663H1.07837V44.0579H2.76219V28.7582L13.4264 44.0579H15.3347V25.9663H13.5386V41.266Z" fill="black"/>
<path d="M52.4911 30.9918L49.2357 42.1595H49.1235L45.9803 30.9918H44.072L40.9289 42.1595H40.8166L37.5612 30.9918H35.7651L40.0308 44.058H41.8269L44.97 33.002H45.0823L48.2254 44.058H50.0215L54.2872 30.9918H52.4911Z" fill="black"/>
<path d="M96.7187 4.63611H95.1479V53.9972H96.7187V4.63611Z" fill="#231F20"/>
<path d="M242.202 40.8195H240.967V44.0581H240.293V40.8195H239.059V40.3728H242.089L242.202 40.8195ZM247.141 44.0581H246.467V40.9312L245.233 44.0581H244.784L243.549 40.9312V44.0581H242.875V40.2611H243.886L245.008 43.1647L246.131 40.2611H247.029L247.141 44.0581Z" fill="black"/>
</g>
<defs>
<clipPath id="clip0_11430_7364">
<rect width="248" height="54" fill="white"/>
</clipPath>
</defs>
</svg>
