<svg width="168" height="78" viewBox="0 0 168 78" fill="none" xmlns="http://www.w3.org/2000/svg">
<g clip-path="url(#clip0_11430_7021)">
<mask id="mask0_11430_7021" style="mask-type:luminance" maskUnits="userSpaceOnUse" x="0" y="0" width="168" height="78">
<path d="M168 0.5H0V77.5H168V0.5Z" fill="white"/>
</mask>
<g mask="url(#mask0_11430_7021)">
<path d="M46.7513 44.6807C44.8881 43.3433 42.6823 42.6956 40.1762 42.6956C34.683 42.6956 30.7405 46.5819 30.7405 51.9796C30.7405 58.1147 34.8093 62.1271 41.0417 62.1271C43.0731 62.1271 44.7618 61.7793 47.3162 60.7895L48.3138 65.3656C46.4989 66.1872 45.7595 66.4451 44.4614 66.745C43.079 67.0449 41.5645 67.2188 39.8757 67.2188C35.4163 67.2188 32.213 66.0972 29.5325 63.6744C26.5034 60.9515 24.7305 56.7234 24.7305 52.2733C24.7305 48.1293 26.287 44.3688 29.0997 41.6041C31.9545 38.7973 35.1578 37.6338 39.8757 37.6338C43.5118 37.6338 46.3666 38.4974 48.8366 40.3567L46.7513 44.6807Z" fill="black"/>
<path d="M68.039 66.9216H66.9571C64.3608 66.9216 63.5375 66.4899 62.6299 64.7206C60.7247 66.4478 59.0359 67.1795 57.0046 67.1795C53.5848 67.1795 51.1628 64.9365 51.1628 61.7399C51.1628 61.0502 51.2951 60.3605 51.5114 59.7128C52.2026 57.8536 53.4166 56.906 56.3615 56.0424L62.071 54.3991V52.7138C62.071 50.5548 61.2896 49.5593 59.607 49.5593C58.0503 49.5593 56.7942 50.3809 56.7942 51.3704C56.7942 51.5444 56.8363 51.6283 56.9264 51.8862L51.9922 52.9657C51.7758 52.36 51.7338 52.1441 51.7338 51.5864C51.7338 48.042 54.847 46.0148 60.304 46.0148C65.1062 46.0148 67.2696 47.9999 67.2696 52.408V60.7863C67.2696 62.5975 67.486 62.9034 68.8683 63.0292L68.039 66.9216ZM62.065 57.7277L56.9144 59.4129C56.6139 60.1926 56.5238 60.5764 56.5238 61.0981C56.5238 62.3936 57.3051 63.1733 58.6032 63.1733C59.2523 63.1733 60.0336 62.9573 60.7247 62.5675C61.0734 62.3936 61.3318 62.2197 62.065 61.6618V57.7277Z" fill="black"/>
<path d="M81.6282 65.8904C80.1137 66.7541 78.5571 67.2279 77.1267 67.2279C74.4463 67.2279 73.1902 65.8484 73.1902 62.8677V50.3874H70.2031V47.1007L73.1902 46.585V40.5815H78.0823V46.585H82.4517V50.3874H78.0823V59.3293C78.0823 61.5724 78.2987 62.22 79.1221 62.22C79.7291 62.22 80.4623 61.9201 81.8927 60.9666L83.5394 64.721C82.8363 65.1528 82.1871 65.5426 81.6282 65.8904Z" fill="black"/>
<path d="M103.048 66.9216H101.966C99.3696 66.9216 98.5463 66.4899 97.6391 64.7206C95.7339 66.4478 94.0451 67.1795 92.0136 67.1795C88.5939 67.1795 86.1719 64.9365 86.1719 61.7399C86.1719 61.0502 86.3041 60.3605 86.5205 59.7128C87.2116 57.8536 88.4256 56.906 91.3645 56.0424L97.0741 54.3991V52.7138C97.0741 50.5548 96.2928 49.5593 94.61 49.5593C93.0533 49.5593 91.7972 50.3809 91.7972 51.3704C91.7972 51.5444 91.8393 51.6283 91.9295 51.8862L86.9953 52.9657C86.7789 52.36 86.7368 52.1441 86.7368 51.5864C86.7368 48.042 89.85 46.0148 95.3072 46.0148C100.109 46.0148 102.273 47.9999 102.273 52.408V60.7863C102.273 62.5975 102.489 62.9034 103.871 63.0292L103.048 66.9216ZM97.0741 57.7277L91.9235 59.4129C91.6229 60.1926 91.5328 60.5764 91.5328 61.0981C91.5328 62.3936 92.3141 63.1733 93.6123 63.1733C94.2613 63.1733 95.0427 62.9573 95.7339 62.5675C96.0824 62.3936 96.3408 62.2197 97.0741 61.6618V57.7277Z" fill="black"/>
<path d="M107.759 66.6626V35.1825H112.909V66.6626H107.759Z" fill="black"/>
<path d="M127.581 65.5832C126.583 68.432 125.808 69.9854 124.335 72.4502C123.079 74.5253 122.52 75.347 120.789 77.5L116.546 74.7352C118.451 72.7081 119.142 71.8445 120.267 70.1173C121.565 68.0901 122.213 66.8367 123.338 63.5981L115.939 46.5836H121.565L125.11 55.5257L125.627 57.9426L126.193 55.5257L129.222 46.5836H134.329L127.581 65.5832Z" fill="black"/>
<path d="M150.257 52.1567C149.74 51.8088 149.26 51.5091 148.875 51.2931C147.444 50.4295 145.713 49.9137 144.247 49.9137C142.257 49.9137 140.96 50.6933 140.96 51.8148C140.96 52.7205 141.651 53.2842 143.472 53.9319C145.719 54.7115 148.621 56.049 149.531 56.6966C150.787 57.6023 151.609 59.3714 151.609 61.1467C151.609 64.8171 148.407 67.2341 143.561 67.2341C142.564 67.2341 141.481 67.1021 140.275 66.8442C138.411 66.4544 137.504 66.1125 135.299 64.985L136.945 60.7989C138.976 62.0524 139.8 62.4422 141.272 62.916C142.053 63.1738 142.787 63.3059 143.52 63.3059C145.509 63.3059 146.681 62.658 146.681 61.5786C146.681 60.6729 146.032 59.9832 144.649 59.4615L141.188 58.124C137.636 56.7447 135.996 54.8855 135.996 52.2046C135.996 48.4503 139.283 45.9015 144.175 45.9015C145.124 45.9015 146.255 46.0333 147.504 46.2913C149.409 46.6812 150.101 46.939 151.916 47.9766L150.257 52.1567Z" fill="black"/>
<path d="M165.487 65.8904C163.971 66.7541 162.415 67.2279 160.984 67.2279C158.304 67.2279 157.048 65.8484 157.048 62.8677V50.3874H154.061V47.1007L157.048 46.585V40.5815H161.94V46.585H166.309V50.3874H161.94V59.3293C161.94 61.5724 162.156 62.22 162.98 62.22C163.588 62.22 164.32 61.9201 165.751 60.9666L167.397 64.721C166.7 65.1528 166.051 65.5426 165.487 65.8904Z" fill="black"/>
<path d="M51.4578 29.3896H34.9062V28.5738C37.5207 28.3819 38.2658 27.6802 38.2658 25.4553V14.2341C38.2658 11.7752 37.797 11.1575 35.5673 10.7617V9.94604H50.6405L51.1813 14.3961L50.364 14.66C48.9216 11.9732 48.0201 11.3855 45.1292 11.2714L41.5052 11.1575V18.6782L44.3118 18.5524C46.4214 18.4383 46.9684 17.9345 47.5513 15.7154H48.3746V22.8464H47.5513C46.9263 20.6633 46.2592 20.1176 44.3118 20.0395L41.5052 19.8896V25.3052C41.5052 27.7223 41.974 28.0341 45.3276 28.0341C48.4888 28.0341 49.7389 27.2544 51.578 24.1777L52.4015 24.4117L51.4578 29.3896Z" fill="#FF3300"/>
<path d="M84.6934 29.3543V28.5388C86.1358 28.2268 86.5626 27.7591 86.5626 26.3977V26.1278L85.3906 13.6174L78.2026 30.176L71.0566 13.9293L69.9928 23.7109C69.8787 24.5264 69.8426 25.1922 69.8426 25.702C69.8426 27.5313 70.5879 28.1909 72.8115 28.5448V29.3605H64.4636V28.5448C66.6452 28.035 67.4326 27.3393 67.7031 25.5821L69.3438 15.4525C69.5362 14.0132 69.6563 13.0776 69.6563 12.6098C69.6563 11.3623 68.7968 10.7806 66.8856 10.7386V9.92297H72.8176L79.0679 23.9148L85.1982 9.92297H91.1362V10.7386C89.1408 10.8225 88.4436 11.2843 88.4436 12.6098C88.4436 12.8077 88.4436 13.0776 88.4796 13.3895L89.8079 26.5596C89.9642 27.9211 90.433 28.3528 91.9535 28.5448V29.3605H84.6934V29.3543Z" fill="#FF3300"/>
<path d="M51.6797 35.8847C55.9588 33.9416 57.6777 31.1169 57.6777 27.7283L57.5634 13.8564C57.5274 11.6494 56.8002 10.9598 54.1257 10.7018V9.89819H64.1264V10.8518C61.6864 11.0796 61.0373 11.7274 60.9592 13.8984L60.6886 26.7388C60.5745 32.5742 57.3652 35.7348 52.1004 36.4185L51.6797 35.8847Z" fill="#FF3300"/>
<path d="M33.4941 9.90373C29.3352 2.08318 19.8753 -1.56921 11.3832 1.69336C2.22391 5.2198 -2.33771 15.4932 1.19619 24.6392C4.73011 33.7793 15.0252 38.3312 24.1907 34.8048C24.2387 34.7868 24.2868 34.7627 24.3408 34.7448V33.9651C16.1071 37.0538 6.91173 32.9455 3.74445 24.7531C0.559135 16.5128 4.67 7.2529 12.9278 4.06831C19.9896 1.3575 27.7907 3.96036 31.8955 9.92172H24.3348V10.7374C27.0273 11.0853 27.7305 11.8229 27.8027 14.0839L28.1152 25.059L15.2056 9.92172H9.82059V10.7374C12.6273 11.595 13.2524 12.5246 13.2524 15.6791L12.7835 25.3289C12.6693 27.6259 11.9662 28.3277 9.27369 28.5195V29.3292H18.9439V28.5195C16.0951 28.3995 15.2416 27.584 15.1996 25.3289L14.9652 14.156L28.3796 29.9949L29.7077 28.9094L30.2127 14.0839C30.2548 11.8649 30.9159 11.1212 33.4881 10.7374V9.92172L33.4941 9.90373Z" fill="#FF3300"/>
</g>
</g>
<defs>
<clipPath id="clip0_11430_7021">
<rect width="168" height="77" fill="white" transform="translate(0 0.5)"/>
</clipPath>
</defs>
</svg>
