<svg width="248" height="28" viewBox="0 0 248 28" fill="none" xmlns="http://www.w3.org/2000/svg">
<path d="M205.578 4.0498C206.01 4.04994 206.426 4.21999 206.731 4.52344C207.037 4.82713 207.21 5.23954 207.21 5.66895V8.09863H211.288C211.721 8.09874 212.137 8.26961 212.442 8.57324C212.748 8.87695 212.92 9.28932 212.92 9.71875C212.92 10.1482 212.748 10.5605 212.442 10.8643C212.137 11.1679 211.721 11.3388 211.288 11.3389H207.21V21.5195C207.21 22.3786 207.553 23.203 208.165 23.8105C208.777 24.418 209.607 24.7597 210.473 24.7598C210.905 24.7599 211.32 24.9308 211.626 25.2344C211.932 25.5381 212.104 25.9504 212.104 26.3799C212.104 26.8093 211.932 27.2217 211.626 27.5254C211.32 27.8288 210.905 27.9989 210.473 27.999C208.742 27.999 207.082 27.3164 205.858 26.1016C204.634 24.8864 203.946 23.238 203.946 21.5195V11.3389H201.499C201.066 11.3388 200.652 11.1679 200.346 10.8643C200.04 10.5605 199.867 10.1484 199.867 9.71875C199.867 9.28922 200.04 8.87697 200.346 8.57324C200.652 8.2698 201.067 8.09866 201.499 8.09863H203.946V5.66895C203.946 5.23945 204.119 4.82715 204.425 4.52344C204.731 4.22005 205.146 4.0498 205.578 4.0498ZM85.6572 4.0498C86.3062 4.0498 86.9287 4.30521 87.3877 4.76074C87.8467 5.21642 88.1045 5.83506 88.1045 6.47949V8.09863H91.3682C92.0171 8.09873 92.6398 8.35496 93.0986 8.81055C93.5576 9.26622 93.8154 9.88488 93.8154 10.5293C93.8153 11.1735 93.5574 11.7915 93.0986 12.2471C92.6398 12.7027 92.0171 12.9589 91.3682 12.959H88.1045V20.3701C88.1046 21.0144 88.3625 21.6323 88.8213 22.0879C89.2228 22.4865 89.7495 22.7327 90.3096 22.7881L90.7939 22.8115C91.3541 22.8669 91.8807 23.1131 92.2822 23.5117C92.7411 23.9674 92.999 24.5851 92.999 25.2295C92.999 25.8739 92.7412 26.4916 92.2822 26.9473C91.8233 27.4029 91.2008 27.6592 90.5518 27.6592C88.6047 27.6591 86.7372 26.8913 85.3604 25.5244C83.9835 24.1575 83.2101 22.3033 83.21 20.3701V12.959H81.5781C80.9291 12.9589 80.3066 12.7027 79.8477 12.2471C79.3888 11.7915 79.131 11.1736 79.1309 10.5293C79.1309 9.88487 79.3887 9.26623 79.8477 8.81055C80.3066 8.35495 80.9292 8.09869 81.5781 8.09863H83.21V6.47949C83.21 5.83506 83.4678 5.21642 83.9268 4.76074C84.3857 4.30519 85.0083 4.04982 85.6572 4.0498ZM34.6699 8.09961C36.5716 8.10556 38.427 8.68247 39.9922 9.75488C41.5574 10.8275 42.7594 12.3459 43.4395 14.1094C43.7351 14.7687 43.901 15.4781 43.9287 16.1992C43.9286 17.2732 43.4993 18.3031 42.7344 19.0625C41.9695 19.8219 40.9322 20.2489 39.8506 20.249H35.4609C34.812 20.2489 34.1894 19.9927 33.7305 19.5371C33.2715 19.0814 33.0137 18.4628 33.0137 17.8184C33.0138 17.1741 33.2717 16.5562 33.7305 16.1006C34.1894 15.645 34.812 15.3888 35.4609 15.3887H38.667C38.2093 14.4975 37.463 13.7849 36.5479 13.3662C35.6324 12.9475 34.6011 12.8472 33.6211 13.0811C32.6413 13.3149 31.7692 13.8694 31.1455 14.6553C30.5218 15.4413 30.1832 16.4134 30.1836 17.4141V17.8184C30.1825 18.6896 30.4171 19.5457 30.8633 20.2959C31.3095 21.046 31.9509 21.6633 32.7197 22.083C33.4885 22.5026 34.3566 22.7093 35.2334 22.6816C36.1105 22.6539 36.9646 22.3924 37.7051 21.9248C38.2519 21.6004 38.9046 21.5008 39.5244 21.6465C40.1445 21.7923 40.6833 22.1723 41.0254 22.7061C41.3675 23.2398 41.486 23.8854 41.3564 24.5049C41.2269 25.1243 40.8589 25.669 40.3311 26.0234C38.8508 26.9581 37.1449 27.4813 35.3916 27.5371C33.6382 27.5929 31.9018 27.1794 30.3643 26.3408C28.8268 25.5022 27.5443 24.2687 26.6514 22.7695C25.7585 21.2704 25.2874 19.56 25.2881 17.8184V17.4141C25.2902 14.9444 26.2802 12.5764 28.0391 10.8301C29.798 9.08388 32.1825 8.10176 34.6699 8.09961ZM2.44727 0C3.09634 0 3.71877 0.256232 4.17773 0.711914C4.63665 1.16756 4.89449 1.78532 4.89453 2.42969V11.3389H13.0527C13.7017 11.3389 14.3243 11.5951 14.7832 12.0508C15.2421 12.5063 15.4999 13.1243 15.5 13.7686C15.5 14.413 15.2422 15.0316 14.7832 15.4873C14.3243 15.9429 13.7017 16.1992 13.0527 16.1992H4.89453V25.1084C4.89449 25.7528 4.63665 26.3705 4.17773 26.8262C3.71877 27.2819 3.09634 27.5381 2.44727 27.5381C1.79822 27.5381 1.17574 27.2818 0.716797 26.8262C0.257937 26.3705 3.95183e-05 25.7527 0 25.1084V2.42969C3.8183e-05 1.78536 0.257937 1.16755 0.716797 0.711914C1.17574 0.256253 1.79822 2.36335e-05 2.44727 0ZM19.5791 0C20.2282 0 20.8506 0.256245 21.3096 0.711914C21.7685 1.16756 22.0263 1.78531 22.0264 2.42969V25.1084C22.0263 25.7528 21.7685 26.3705 21.3096 26.8262C20.8506 27.2818 20.2282 27.5381 19.5791 27.5381C18.9301 27.538 18.3076 27.2818 17.8486 26.8262C17.3898 26.3705 17.1319 25.7527 17.1318 25.1084V2.42969C17.1319 1.78539 17.3898 1.16755 17.8486 0.711914C18.3076 0.256276 18.9301 4.91607e-05 19.5791 0ZM73.4209 0C74.0698 0.00012134 74.6925 0.25634 75.1514 0.711914C75.6101 1.16753 75.8681 1.78545 75.8682 2.42969V25.1084C75.8681 25.7526 75.6101 26.3706 75.1514 26.8262C74.6925 27.2817 74.0698 27.538 73.4209 27.5381C72.7718 27.5381 72.1484 27.2819 71.6895 26.8262C71.2307 26.3706 70.9727 25.7526 70.9727 25.1084V2.42969C70.9727 1.78546 71.2307 1.16753 71.6895 0.711914C72.1484 0.256232 72.7718 0 73.4209 0ZM99.5264 0C100.175 0 100.798 0.256232 101.257 0.711914C101.716 1.16755 101.974 1.78534 101.974 2.42969V9.28223C103.34 8.50662 104.887 8.09888 106.461 8.09961C109.002 8.1571 111.416 9.21237 113.175 11.0342C114.933 12.856 115.892 15.2956 115.842 17.8184V25.1084C115.842 25.7528 115.584 26.3705 115.125 26.8262C114.666 27.2818 114.044 27.5381 113.395 27.5381C112.746 27.538 112.123 27.2818 111.664 26.8262C111.205 26.3705 110.947 25.7527 110.947 25.1084V17.8184C111 17.2017 110.924 16.5809 110.723 15.9951C110.521 15.4091 110.199 14.8701 109.777 14.4141C109.356 13.9583 108.843 13.5947 108.272 13.3457C107.702 13.0967 107.084 12.9678 106.461 12.9678C105.837 12.9678 105.22 13.0967 104.649 13.3457C104.079 13.5947 103.565 13.9581 103.144 14.4141C102.722 14.8701 102.4 15.4091 102.198 15.9951C101.997 16.5808 101.921 17.2017 101.974 17.8184V25.1084C101.974 25.7527 101.716 26.3705 101.257 26.8262C100.798 27.2819 100.175 27.5381 99.5264 27.5381C98.8773 27.5381 98.2549 27.2819 97.7959 26.8262C97.337 26.3705 97.0791 25.7527 97.0791 25.1084V2.42969C97.0791 1.78535 97.337 1.16755 97.7959 0.711914C98.2549 0.256235 98.8773 3.38531e-06 99.5264 0ZM124.815 0C125.248 0.000200265 125.663 0.171 125.969 0.474609C126.275 0.778371 126.446 1.19062 126.446 1.62012V24.2979H137.052C137.484 24.298 137.899 24.469 138.205 24.7725C138.511 25.0762 138.684 25.4885 138.684 25.918C138.684 26.3475 138.511 26.7597 138.205 27.0635C137.899 27.3671 137.484 27.538 137.052 27.5381H124.815C124.383 27.5381 123.967 27.3671 123.661 27.0635C123.355 26.7597 123.184 26.3475 123.184 25.918V1.62012C123.184 1.19059 123.355 0.778377 123.661 0.474609C123.967 0.170953 124.383 0 124.815 0ZM194.972 8.09961C195.404 8.09972 195.82 8.27053 196.126 8.57422C196.432 8.87797 196.604 9.29031 196.604 9.71973V25.918C196.604 26.3474 196.432 26.7597 196.126 27.0635C195.82 27.3672 195.404 27.538 194.972 27.5381C194.539 27.538 194.124 27.367 193.818 27.0635C193.512 26.7597 193.341 26.3475 193.341 25.918V25.0439C191.934 26.3006 190.19 27.1254 188.321 27.4189C186.453 27.7124 184.538 27.4614 182.81 26.6973C181.081 25.9329 179.613 24.687 178.582 23.1113C177.552 21.5356 177.003 19.697 177.003 17.8184C177.003 15.9398 177.552 14.101 178.582 12.5254C179.613 10.95 181.081 9.70472 182.81 8.94043C184.538 8.17628 186.453 7.92534 188.321 8.21875C190.19 8.51231 191.934 9.33712 193.341 10.5938V9.71973C193.341 9.29018 193.512 8.87799 193.818 8.57422C194.124 8.27066 194.539 8.09972 194.972 8.09961ZM246.367 8.09961C246.8 8.09972 247.216 8.27053 247.521 8.57422C247.827 8.87797 247.999 9.2903 247.999 9.71973C247.999 10.1491 247.827 10.5615 247.521 10.8652C247.216 11.1688 246.8 11.3388 246.367 11.3389C244.637 11.339 242.977 12.0224 241.753 13.2373C240.529 14.4523 239.842 16.1001 239.842 17.8184V25.918C239.842 26.3475 239.669 26.7597 239.363 27.0635C239.057 27.3671 238.642 27.5379 238.21 27.5381C237.777 27.5381 237.362 27.3671 237.056 27.0635C236.75 26.7597 236.578 26.3474 236.578 25.918V9.71973C236.578 9.29027 236.75 8.87797 237.056 8.57422C237.362 8.27056 237.777 8.09961 238.21 8.09961C238.642 8.09977 239.057 8.27057 239.363 8.57422C239.669 8.87798 239.842 9.29022 239.842 9.71973V10.5938C241.633 8.99327 243.957 8.10512 246.367 8.09961ZM63.6299 8.09961C64.2789 8.09963 64.9014 8.35586 65.3604 8.81152C65.8192 9.26718 66.0771 9.88495 66.0771 10.5293V25.1084C66.0768 25.6648 65.8841 26.2044 65.5312 26.6367C65.1784 27.069 64.6868 27.3677 64.1387 27.4834C63.5905 27.5991 63.0189 27.5249 62.5195 27.2725C62.0201 27.02 61.6228 26.6048 61.3945 26.0967C59.9112 27.0029 58.211 27.4998 56.4697 27.5361C54.7285 27.5725 53.0086 27.1472 51.4883 26.3037C49.968 25.4602 48.7017 24.2287 47.8203 22.7373C46.939 21.2459 46.4746 19.5475 46.4746 17.8184C46.4747 16.0894 46.9391 14.3916 47.8203 12.9004C48.7017 11.409 49.968 10.1775 51.4883 9.33398C53.0086 8.4905 54.7285 8.06524 56.4697 8.10156C58.211 8.13792 59.9112 8.63481 61.3945 9.54102C61.5868 9.11214 61.9004 8.74801 62.2969 8.49219C62.6936 8.23632 63.1568 8.09972 63.6299 8.09961ZM146.841 8.09961C149.437 8.09984 151.927 9.12377 153.763 10.9463C155.598 12.7689 156.63 15.241 156.63 17.8184C156.63 19.7406 156.055 21.6205 154.979 23.2188C153.904 24.8167 152.375 26.0622 150.587 26.7979C148.798 27.5334 146.829 27.7264 144.931 27.3516C143.032 26.9766 141.287 26.0506 139.918 24.6914C138.549 23.3322 137.617 21.6001 137.239 19.7148C136.862 17.8296 137.055 15.8755 137.796 14.0996C138.537 12.3237 139.792 10.8052 141.401 9.7373C143.011 8.66946 144.905 8.09961 146.841 8.09961ZM223.526 8.09961C226.122 8.09981 228.613 9.12374 230.448 10.9463C232.284 12.7689 233.315 15.2409 233.315 17.8184C233.315 19.7406 232.742 21.6205 231.666 23.2188C230.59 24.8169 229.061 26.0622 227.272 26.7979C225.484 27.5334 223.515 27.7265 221.616 27.3516C219.717 26.9766 217.973 26.0506 216.604 24.6914C215.235 23.3322 214.303 21.6001 213.925 19.7148C213.547 17.8296 213.741 15.8755 214.481 14.0996C215.222 12.3238 216.477 10.8052 218.087 9.7373C219.697 8.66946 221.59 8.09961 223.526 8.09961ZM164.216 8.87109C166.013 8.11101 167.998 7.90137 169.916 8.27051C171.834 8.63972 173.597 9.57053 174.978 10.9424C175.283 11.2462 175.455 11.6583 175.455 12.0879C175.455 12.5176 175.284 12.9304 174.978 13.2344C174.672 13.5382 174.256 13.7088 173.823 13.709C173.39 13.709 172.975 13.5381 172.669 13.2344C172.062 12.6329 171.342 12.1562 170.55 11.8311C169.758 11.506 168.909 11.3383 168.052 11.3389C166.967 11.3397 165.9 11.6092 164.946 12.1221C163.993 12.635 163.183 13.3759 162.591 14.2773C161.998 15.1789 161.641 16.2132 161.552 17.2861C161.463 18.359 161.644 19.4371 162.08 20.4229C162.516 21.4086 163.192 22.2715 164.048 22.9326C164.904 23.5936 165.912 24.0327 166.981 24.21C168.051 24.3871 169.148 24.2966 170.174 23.9473C171.199 23.5979 172.122 23.0007 172.856 22.209C172.996 22.0366 173.171 21.894 173.368 21.791C173.566 21.6882 173.783 21.6259 174.005 21.6094C174.227 21.5929 174.451 21.6219 174.661 21.6943C174.872 21.767 175.066 21.8825 175.23 22.0322C175.395 22.1819 175.526 22.3634 175.617 22.5654C175.708 22.7676 175.755 22.9867 175.758 23.208C175.76 23.4295 175.716 23.6494 175.63 23.8535C175.543 24.0576 175.416 24.2424 175.255 24.3955C173.932 25.8223 172.208 26.8237 170.308 27.2705C168.407 27.7172 166.415 27.5887 164.588 26.9023C162.761 26.2159 161.182 25.0022 160.056 23.418C158.929 21.8336 158.306 19.9507 158.266 18.0117C158.226 16.0726 158.771 14.1651 159.831 12.5361C160.891 10.9075 162.419 9.63123 164.216 8.87109ZM149.338 11.832C148.146 11.3417 146.833 11.214 145.567 11.4639C144.301 11.7139 143.138 12.3312 142.226 13.2373C141.313 14.1434 140.691 15.2979 140.439 16.5547C140.188 17.8116 140.317 19.1148 140.811 20.2988C141.305 21.4827 142.142 22.4941 143.215 23.2061C144.288 23.9179 145.55 24.2988 146.841 24.2988C148.571 24.2986 150.231 23.6153 151.455 22.4004C152.679 21.1853 153.366 19.5367 153.366 17.8184C153.366 16.5371 152.984 15.2841 152.267 14.2188C151.55 13.1534 150.53 12.3224 149.338 11.832ZM189.312 11.833C188.119 11.3426 186.807 11.214 185.541 11.4639C184.275 11.7139 183.112 12.3312 182.199 13.2373C181.287 14.1434 180.665 15.2979 180.413 16.5547C180.161 17.8116 180.291 19.1148 180.785 20.2988C181.279 21.4825 182.115 22.4942 183.188 23.2061C184.262 23.9179 185.524 24.2988 186.814 24.2988C188.545 24.2987 190.205 23.6154 191.429 22.4004C192.652 21.1853 193.341 19.5367 193.341 17.8184C193.341 16.5371 192.957 15.2841 192.24 14.2188C191.523 13.1535 190.504 12.3234 189.312 11.833ZM226.023 11.832C224.831 11.3418 223.519 11.214 222.253 11.4639C220.987 11.7139 219.824 12.3312 218.911 13.2373C217.999 14.1434 217.377 15.2979 217.125 16.5547C216.873 17.8116 217.002 19.1148 217.496 20.2988C217.99 21.4827 218.827 22.4941 219.9 23.2061C220.974 23.9179 222.236 24.2988 223.526 24.2988C225.257 24.2986 226.917 23.6154 228.141 22.4004C229.364 21.1853 230.053 19.5367 230.053 17.8184C230.053 16.5371 229.669 15.2841 228.952 14.2188C228.235 13.1534 227.216 12.3224 226.023 11.832ZM58.1611 13.3291C57.2668 12.9613 56.2824 12.8653 55.333 13.0527C54.3836 13.2402 53.5117 13.7032 52.8271 14.3828C52.1426 15.0624 51.6762 15.9284 51.4873 16.8711C51.2985 17.8137 51.3952 18.7908 51.7656 19.6787C52.1361 20.5666 52.7635 21.3254 53.5684 21.8594C54.3733 22.3934 55.32 22.6787 56.2881 22.6787C57.5861 22.6786 58.8312 22.1662 59.749 21.2549C60.6668 20.3435 61.1826 19.1071 61.1826 17.8184C61.1825 16.8574 60.8951 15.9182 60.3574 15.1191C59.8196 14.32 59.0554 13.6969 58.1611 13.3291Z" fill="#008A19"/>
</svg>
