<svg xmlns="http://www.w3.org/2000/svg" width="24" height="24" viewBox="0 0 24 24">
<path d="M17.7685 12.4827L19.3015 11.3691L18.531 8.99683L19.3015 6.62451L17.283 5.15821L16.5124 2.78589H14.0186L12 1.31958L9.98144 2.78589H7.48755L6.71703 5.15821L4.69848 6.62451L5.469 8.99683L4.69848 11.3691L6.21043 12.4675L3.17139 19.3167L7.3374 19.2031L9.94263 22.4851L13.0057 15.9435L14.0186 15.2078H16.5124L16.8704 14.1057L18.6028 17.8196L16.0876 17.7508L14.5232 19.7232L13.7201 18.0091L12.8938 19.7811L14.1921 22.5532L16.7966 19.2712L20.9875 19.3855L17.7685 12.4827ZM9.61157 19.655L8.04639 17.6826L5.50635 17.7522L7.12737 14.0989L7.48755 15.2078H9.98144L11.2597 16.1363L9.61157 19.655ZM15.4226 13.7078H13.5307L12 14.8196L10.4692 13.7078H8.57739L7.99292 11.9082L6.46217 10.7964L7.04663 8.99683L6.46215 7.19727L7.9929 6.08545L8.57737 4.28589H10.4692L12 3.17408L13.5307 4.28589H15.4226L16.0071 6.08545L17.5378 7.19727L16.9534 8.99683L17.5378 10.7964L16.0071 11.9082L15.4226 13.7078Z" />
</svg>