<svg width="224" height="56" viewBox="0 0 224 56" fill="none" xmlns="http://www.w3.org/2000/svg">
<path d="M30.523 28.2538V34.038H25.2831V28.249H9.62012V37.0793C9.62012 42.3851 12.188 45.7959 17.4516 47.4587C18.0865 47.2611 18.7084 47.0238 19.3135 46.7481C19.3135 46.8571 19.3372 46.9187 19.3372 46.9187C20.1142 51.4475 22.9426 54.4462 27.903 56C32.8682 54.4462 35.6919 51.4475 36.4688 46.9187C36.4688 46.9187 36.4688 46.8571 36.4688 46.7481C37.074 47.0238 37.6958 47.2611 38.3308 47.4587C43.5944 45.7959 46.1622 42.3898 46.1622 37.0793V28.2538H30.523ZM17.4516 45.6017C13.1876 43.8963 11.4726 41.3713 11.4726 36.7335V31.0156C11.4726 30.7756 11.5679 30.5455 11.7376 30.3758C11.9073 30.2061 12.1375 30.1108 12.3775 30.1108H22.5304C22.7704 30.1108 23.0006 30.2061 23.1703 30.3758C23.34 30.5455 23.4353 30.7756 23.4353 31.0156V34.038H19.1193V44.1758C19.1193 44.3795 19.1193 44.5927 19.1193 44.8058C18.5743 45.1049 18.011 45.3691 17.4326 45.597L17.4516 45.6017ZM23.4306 35.895V36.7382C23.4306 39.7843 22.6963 41.9208 20.9812 43.5078V36.7998C20.9812 36.5598 21.0765 36.3297 21.2462 36.16C21.4159 35.9903 21.6461 35.895 21.8861 35.895H23.4306ZM34.7017 46.0138C34.2279 50.05 32.1338 52.466 27.903 54.1478C23.6722 52.466 21.5829 50.05 21.1091 46.0138C21.1091 46.0138 21.1091 45.9238 21.0807 45.7628C23.9233 43.8679 25.2878 40.9828 25.2878 37.0841V35.8997H30.523V37.0841C30.523 40.9828 31.9111 43.8536 34.7301 45.7628C34.7111 45.9238 34.7017 46.0138 34.7017 46.0138ZM34.8485 43.5078C33.1335 41.9208 32.3991 39.7843 32.3991 36.7382V35.895H33.9436C34.0625 35.895 34.1801 35.9184 34.2899 35.9639C34.3997 36.0093 34.4995 36.076 34.5835 36.16C34.6675 36.244 34.7342 36.3438 34.7797 36.4536C34.8251 36.5633 34.8485 36.681 34.8485 36.7998V43.5078ZM44.324 36.7382C44.324 41.376 42.6184 43.901 38.345 45.6064C37.7666 45.3786 37.2033 45.1144 36.6584 44.8153C36.6584 44.6021 36.6584 44.389 36.6584 44.1853V34.0475H32.3802V31.0251C32.3802 30.7851 32.4755 30.555 32.6452 30.3853C32.8149 30.2156 33.0451 30.1203 33.2851 30.1203H43.4286C43.6669 30.1227 43.8947 30.2192 44.0623 30.3886C44.23 30.558 44.324 30.7867 44.324 31.0251V36.743V36.7382Z" fill="#080808"/>
<path fill-rule="evenodd" clip-rule="evenodd" d="M48.5214 18.917C48.303 19.361 47.9599 19.7319 47.5342 19.9843C47.1086 20.2367 46.6186 20.3597 46.1241 20.3383C44.5228 20.3383 43.4994 19.187 43.4994 17.4199C43.4994 15.6527 44.5228 14.5014 46.0957 14.5014C46.5972 14.477 47.094 14.6082 47.5181 14.877C47.9422 15.1459 48.2727 15.5393 48.4646 16.0033L50.317 15.2737C49.559 13.4638 47.5976 12.4831 45.2714 12.7958C44.3242 12.9683 43.451 13.4221 42.7656 14.0982C42.0802 14.7743 41.6144 15.6413 41.4291 16.586C40.9553 19.8029 43.0446 22.1718 46.1099 22.1718C48.0619 22.1718 49.6585 21.2479 50.3739 19.6608L48.5214 18.917ZM14.0024 19.6466L12.1499 18.917C11.936 19.3704 11.5931 19.7507 11.1642 20.0103C10.7353 20.2698 10.2393 20.3971 9.73839 20.3762C8.13704 20.3762 7.11369 19.2249 7.11369 17.4578C7.11369 15.6906 8.14652 14.5251 9.73839 14.5251C10.2399 14.5007 10.7367 14.6319 11.1608 14.9007C11.5848 15.1696 11.9154 15.563 12.1073 16.027L13.9597 15.2974C13.1827 13.4639 11.2213 12.4832 8.90929 12.7958C7.96212 12.9683 7.08889 13.4222 6.40349 14.0982C5.7181 14.7743 5.25235 15.6413 5.06699 16.586C4.59322 19.8029 6.68256 22.1718 9.74787 22.1718C11.6998 22.1576 13.2964 21.2337 14.0024 19.6466ZM15.1725 21.9633V12.9238H17.2808V20.2199H21.8811V21.9633H15.1725ZM23.4447 12.9238H25.5483V21.9586H23.4447V12.9238ZM37.871 12.9238H39.9745V21.9586H37.871V12.9238ZM27.5712 12.9238H28.9735L33.7729 18.4385V12.9238H35.848V21.9633H34.4456L29.6463 16.4486V21.9633H27.5712V12.9238Z" fill="#080808"/>
<path fill-rule="evenodd" clip-rule="evenodd" d="M43.7774 9.12372C43.1978 9.35121 42.5775 9.45662 41.9553 9.43337C41.3292 9.46335 40.7037 9.36292 40.1185 9.13845C39.5333 8.91398 39.0011 8.57036 38.5557 8.12938C38.1102 7.6884 37.7613 7.15968 37.5309 6.57674C37.3006 5.9938 37.1939 5.36936 37.2176 4.74301C37.1871 4.11277 37.2888 3.48313 37.5161 2.89453C37.7434 2.30592 38.0913 1.77137 38.5375 1.32521C38.9837 0.879041 39.5182 0.531128 40.1068 0.303813C40.6954 0.0764994 41.3251 -0.0251896 41.9553 0.00527813C42.5817 -0.018411 43.2061 0.0882985 43.789 0.318641C44.372 0.548984 44.9007 0.897934 45.3417 1.34337C45.7827 1.7888 46.1263 2.321 46.3507 2.90623C46.5752 3.49145 46.6756 4.11693 46.6457 4.74301C46.6689 5.3652 46.5635 5.9855 46.336 6.56508C46.1085 7.14466 45.7639 7.67105 45.3236 8.11132C44.8834 8.55158 44.357 8.89624 43.7774 9.12372ZM44.5516 4.7288C44.5516 2.96162 43.5282 1.81035 41.9553 1.81035C40.3729 1.81035 39.3496 2.99005 39.3496 4.74301C39.3496 6.49597 40.3919 7.64724 41.9553 7.64724C43.5188 7.64724 44.5516 6.49597 44.5516 4.7288ZM27.022 7.55723H23.1512L22.4358 9.23913H20.2754L24.4257 0.204269H25.8044L29.9309 9.23913H27.7421L27.022 7.55723ZM25.1055 3.02879L26.3681 5.99852H23.8429L25.1055 3.02879ZM11.7001 4.3403L13.9885 7.8936H15.0544L17.3428 4.3403V9.23912H19.4179V0.199524H17.9587L14.5191 5.56264L11.0842 0.199524H9.625V9.23912H11.7001V4.3403ZM33.8917 9.23912H31.7881V6.02694L28.3059 0.199524H30.6227L32.8541 4.14606L35.0856 0.199524H37.3739L33.8917 6.02694V9.23912Z" fill="#080808"/>
<path d="M84.384 26.356V20.044H86.832V35.5H84.384V28.42H76.32V35.5H73.872V20.044H76.32V26.356H84.384ZM99.6829 30.124V30.58H91.7389C91.9069 32.596 93.1549 33.892 94.9549 33.892C96.1549 33.892 97.1149 33.316 97.5229 32.404L99.5629 32.884C98.9869 34.66 97.1389 35.836 94.7869 35.836C91.5469 35.836 89.3869 33.58 89.3869 30.22C89.3869 26.86 91.5229 24.604 94.7149 24.604C97.8109 24.604 99.6829 26.716 99.6829 30.124ZM94.6189 26.428C93.1549 26.428 92.0989 27.46 91.8109 29.092H97.2589C97.0189 27.388 96.0829 26.428 94.6189 26.428ZM111.468 33.748L111.756 35.212C111.372 35.5 110.7 35.668 110.052 35.668C108.9 35.668 108.252 35.188 108.084 34.228C107.148 35.236 105.876 35.812 104.484 35.812C102.564 35.812 101.292 34.708 101.292 33.004C101.292 31.468 102.276 30.46 104.316 29.812L107.94 28.636V28.42C107.94 27.076 107.34 26.452 106.092 26.452C104.796 26.452 103.716 27.196 103.356 28.348L101.388 27.868C101.868 25.996 103.86 24.604 106.428 24.604C108.828 24.604 110.22 25.828 110.22 27.964V33.34C110.22 33.7 110.436 33.916 110.796 33.916C110.988 33.916 111.276 33.844 111.468 33.748ZM105.3 34.06C106.596 34.06 107.94 33.388 107.94 31.804V30.172L105.06 31.108C104.052 31.444 103.524 31.9 103.524 32.692C103.524 33.508 104.22 34.06 105.3 34.06ZM115.848 35.5H113.496V19.42L115.848 18.94V35.5ZM124.839 33.532L125.271 35.116C124.719 35.524 123.711 35.812 122.727 35.812C120.615 35.812 119.415 34.708 119.415 32.74V26.788H117.831V25.228L119.511 24.916L119.943 22.252H121.767V24.94H125.127V26.788H121.767V32.452C121.767 33.34 122.343 33.868 123.327 33.868C123.831 33.868 124.383 33.724 124.839 33.532ZM133.356 24.628C135.516 24.628 136.764 25.924 136.764 28.18V35.5H134.412V28.804C134.412 27.436 133.644 26.596 132.348 26.596C130.86 26.596 129.372 27.652 129.372 29.836V35.5H127.02V19.42L129.372 18.94V26.596C130.572 25.252 131.868 24.628 133.356 24.628ZM141.884 34.228H150.02V35.5H140.396V20.044H141.884V34.228ZM156.455 35.836C153.263 35.836 151.079 33.556 151.079 30.22C151.079 26.884 153.263 24.604 156.455 24.604C159.647 24.604 161.831 26.884 161.831 30.22C161.831 33.556 159.647 35.836 156.455 35.836ZM156.479 34.612C158.807 34.612 160.343 32.86 160.343 30.34C160.343 27.628 158.711 25.828 156.431 25.828C154.079 25.828 152.543 27.604 152.543 30.1C152.543 32.812 154.199 34.612 156.479 34.612ZM169.059 35.836C166.011 35.836 163.947 33.556 163.947 30.22C163.947 26.884 166.059 24.604 169.155 24.604C171.315 24.604 172.971 25.804 173.451 27.676L172.155 27.964C171.699 26.668 170.523 25.852 169.083 25.852C166.923 25.852 165.435 27.628 165.435 30.22C165.435 32.788 166.971 34.588 169.179 34.588C170.667 34.588 171.843 33.724 172.251 32.38L173.547 32.692C173.091 34.588 171.363 35.836 169.059 35.836ZM184.96 34.348L185.176 35.308C184.864 35.524 184.312 35.668 183.808 35.668C182.776 35.668 182.224 35.164 182.152 34.156C181.192 35.212 179.896 35.812 178.48 35.812C176.584 35.812 175.312 34.732 175.312 33.076C175.312 31.492 176.392 30.532 178.312 29.932L182.128 28.708V28.18C182.128 26.596 181.384 25.804 179.872 25.804C178.384 25.804 177.136 26.668 176.704 28.012L175.456 27.676C175.96 25.9 177.76 24.604 180.088 24.604C182.272 24.604 183.544 25.804 183.544 27.868V33.868C183.544 34.3 183.784 34.54 184.216 34.54C184.456 34.54 184.768 34.468 184.96 34.348ZM178.912 34.66C180.496 34.66 182.128 33.724 182.128 31.9V29.812L178.744 30.892C177.4 31.324 176.728 31.948 176.728 32.908C176.728 33.964 177.592 34.66 178.912 34.66ZM192.493 34.18L192.805 35.188C192.325 35.548 191.437 35.788 190.573 35.788C188.701 35.788 187.669 34.828 187.669 33.076V26.116H185.989V25.132L187.717 24.916L187.981 22.228H189.109V24.94H192.685V26.116H189.109V32.932C189.109 33.964 189.757 34.564 190.885 34.564C191.437 34.564 192.061 34.42 192.493 34.18ZM199.346 35.836C196.154 35.836 193.97 33.556 193.97 30.22C193.97 26.884 196.154 24.604 199.346 24.604C202.538 24.604 204.722 26.884 204.722 30.22C204.722 33.556 202.538 35.836 199.346 35.836ZM199.37 34.612C201.698 34.612 203.234 32.86 203.234 30.34C203.234 27.628 201.602 25.828 199.322 25.828C196.97 25.828 195.434 27.604 195.434 30.1C195.434 32.812 197.09 34.612 199.37 34.612ZM212.741 24.724C212.861 24.724 213.005 24.724 213.197 24.748V26.212C212.885 26.188 212.621 26.188 212.381 26.188C210.701 26.188 209.045 27.412 209.045 29.74V35.5H207.605V24.94H209.021V27.028C210.317 25.372 211.421 24.724 212.741 24.724Z" fill="#080808"/>
</svg>
