<svg xmlns="http://www.w3.org/2000/svg" width="20" height="32" viewBox="0 0 20 32" fill="none">
<path d="M6.12062 28.9674C6.12062 28.9602 6.12062 28.9487 6.12062 28.9328C6.12062 28.8247 6.09972 28.8103 5.9765 28.7166C5.91556 28.6724 5.85756 28.6243 5.80285 28.5725C5.6681 28.4399 5.34383 28.1834 5.23069 28.0955L5.08227 27.9809L5.1608 26.3236L5.47282 26.2948C10.2395 25.8538 17.8632 25.0381 19.3015 24.6122C19.2503 24.5527 19.1956 24.4961 19.1379 24.4429C18.9218 24.2368 18.6335 23.9543 18.6098 23.4506C18.6049 23.2139 18.6333 22.9776 18.6941 22.7488C18.7755 22.3885 18.8461 22.0743 18.5701 21.397C18.1803 20.44 18.2264 19.589 18.261 18.9679C18.2711 18.7827 18.2797 18.622 18.274 18.4981C18.2487 17.9519 18.3122 17.2385 18.7395 16.8652C18.7193 16.8249 18.6919 16.7773 18.6717 16.7406C18.5752 16.5705 18.4555 16.3587 18.4555 16.1086C18.4491 15.9804 18.1673 15.584 17.8748 15.2929L17.8106 15.2295L17.7847 15.1438L13.1146 0C8.26724 0.360291 1.35541 0.892078 0 1.02394L0.00432771 1.03044C0.089446 1.13452 0.152888 1.25456 0.190947 1.38351C0.195216 1.39861 0.200759 1.41332 0.207519 1.42748L0.224812 1.43252C0.532501 1.52187 0.580777 1.73949 0.581497 1.86487C0.581497 2.12428 0.378308 2.27127 0.255089 2.35919L0.214011 2.38945C0.206805 3.84863 0.0951154 20.1756 0.0886302 21.1592L1.25236 31.6076C2.30081 31.524 1.67679 29.6015 2.42619 29.6952C3.19289 29.791 3.29089 30.3661 3.86375 31.1328C4.43661 31.8995 4.34222 32.3779 5.10892 31.6119C5.39283 31.328 5.82158 31.1075 6.37571 30.9476C6.3195 30.668 6.22223 30.2688 6.05361 29.7031C5.95273 29.3493 5.97002 29.1576 6.12062 28.9674Z" fill="#0057B8"/>
</svg>