<svg xmlns="http://www.w3.org/2000/svg" width="32" height="32" viewBox="0 0 32 32" fill="none">
<g clip-path="url(#clip0_6931_11044)">
<path fill-rule="evenodd" clip-rule="evenodd" d="M4.82903 6.49008C4.10977 6.36612 4.35831 7.11112 4.35831 7.11112C4.37615 7.3903 4.71163 7.70598 5.02276 7.99876L5.02276 7.99877C5.15474 8.12296 5.28234 8.24304 5.37946 8.35446C5.65204 8.67677 5.9511 8.97573 6.27351 9.2482C6.47415 9.41803 6.55982 9.59742 6.66141 9.81018C6.72333 9.93984 6.79117 10.0819 6.89455 10.2417C7.16757 10.6638 6.91903 10.7118 6.3231 10.6638C5.72716 10.6158 5.60258 10.4652 5.47894 9.89403C5.39482 9.50548 4.98843 9.82946 4.61989 10.1233C4.44671 10.2613 4.28189 10.3927 4.1628 10.4404C4.07333 10.4762 3.97228 10.5106 3.86937 10.5456L3.86936 10.5456L3.86936 10.5456L3.86936 10.5456L3.86935 10.5456L3.86935 10.5456L3.86934 10.5456L3.86934 10.5456L3.86933 10.5456L3.86933 10.5456L3.86933 10.5456L3.86932 10.5456L3.86931 10.5456C3.54383 10.6563 3.19979 10.7733 3.14447 10.9619C3.09919 11.1163 3.29394 11.2806 3.50708 11.4603C3.6366 11.5695 3.7729 11.6845 3.86625 11.8064C3.97506 11.9485 3.98799 12.1098 4.00026 12.2628C4.01584 12.4572 4.03036 12.6382 4.23874 12.7501C4.50276 12.8917 4.87919 12.8699 5.30589 12.8452L5.30592 12.8452C5.48123 12.8351 5.66503 12.8244 5.853 12.8244C6.47525 12.8244 6.47552 12.8241 6.74092 12.5352L6.77185 12.5015C7.06903 12.1789 7.36653 12.477 7.24257 12.7501C7.11862 13.0231 7.11862 13.6934 7.1682 14.3144C7.20888 14.824 6.79854 14.5812 6.5537 14.4364C6.50013 14.4047 6.45447 14.3777 6.4232 14.3643C6.30703 14.3145 6.16893 14.4636 6.03089 14.6127L6.03089 14.6127C5.96198 14.6872 5.8931 14.7616 5.82696 14.8112C5.62831 14.9602 5.40425 14.9606 5.05686 14.9107C4.70946 14.8608 4.06364 15.9535 3.8402 16.4254C3.65461 16.8175 3.77733 17.0207 3.92386 17.2634C3.95374 17.3128 3.98461 17.364 4.01405 17.4187C4.18791 17.7416 4.2378 18.0893 4.16311 18.5861C4.10094 18.9996 4.33194 19.2583 4.53963 19.4909C4.58141 19.5377 4.62225 19.5834 4.65957 19.6292C4.88238 19.9022 5.18019 19.9769 5.72654 19.654C6.15918 19.3983 6.20259 19.5162 6.28824 19.7491C6.31075 19.8103 6.33618 19.8794 6.37237 19.9518C6.50604 20.2191 6.49278 20.6332 6.47951 21.0475C6.47552 21.1719 6.47153 21.2964 6.47153 21.417C6.47153 21.9385 6.99278 21.3671 7.21653 21.0693C7.34377 20.8999 7.4629 20.9795 7.61963 21.0842C7.73849 21.1637 7.87896 21.2575 8.061 21.2682C8.28851 21.2816 8.37907 21.432 8.46086 21.5678C8.5308 21.684 8.59433 21.7895 8.73162 21.7895C8.90204 21.7895 8.95069 21.5618 8.98435 21.4043C9.00951 21.2866 9.0263 21.208 9.07933 21.293C9.15063 21.4073 9.3618 21.3982 9.58029 21.3888H9.58031C9.74166 21.3818 9.907 21.3747 10.023 21.417C10.1632 21.4681 10.0414 21.6828 9.88983 21.9503C9.74622 22.2038 9.57578 22.5045 9.57578 22.7582C9.57578 23.2798 9.00495 24.0248 8.73162 24.0496C8.45829 24.0743 7.6634 24.7694 7.56423 25.0428C7.46507 25.3161 7.29153 25.4652 6.67018 25.4652C6.16398 25.4652 5.95479 25.7782 5.67983 26.1896C5.61727 26.2832 5.55132 26.3819 5.47768 26.4832C5.15106 26.9324 5.21047 26.9285 5.44892 26.9129C5.50051 26.9095 5.56048 26.9056 5.62674 26.9056C5.99924 26.9056 6.1483 26.8061 6.5208 26.4584C6.71765 26.2746 6.94938 26.2089 7.17899 26.1437C7.38386 26.0855 7.58705 26.0278 7.76225 25.8872C8.00724 25.6907 8.20939 25.5697 8.43976 25.4318C8.55878 25.3606 8.68533 25.2848 8.82922 25.1918C9.25161 24.9188 10.4184 24.1478 10.6669 23.834C10.7315 23.7524 10.8078 23.6389 10.8937 23.5112C11.1383 23.1474 11.4604 22.6683 11.8095 22.4846C12.1603 22.3 12.3738 21.8132 12.5316 21.4532L12.5317 21.4532L12.5317 21.4531C12.5861 21.329 12.6339 21.22 12.6785 21.1436C12.8523 20.8455 12.8027 20.7711 12.4054 20.5973C12.0996 20.4634 12.1616 20.4178 12.365 20.268C12.4258 20.2232 12.4993 20.1691 12.5793 20.1005C12.809 19.9038 13.0925 19.2196 13.3232 18.6632L13.3232 18.6631L13.3232 18.6631C13.4418 18.3771 13.5463 18.1248 13.6224 17.9898C13.8465 17.5922 14.5419 17.1466 14.8149 17.2445C15.0145 17.3161 14.763 17.5484 14.4968 17.7944C14.3988 17.8849 14.2989 17.9773 14.2187 18.0642C13.9205 18.3871 13.9209 18.7844 14.02 19.1817C14.0906 19.4645 14.1232 19.634 14.1633 19.8426L14.1633 19.8427L14.1633 19.8427L14.1633 19.8428C14.1795 19.9272 14.197 20.018 14.2187 20.1253C14.294 20.4978 15.0396 19.7528 15.3609 19.2065C15.5259 18.926 15.7178 18.8092 15.9059 18.6947C16.0841 18.5862 16.259 18.4798 16.4041 18.238C16.5806 17.9438 16.461 17.7454 16.3805 17.6118C16.325 17.5199 16.2882 17.4588 16.3793 17.4183C16.5284 17.3521 16.8878 17.4075 17.3664 17.4812C17.6048 17.5179 17.8727 17.5591 18.1589 17.5922C18.5801 17.6409 18.823 17.7489 19.0426 17.8466C19.272 17.9486 19.476 18.0394 19.8312 18.0394C20.1567 18.0394 20.319 17.9687 20.4683 17.9037C20.638 17.8298 20.7908 17.7632 21.1474 17.816C21.5377 17.8737 21.7088 17.8726 21.8967 17.8714C22.0314 17.8705 22.1748 17.8696 22.4139 17.8903C22.6762 17.913 22.7399 17.9932 22.8131 18.0853C22.8997 18.1942 22.9996 18.3199 23.457 18.3871C23.9644 18.4616 24.1399 18.554 24.3393 18.6591C24.4717 18.7289 24.6147 18.8042 24.8723 18.8835C25.3966 19.0451 25.479 19.0264 25.7704 18.9605L25.7705 18.9605C25.838 18.9452 25.9168 18.9274 26.0149 18.9087C26.2373 18.8663 26.3648 18.7878 26.4822 18.7156C26.6403 18.6184 26.78 18.5325 27.1076 18.5609C27.5146 18.5963 27.6821 18.909 27.8346 19.1938C27.8961 19.3086 27.9551 19.4189 28.0265 19.5046C28.2149 19.7309 28.3748 19.7281 28.5821 19.7244C28.6479 19.7233 28.7185 19.722 28.7963 19.728C28.9752 19.7418 29.1924 19.931 29.4265 20.1351C29.6148 20.2992 29.814 20.4729 30.0132 20.5725C30.2477 20.6897 30.4002 20.6429 30.5496 20.597C30.6849 20.5554 30.8176 20.5147 31.0065 20.5973C31.2786 20.7164 31.3879 21.1266 31.4855 21.493L31.4855 21.493C31.5304 21.6616 31.5728 21.8208 31.6275 21.9382C31.801 22.3107 32 21.4917 32 21.1436C32 20.8594 31.6687 20.3766 31.4795 20.1009L31.4795 20.1009L31.4794 20.1008C31.437 20.0389 31.4017 19.9875 31.379 19.9511C31.2841 19.7995 30.9292 19.7925 30.6339 19.7867H30.6339H30.6338C30.5422 19.7849 30.4563 19.7832 30.3857 19.7773C30.0876 19.7525 29.6407 19.7026 29.293 19.4296C29.1836 19.3437 29.025 19.211 28.842 19.058C28.4433 18.7246 27.9287 18.2944 27.5545 18.0391C27.26 17.8381 27.0375 17.7311 26.8484 17.64C26.6868 17.5622 26.5495 17.4962 26.4122 17.3932C26.3022 17.3108 26.182 17.2048 26.0605 17.0975C25.8528 16.9143 25.641 16.7274 25.4686 16.6483C25.1953 16.5227 24.8727 16.7229 24.947 17.2445C25.0214 17.7661 24.6988 18.0394 24.3759 18.0394C24.053 18.0394 23.7301 17.7912 23.5562 17.6421C23.5122 17.6043 23.4458 17.5602 23.3668 17.5077L23.3668 17.5077C23.1341 17.3529 22.7918 17.1252 22.5878 16.7728C22.467 16.5642 22.4533 16.6079 22.4175 16.7217C22.3724 16.8653 22.2923 17.1205 21.9171 17.1205C21.245 17.1205 21.1954 16.5243 21.1954 16.5243C21.1954 16.5243 17.5696 4.23125 17.3461 4.13209C17.2573 4.09264 17.2196 4.08463 17.1532 4.07051C17.0528 4.04915 16.8866 4.01381 16.3777 3.83428C15.945 3.68163 15.7469 3.77646 15.5233 3.88354C15.3101 3.98558 15.0738 4.09875 14.589 4.01943C14.1087 3.94085 13.9187 3.94719 13.7663 3.95227C13.6035 3.95769 13.4838 3.96169 13.099 3.85907C12.6658 3.74357 12.5348 3.85531 12.4278 3.94658C12.3507 4.01228 12.2861 4.06737 12.1302 4.01943L12.0486 3.99426L12.0485 3.99425C11.6638 3.87554 11.0469 3.68521 10.8389 3.68521C10.7527 3.68521 10.6371 3.65177 10.5148 3.61638C10.3197 3.55995 10.1074 3.49856 9.96993 3.55969C9.8502 3.61292 9.79463 3.53801 9.72315 3.44166C9.66106 3.35796 9.58696 3.25808 9.44837 3.21198C9.30408 3.16399 9.15979 3.2672 8.99302 3.3865C8.81521 3.51369 8.61185 3.65917 8.35567 3.65917C8.11145 3.65917 7.98137 3.84537 7.84421 4.04172C7.70254 4.24451 7.55331 4.45812 7.26297 4.48858C6.69151 4.54852 6.3187 5.12405 6.14516 5.59603C5.97162 6.06801 5.54829 6.61404 4.82903 6.49008ZM1.45208 13.6614C0.969746 13.2135 0.212198 13.3858 0.212198 13.3858L0.210629 13.7646C0.210629 14.0299 0.428242 13.9414 0.618699 13.8639C0.700881 13.8305 0.778008 13.7991 0.830413 13.7991C0.900352 13.7991 0.958967 13.9385 1.03092 14.1097C1.13781 14.3639 1.27415 14.6882 1.5208 14.7293L1.53193 14.7311C1.9439 14.7998 2.51752 14.8954 2.27867 14.2469C2.14568 13.8859 2.05463 13.8813 1.9187 13.8746C1.80829 13.8691 1.66826 13.8621 1.45208 13.6614ZM2.58872 18.9658C2.58872 18.9658 3.58759 18.7244 3.65569 18.9658C3.67408 19.0309 3.72024 19.1112 3.76765 19.1935C3.89576 19.4162 4.03295 19.6546 3.65569 19.6546C3.13884 19.6546 2.65745 19.2413 2.58872 18.9658ZM2.29341 27.9336C2.05083 27.8454 1.74235 28.2644 1.74235 28.2644C1.61765 28.3077 1.49909 28.367 1.38962 28.4407C1.28778 28.5134 1.17651 28.4804 1.03024 28.437C0.954767 28.4145 0.869976 28.3894 0.772351 28.3745C0.485525 28.3309 0.0229618 29.0357 0.000681019 29.3665C-0.0186268 29.6531 0.37611 29.3605 0.740123 29.0907L0.740163 29.0906L0.740221 29.0906L0.740265 29.0906C0.796267 29.049 0.85154 29.0081 0.904465 28.9698C1.12668 28.8093 1.19688 28.8492 1.29295 28.9039C1.36851 28.9469 1.46007 28.999 1.65417 28.9698C2.07271 28.907 2.17312 28.7248 2.27672 28.5368L2.29341 28.5066C2.40387 28.3083 2.53599 28.0218 2.29341 27.9336ZM3.55024 27.2944C3.55024 27.2944 4.34388 26.545 4.69661 26.6551C5.04933 26.7653 5.20373 26.9197 5.04933 27.1623C5.04933 27.1623 4.5579 27.2505 4.32976 27.4048C4.25508 27.4554 4.2001 27.5153 4.15065 27.5693C4.04904 27.6801 3.97077 27.7654 3.79282 27.6914C3.75462 27.6755 3.71641 27.661 3.67984 27.6472C3.46314 27.5652 3.3043 27.5052 3.55024 27.2944ZM12.5501 22.6819C12.0022 22.6995 11.9667 23.1768 11.9667 23.1768C11.8574 23.2864 11.9607 23.3537 12.0618 23.4195C12.0913 23.4387 12.1206 23.4578 12.1444 23.4778C12.1733 23.5021 12.1943 23.5358 12.2191 23.5755C12.2844 23.6802 12.3759 23.827 12.7092 23.9551C13.0211 24.0749 13.0402 23.8856 13.0644 23.6465C13.0758 23.5332 13.0884 23.4088 13.1338 23.3008C13.2004 23.1424 13.3457 23.0706 13.4825 23.0029C13.6358 22.927 13.7785 22.8564 13.7878 22.6753C13.793 22.574 13.8229 22.507 13.8447 22.4582C13.8966 22.3419 13.9022 22.3293 13.4166 22.2046C13.0419 22.1084 12.9804 22.2525 12.9144 22.407C12.8589 22.5368 12.8003 22.6739 12.5501 22.6819ZM13.1514 21.7094C13.1514 21.7094 13.399 21.5328 13.5402 21.5679C13.5812 21.5781 13.6297 21.5809 13.677 21.5836C13.7925 21.5903 13.9 21.5965 13.8681 21.7094C13.8432 21.7979 13.8814 21.8011 13.8899 21.8018C13.8909 21.8019 13.8914 21.8019 13.8915 21.8021C13.8915 21.8023 13.8904 21.8027 13.8878 21.8037C13.8796 21.8067 13.8564 21.8153 13.8054 21.8409C13.6278 21.9301 13.4084 21.9602 13.3193 21.9106C13.2302 21.861 13.1514 21.7094 13.1514 21.7094ZM26.0466 19.8357C25.6421 19.8357 25.6255 19.3301 25.6255 19.3301C25.6255 19.3301 26.0783 19.0775 26.3153 18.9931C26.5522 18.9087 26.62 18.9259 26.7546 19.3301C26.8892 19.7343 26.4511 19.8357 26.0466 19.8357ZM26.7794 20.0713C26.7794 20.0713 27.2768 20.7793 27.4453 20.9648C27.6138 21.1502 27.8668 21.1669 27.5633 20.6108C27.4716 20.4427 27.4045 20.3023 27.3504 20.1891L27.3504 20.1891C27.2257 19.928 27.1703 19.812 27.0411 19.8357L27.0243 19.8387C26.8443 19.8715 26.661 19.9049 26.7794 20.0713ZM27.4453 19.5661C27.2937 19.4817 26.9062 18.9523 26.9062 18.9523C26.765 18.6074 26.9904 18.7151 27.1448 18.7889C27.1747 18.8033 27.202 18.8163 27.2234 18.8245C27.3369 18.868 27.3943 18.9492 27.5373 19.1515C27.5604 19.1841 27.5857 19.2199 27.6138 19.2592C27.8162 19.5419 27.5969 19.6505 27.4453 19.5661ZM28.2402 20.1068C28.2402 20.1068 28.249 19.8206 28.4457 19.9549C28.5233 20.0079 28.6038 20.0371 28.6689 20.0608C28.7689 20.0972 28.8327 20.1204 28.7947 20.1962C28.7319 20.3214 28.5534 20.4109 28.4727 20.3572C28.4508 20.3426 28.4223 20.3366 28.3927 20.3304C28.3136 20.3139 28.2272 20.2957 28.2402 20.1068ZM28.9196 20.5013C28.8838 20.3842 29.0269 20.1874 29.0269 20.1874C29.0446 20.1601 29.0422 20.1486 29.0389 20.1327C29.035 20.1142 29.0299 20.0898 29.0539 20.0271C29.0985 19.9107 29.2061 20.0811 29.2777 20.2326C29.3492 20.3842 29.3131 20.4473 29.1521 20.6353C29.0065 20.8053 28.9634 20.6539 28.93 20.5368C28.9285 20.5315 28.927 20.5262 28.9255 20.5211C28.9235 20.5143 28.9216 20.5076 28.9196 20.5013ZM29.2064 21.1533C29.2064 21.1533 29.3404 21.9498 29.4747 22.0035C29.5233 22.0229 29.5928 22.013 29.6719 22.0019C29.8117 21.9821 29.9816 21.9581 30.1187 22.0838C30.1928 22.1517 30.2371 22.2218 30.2724 22.2778C30.3396 22.3841 30.3748 22.4399 30.5213 22.3349C30.7451 22.1745 30.6108 21.8519 30.3958 21.6818C30.3043 21.6094 30.2162 21.5517 30.1272 21.4934L30.1271 21.4934C30.007 21.4147 29.8853 21.335 29.7515 21.2167C29.7158 21.1851 29.6836 21.1558 29.6544 21.1292C29.4936 20.9828 29.4241 20.9195 29.3492 21.0109C29.3096 21.0592 29.2714 21.0639 29.2437 21.0673C29.2096 21.0714 29.1915 21.0736 29.2064 21.1533ZM30.6823 21.3055C30.4228 21.3055 30.5301 20.8584 30.5301 20.8584C30.5457 20.63 30.6292 20.6637 30.7113 20.6967C30.7235 20.7016 30.7357 20.7065 30.7476 20.7106C30.8114 20.7321 30.8238 20.7605 30.8646 20.8536C30.8825 20.8946 30.906 20.9482 30.9418 21.0193C31.0589 21.2519 30.9418 21.3055 30.6823 21.3055Z" fill="#0057B8"/>
</g>
<defs>
<clipPath id="clip0_6931_11044">
<rect width="32" height="32" fill="white"/>
</clipPath>
</defs>
</svg>