<svg xmlns="http://www.w3.org/2000/svg" width="32" height="32" viewBox="0 0 32 32" fill="none">
<path d="M9.91205 0C9.91205 0.0391441 9.90524 0.0777209 9.90127 0.113461C9.8781 0.259515 9.88059 0.408488 9.90865 0.553684C9.96538 0.81351 9.86326 1.03306 9.77363 1.22651C9.70101 1.38309 9.63861 1.51811 9.64882 1.66674C9.66754 1.93508 9.58018 2.14952 9.50302 2.339C9.42587 2.52848 9.35099 2.71285 9.36857 2.97324C9.38969 3.22495 9.33549 3.47725 9.21285 3.69807C9.09022 3.91889 8.90469 4.09826 8.67986 4.21337L8.67022 4.2355C8.61746 4.3569 8.49492 4.64112 8.04108 4.60538C7.63148 4.57418 7.51008 4.23777 7.45788 4.08063C7.265 4.0568 7.05397 3.96717 6.85087 3.87016L6.80662 3.84973C6.64366 3.7835 6.47143 3.74293 6.29604 3.72947C6.04643 3.90533 6.03906 4.8567 6.07706 5.62426C6.17578 7.62742 5.90347 8.51469 5.89212 8.55156L5.88815 8.56291C5.80086 8.79918 5.68381 9.02337 5.53983 9.23006C5.52791 9.39117 5.51714 9.82516 5.71002 10.1758C5.88475 10.4923 5.91595 10.8611 5.94375 11.1861C5.96758 11.4698 5.99084 11.7421 6.10089 11.9236C6.14131 11.9517 6.18379 11.9768 6.22797 11.9985C6.29823 12.0327 6.36493 12.0737 6.42709 12.121C6.75954 12.3917 6.91328 12.6702 6.88094 12.9493C6.85087 13.2392 6.63643 13.482 6.22683 13.6913C6.14344 13.7345 6.06345 13.7725 5.98573 13.8093C5.53756 14.0238 5.31801 14.1452 5.23688 14.5531C5.21986 14.6376 5.20285 14.7318 5.18526 14.8322C5.04854 15.5913 4.84488 16.7383 4.03704 17.0901C3.67056 17.2501 3.46973 17.8662 3.4981 18.345C3.51398 18.6411 3.61155 18.8589 3.74374 18.9003C3.96272 18.969 4.08752 19.1602 4.07788 19.4109C4.06256 19.8262 3.61723 20.5597 3 21.245C3.27401 21.4407 2.56658 21.9961 4.0393 22.9974C5.92446 24.2795 17.7681 30.9925 17.7681 30.9925L25.6888 32L29.6089 3.16954L9.91205 0Z" fill="#0057B8"/>
</svg>