<svg xmlns="http://www.w3.org/2000/svg" width="32" height="32" viewBox="0 0 32 32" fill="none">
<path d="M30.8085 7.74284C31.3127 7.08216 32.1582 5.97767 31.9743 5.5357C31.8985 5.35659 31.8534 5.16605 31.8407 4.97201C30.6365 5.20444 29.8083 5.31791 29.2337 5.31791C28.767 5.31791 28.4659 5.24378 28.2655 5.09646C28.189 5.04242 28.1247 4.97299 28.0766 4.89262C28.0286 4.81225 27.9978 4.72272 27.9864 4.62978C27.8858 3.75131 28.6105 2.57546 29.2053 2.37048C29.3262 2.33111 29.4535 2.31466 29.5805 2.32198C29.5805 2.28446 29.5805 2.23871 29.5741 2.1838V2.15635V2.12982C29.5832 1.89007 29.5311 1.31815 29.3078 1.09395C29.274 1.05949 29.2327 1.0333 29.1872 1.01743C29.1416 1.00155 29.093 0.996425 29.0451 1.00245C28.0669 1.0363 3.94303 2.33662 0 2.54891C0.353216 4.12649 1.35429 8.70274 1.36619 9.89325C1.37809 11.1304 1.45771 22.8231 1.46869 25.141C1.54144 25.171 1.60929 25.2117 1.67 25.2618C1.75514 25.3328 1.82383 25.4215 1.87131 25.5217L4.53874 25.4951L4.58358 30.0476L23.9373 29.5132C23.9263 29.1691 23.961 28.7235 24.155 28.3694C24.3792 27.9622 24.1944 27.5202 23.8732 26.8339C23.5337 26.1018 23.11 25.1996 23.5859 24.2323C24.1047 23.1736 24.4552 22.1021 24.8258 20.9674C24.9914 20.4623 25.1616 19.9389 25.351 19.4118C25.5716 18.795 25.9687 18.3476 26.353 17.9147C26.6003 17.6542 26.8219 17.3705 27.0146 17.0674C27.2489 16.6666 27.2708 16.2539 27.2965 15.7762C27.3193 15.3416 27.3431 14.8923 27.5325 14.4219C27.7156 13.9735 28.1585 13.6963 28.551 13.451C28.7761 13.3101 29.0085 13.1646 29.1348 13.0219C29.2674 12.8694 29.3917 12.7099 29.5073 12.5442L29.4862 12.1782L29.7479 12.1626C29.9676 11.7655 30.0892 11.3875 30.0856 11.0783C30.0757 10.8686 30.0366 10.6613 29.9694 10.4624C29.8632 10.0863 29.7296 9.61873 29.962 9.02668C30.0993 8.66889 30.4278 8.23972 30.8085 7.74284Z" fill="#0057B8"/>
</svg>