<svg xmlns="http://www.w3.org/2000/svg" width="32" height="32" viewBox="0 0 32 32" fill="none">
<path d="M22.8091 31.8331C23.1741 31.4286 23.3277 31.1113 23.342 31.0027C23.1501 30.9223 23.0276 30.7032 23.0114 30.4069C22.99 30.0125 23.1556 29.5318 23.5131 29.3752C23.8152 29.2433 23.9144 28.6907 23.9799 28.3248C23.9906 28.2651 24.0006 28.2094 24.0123 28.1591C24.0927 27.7566 24.3597 27.6289 24.6184 27.5054C24.6605 27.4853 24.7046 27.4642 24.748 27.4406C24.9302 27.3472 24.9458 27.283 24.947 27.2714C24.9503 27.239 24.9146 27.1741 24.8038 27.0834C24.7842 27.0704 24.7639 27.0586 24.7429 27.048C24.6748 27.0121 24.598 26.9716 24.5516 26.8986C24.443 26.7278 24.4259 26.5233 24.409 26.3253C24.3947 26.1567 24.3811 25.9976 24.3147 25.8773C24.1662 25.608 24.1682 25.2968 24.1776 25.1642L14.6202 11.1297L16.7675 2.62539L8.25959 0C8.27385 0.12576 8.31598 0.229154 8.40868 0.29884C8.66474 0.491045 8.26898 0.640141 8.25343 1.13086C8.23787 1.62159 7.18058 4.0846 7.14298 4.38376C7.10538 4.68293 6.84382 5.50652 7.14298 6.10518C7.44215 6.70383 6.97184 8.31278 7.00134 9.02228C7.03084 9.73179 7.21785 10.2196 7.40487 10.6312C7.59189 11.0429 7.85411 11.9783 8.00353 12.4275C8.15295 12.8767 8.0784 12.8016 8.45276 13.0634C8.82712 13.3253 9.08869 12.4275 9.31331 12.4275C9.53793 12.4275 9.3266 12.2029 10.0309 12.3899C10.7352 12.5769 11.2217 12.9733 11.2966 13.1114C11.3715 13.2495 11.5585 13.6248 11.1096 13.55C10.6607 13.4751 10.5615 13.1383 10.0309 13.2132C9.50033 13.2881 9.27603 13.1954 9.50033 13.5597C9.72462 13.924 10.1366 14.6351 9.5752 14.4105C9.01382 14.1859 9.08901 13.5872 8.8644 13.9616C8.63978 14.336 8.78953 15.4584 9.05142 16.1332C9.31331 16.808 9.27603 16.8816 9.16356 17.4803C9.05109 18.0789 9.83709 19.9874 10.2115 20.6609C10.5858 21.3344 10.7728 21.372 10.7728 22.195C10.7728 23.0179 10.7352 24.1783 12.2314 25.0015C13.7275 25.8248 14.7757 25.7123 15.0752 26.4235C15.3747 27.1346 15.4496 27.6956 16.1604 28.1089C16.8712 28.5222 17.1707 28.5205 17.1707 29.6806C17.1707 30.8406 16.4599 31.1025 17.4702 31.4765C18.4426 31.8373 21.7094 31.9893 22.6493 32C22.7038 31.9465 22.757 31.8911 22.8091 31.8331Z" fill="#0057B8"/>
</svg>