<svg xmlns="http://www.w3.org/2000/svg" width="32" height="32" viewBox="0 0 32 32" fill="none">
<path d="M4.69791 29.9576C8.8007 25.8548 14.8552 23.1251 17.5821 22.7071C20.309 22.2891 25.7601 21.2371 29.9542 18.0922C30.6657 17.5579 31.3522 17.0485 32 16.5557L27.6453 1L0 7.38395C0.128519 7.80033 0.197419 8.23278 0.204792 8.66848C0.204792 9.72324 0.9052 13.0979 1.31216 15.0967C1.51148 16.0712 1.66652 16.8381 1.7385 17.2644C1.79941 17.6409 1.83817 18.1392 1.88246 18.7123C2.00427 20.2349 2.45279 22.6351 3.02862 23.8975C4.13599 26.3309 3.67089 30.06 3.65152 30.3091" fill="#0057B8"/>
</svg>