<svg xmlns="http://www.w3.org/2000/svg" width="32" height="32" viewBox="0 0 32 32" fill="none">
<path d="M11.8275 0.306697L11.2578 1.25603L10.9219 2.83341L9.82656 4.90733L10.2063 6.03191L10.6444 6.79141L10.9073 8.52943L12.2364 9.98995L14.7485 12.2976L16.0775 16.4454L18.1662 18.9575L21.0872 21.7471L23.0005 22.2875L23.3656 23.5143L23.0589 25.7197L22.241 26.8882L23.5409 26.3916L24.3295 26.6983L25.3811 28.2465L25.5855 29.3272L23.7015 29.78L19.7873 30.6855L15.8731 31.591L14.0766 32H13.7554L12.8498 28.5093L11.8713 24.9895L10.8781 21.455L9.91418 17.9352L8.93566 14.4007L7.95705 10.8663L6.97852 7.34641L6 3.81194L6.90552 1.70878L7.34365 1.03696L8.00091 0.584199L10.1478 0L11.8275 0.306697Z" fill="#0057B8"/>
</svg>