<svg xmlns="http://www.w3.org/2000/svg" width="32" height="32" viewBox="0 0 32 32" fill="none">
<path d="M22.507 4.24462C22.444 4.23668 22.3924 4.23172 22.3482 4.22726C22.1369 4.20741 22.0247 4.18955 21.786 4.00496C21.7838 4.003 21.7813 4.00133 21.7786 4C21.7339 4 21.6168 4.10618 21.5801 4.14092C21.5523 4.16739 21.5228 4.19208 21.4918 4.21485C21.4839 4.22974 21.4724 4.25852 21.4635 4.28035C21.4481 4.31757 21.4303 4.36123 21.406 4.40887C21.4159 4.42127 21.4273 4.43467 21.4362 4.44509C21.5149 4.52594 21.5713 4.62577 21.6 4.73487C21.6213 4.84453 21.6283 5.08221 21.6367 5.42955C21.6402 5.57047 21.6431 5.70344 21.6476 5.78134C21.6533 5.84141 21.6448 5.90197 21.6228 5.95815C21.6008 6.01434 21.566 6.06458 21.5211 6.10487C21.4371 6.17287 21.3313 6.20813 21.2234 6.20411C21.1566 6.20297 21.0901 6.19516 21.0249 6.18079L21.012 6.17781C20.9162 6.16143 20.8512 6.15052 20.4612 5.566C20.1312 5.52879 19.1597 5.42657 18.601 5.44295C17.9197 5.4623 14.4632 6.01853 14.4284 6.02449H14.3997C14.3892 6.02449 13.3338 6.07411 12.2908 6.10041C11.6765 6.11728 11.1863 6.12422 10.833 6.12174C10.2534 6.11728 9.95719 6.1153 9.92493 5.8538C9.89467 5.75456 9.6957 5.37695 9.48978 5.01026C9.40344 5.03855 9.30965 5.05988 9.21934 5.08072C8.95983 5.14026 8.58024 5.20775 8.09149 5.2792C7.27574 5.40226 6.13896 5.54565 4.71338 5.70543C2.70428 5.9302 0.673337 6.12522 0.0218298 6.18675L0 6.63927C0.0992395 6.71966 0.251561 6.84222 0.335915 6.92508C0.358869 6.94634 0.383069 6.96622 0.40837 6.98462C0.518029 7.06799 0.702119 7.20742 0.706088 7.52499C0.713081 7.63536 0.682087 7.7448 0.61826 7.83511C0.621734 7.85198 0.627684 7.87778 0.639097 7.91549C0.750741 8.29062 0.823676 8.57842 0.86883 8.80121C1.45335 8.69254 2.17681 8.64589 3.00943 8.64589C4.72429 8.64589 5.97768 8.5799 6.90161 9.30584C7.82553 10.0318 7.89103 10.7572 9.01243 10.7572C10.1338 10.7572 11.7172 10.2953 12.2452 9.7673C12.7731 9.23935 12.3112 8.31593 13.5645 8.71189C14.8179 9.10786 14.62 9.23984 16.3353 10.7572C18.0507 12.2746 18.5126 11.6806 19.1721 12.868C19.8315 14.0554 19.7675 14.2534 19.7675 15.9028C19.7675 17.5521 18.8476 18.6076 19.7675 18.4756C20.6875 18.3436 20.6894 17.0242 21.2174 17.5521C21.7454 18.0801 20.622 18.9375 20.622 19.3335C20.622 19.7295 20.5088 20.5869 21.3568 21.1143C22.2048 21.6418 22.6673 21.6423 22.9313 22.3018C23.1952 22.9612 23.2607 22.9617 24.1847 23.8191C25.1086 24.6766 24.5141 25.2045 24.9786 25.4025C25.443 25.6005 26.166 25.6665 26.6279 26.0624C27.0899 26.4584 27.8153 27.3818 27.8813 27.9098C27.9473 28.4377 28.4093 29.0972 29.2007 28.7037C29.9922 28.3102 30.8501 28.6377 31.1141 27.8463C31.378 27.0548 30.9156 26.3289 31.576 25.603C32.2365 24.877 32.0375 23.7556 31.576 22.2387C31.1146 20.7219 30.1906 18.4781 29.7287 17.9506C29.2667 17.4231 27.9473 15.5093 27.4194 14.3219C26.8914 13.1345 27.3534 13.0025 26.8919 12.1451C26.4305 11.2877 23.7912 7.46098 23.1312 5.87762C22.9193 5.35702 22.8043 4.80209 22.7918 4.24016C22.6973 4.2514 22.6019 4.2529 22.507 4.24462Z" fill="#0057B8"/>
</svg>