<svg xmlns="http://www.w3.org/2000/svg" width="32" height="32" viewBox="0 0 32 32" fill="none">
<path d="M30.2803 17.8858C30.3023 17.3705 30.1919 16.2253 29.7142 16.1771C28.8185 16.0863 28.4578 15.4744 28.2639 15.1464C28.2329 15.0902 28.199 15.0356 28.1625 14.9828C27.729 14.7718 27.5032 13.9735 27.3895 13.3281C27.3478 13.1342 26.9102 12.403 26.4137 12.3784C25.4591 12.3318 24.6305 11.1907 24.318 10.7024C24.2703 10.6234 24.2277 10.5414 24.1904 10.457C24.0383 10.1298 23.7814 9.58421 21.9541 8.55766C20.0327 7.47875 18.791 5.97612 18.0499 5.0788C17.8797 4.87267 17.7325 4.69436 17.6229 4.5782C17.335 4.27474 17.2875 4.00562 17.2957 3.8224C17.2245 3.80931 17.1223 3.79458 16.9759 3.7774C16.0998 3.67679 15.7375 3.42485 15.3882 3.1811C15.1483 3.00268 14.8855 2.85716 14.607 2.74839C14.0999 2.55126 13.7678 2.35986 13.6803 2.01222C13.5821 1.62613 13.8389 1.32348 14.1939 0.905494L14.3363 0.736178C14.5224 0.518342 14.6681 0.26904 14.7665 0L1 2.1161L6.22605 19.0744C6.48862 19.3476 7.04402 19.9889 7.05383 20.4976C7.05383 20.5713 7.13563 20.7095 7.19534 20.8207C7.3254 21.0514 7.6305 21.5929 7.11354 21.9659C6.9614 22.0763 6.81091 22.4567 6.84445 23.1814C6.85263 23.3646 6.84443 23.565 6.82889 23.7982C6.7929 24.4607 6.7471 25.2861 7.12091 26.2022C7.5299 27.2083 7.40393 27.7719 7.30168 28.225C7.2497 28.4148 7.2241 28.6107 7.22562 28.8074C7.23543 29.0406 7.35895 29.1698 7.57571 29.38C7.79248 29.5902 8.04278 29.8299 8.0894 30.2307C8.6219 31.1599 8.86157 31.6417 8.96954 31.901C9.80879 31.9722 13.2066 31.8708 15.5673 31.7661C16.0246 31.6924 21.375 30.8336 22.5291 30.8009C23.7086 30.7673 25.8149 31.0201 25.9041 31.0315L26.0922 31.0544L26.1969 31.2123C26.3834 31.4969 26.6157 31.8299 26.749 32C26.749 31.8847 26.7425 31.7546 26.7392 31.6164C26.7311 31.2777 26.7188 30.7714 26.6959 30.6242C26.6669 30.581 26.6349 30.54 26.6002 30.5015C26.4627 30.3379 26.1773 29.9976 26.4145 29.6017C26.4533 29.5338 26.4867 29.463 26.5143 29.3898C26.5765 29.2385 26.6542 29.0504 26.8472 28.9244C26.8603 28.9138 26.8922 28.8852 26.9151 28.8639C27.113 28.6847 27.7151 28.1408 28.3056 28.5997C28.5281 28.7723 28.551 28.7747 28.8087 28.7993C28.8856 28.8066 28.9813 28.8156 29.0983 28.8303C29.2212 28.838 29.3445 28.8328 29.4664 28.8148C29.5367 27.5249 29.8393 26.4075 30.0152 25.7065C30.3383 24.4141 31.0238 21.1185 31.6961 19.5831L30.2704 18.0584L30.2803 17.8858Z" fill="#0057B8"/>
</svg>