<svg xmlns="http://www.w3.org/2000/svg" width="32" height="32" viewBox="0 0 32 32" fill="none">
<g clip-path="url(#clip0_6931_11094)">
<path fill-rule="evenodd" clip-rule="evenodd" d="M1.91517 7.52967C1.11901 7.39723 0.103945 6.38016 0.103945 6.38016C-0.0767164 6.2159 0.000324155 6.17702 0.165718 6.09355C0.307797 6.02184 0.515075 5.91723 0.680201 5.67197C1.03755 5.1412 2.53391 4.83133 3.0207 5.09672C3.42605 5.3177 3.24817 6.02939 3.10083 6.61887C3.07123 6.73731 3.04286 6.85082 3.0207 6.95442C2.88825 7.57365 2.71133 7.66212 1.91517 7.52967ZM10.7609 11.3235C10.0977 11.0477 10.1417 9.91815 10.1417 9.91815C10.1417 9.91815 9.65537 9.87567 9.65537 9.43336C9.65537 9.18558 9.8773 9.22921 10.1581 9.28441C10.3785 9.32775 10.6353 9.37822 10.8494 9.30041C10.9941 9.24779 11.1114 9.19129 11.2127 9.14252L11.2127 9.14251C11.452 9.02728 11.6016 8.9552 11.8119 9.07951C11.8362 9.09385 11.8642 9.10965 11.8953 9.12723L11.8955 9.12736L11.8955 9.12737C12.2483 9.32672 13.0053 9.7545 13.3708 10.8707C13.7557 12.0463 13.0646 11.9188 12.5784 11.8292L12.5301 11.8203C11.9241 11.7193 11.3309 11.5527 10.7609 11.3235ZM15.9372 12.7544C15.9372 12.7544 16.1871 12.1282 16.5634 12.1912C16.9359 12.2535 17.7056 12.2145 18.2374 12.1875L18.2537 12.1867C18.4463 12.1769 18.5938 12.1162 18.7214 12.0638C18.9465 11.9712 19.1097 11.9041 19.3492 12.1867C19.7246 12.6295 19.6626 13.0363 19.0993 13.1303C18.7642 13.1862 18.6346 13.1756 18.418 13.1578C18.2706 13.1457 18.0828 13.1303 17.7624 13.1303C17.244 13.1303 16.944 13.0092 16.7372 12.9258C16.6284 12.8819 16.5454 12.8484 16.47 12.8484C16.3987 12.8484 16.3074 12.8982 16.2199 12.9459C16.0387 13.0447 15.8738 13.1347 15.9372 12.7544ZM18.786 14.1318C18.6605 13.9439 17.5025 14.1318 17.5025 14.1318C17.2601 14.1638 17.6904 14.7586 18.0033 15.0085C18.3162 15.2584 18.598 15.3213 18.786 15.0085C18.9739 14.6956 18.9114 14.3198 18.786 14.1318ZM19.6956 14.0484C19.6956 14.0484 20.4783 14.6956 20.7286 14.883C20.8554 14.9779 20.9983 15.2014 21.1532 15.4436C21.3043 15.6799 21.4667 15.934 21.6368 16.104C21.9811 16.4484 22.7323 16.4484 23.2955 16.104C23.4728 15.9956 23.644 15.9511 23.7854 15.9142C24.0935 15.834 24.261 15.7904 24.0452 15.2044C23.9979 15.0757 23.9584 14.9613 23.9232 14.8594L23.9232 14.8593C23.7247 14.2839 23.6644 14.1094 23.1061 14.0474C22.8608 14.0201 22.6547 14.0423 22.4633 14.063C22.1418 14.0976 21.8617 14.1278 21.5068 13.9119C21.2804 13.7743 21.0999 13.5898 20.9468 13.4334C20.7171 13.1986 20.549 13.0268 20.3798 13.1708C20.3216 13.2203 20.2582 13.2672 20.1943 13.3145L20.1943 13.3145C19.9489 13.4963 19.6956 13.6839 19.6956 14.0484ZM25.4536 20.4556C25.4536 21.1443 24.3581 21.8685 24.3581 21.8685C24.3581 21.8685 24.1697 21.9545 24.1417 22.4868C24.1291 22.7262 24.2036 22.7688 24.3235 22.8375C24.4702 22.9215 24.6848 23.0443 24.8913 23.6138C25.1282 24.267 25.1161 24.4327 25.0906 24.781C25.0757 24.9846 25.0562 25.2506 25.0793 25.7129C25.1325 26.7811 25.8454 26.9611 26.5008 27.1266C26.6142 27.1553 26.7258 27.1835 26.832 27.2157C27.3488 27.3728 27.5272 26.8852 27.6791 26.47C27.7388 26.3066 27.7945 26.1545 27.8651 26.0572C28.0753 25.7642 28.3464 25.5202 28.6598 25.3419C28.9732 25.1636 29.3215 25.0552 29.6808 25.0242C30.4528 24.9522 30.7419 24.6755 31.0053 24.4234C31.0838 24.3482 31.1601 24.2753 31.2461 24.2105C31.3382 24.1413 31.4547 24.0967 31.5685 24.053C31.9183 23.919 32.2418 23.795 31.7459 23.0001C31.3246 22.3246 31.0967 22.0993 30.8304 21.8358C30.6812 21.6883 30.52 21.5288 30.306 21.2718C29.8462 20.7194 29.6304 20.5699 29.2971 20.3389C29.1982 20.2704 29.0891 20.1947 28.9601 20.0993C28.3964 19.682 27.9595 19.3901 27.0814 19.1732C26.5597 19.0443 26.3041 18.8685 26.0514 18.6946C25.8788 18.5758 25.7075 18.4579 25.4536 18.3565C25.0354 18.1895 25.1762 18.8759 25.3157 19.5552C25.3848 19.8921 25.4536 20.2273 25.4536 20.4556Z" fill="#0057B8"/>
</g>
<defs>
<clipPath id="clip0_6931_11094">
<rect width="32" height="32" fill="white"/>
</clipPath>
</defs>
</svg>