<svg xmlns="http://www.w3.org/2000/svg" width="32" height="32" viewBox="0 0 32 32" fill="none">
  <path d="M9.90071 12.5791C10.3882 13.0439 10.8995 13.6913 10.7614 14.2676C10.596 14.9582 7.73169 18.2645 7.57692 18.4384C7.53045 18.5002 7.40775 18.8459 7.41101 19.1769C7.41101 19.2168 7.56112 19.2996 7.64338 19.3437C7.85903 19.4622 8.22061 19.6607 8.15462 20.0938C8.07933 20.5697 7.71449 21.08 7.59691 21.232L6 28.3981L14.8736 30.4059L23.7119 32C23.9113 30.9366 24.7641 26.2872 25.2921 21.8408L25.2665 21.8306C24.9998 21.7126 24.9384 21.4291 24.8892 21.2013C24.8715 21.1191 24.8385 20.9662 24.805 20.9378H24.7981C24.7629 20.9394 24.7282 20.9468 24.6954 20.9597C24.5601 21.0061 24.4802 21.0921 24.3789 21.2018C24.219 21.3756 24.0205 21.5899 23.592 21.588C23.376 21.5788 23.1618 21.5442 22.9539 21.4848C22.7471 21.4342 22.5519 21.3868 22.3623 21.397C22.2596 21.4026 22.1573 21.4137 22.049 21.4258C21.8166 21.4514 21.5815 21.4774 21.331 21.4467C21.2483 21.437 21.1683 21.4216 21.0907 21.4072C20.971 21.3794 20.8487 21.3638 20.7259 21.3608L20.5799 21.3668C20.177 21.3849 19.8289 21.4007 19.5872 20.7705C19.5359 20.6251 19.4964 20.4757 19.4692 20.3239C19.4273 20.1217 19.3878 19.9312 19.2944 19.7913C19.2554 19.7327 19.155 19.6793 19.062 19.6277C18.884 19.5319 18.641 19.4013 18.587 19.1164C18.5606 18.977 18.6107 18.8446 18.6512 18.7386C18.6686 18.6984 18.6818 18.6565 18.6907 18.6136C18.72 18.2018 18.5652 17.777 18.4007 17.329C18.271 16.9744 18.1372 16.6081 18.0944 16.2335C18.0586 15.9212 17.9903 15.8557 17.9698 15.8431C17.8853 15.7902 17.5794 15.8989 17.3968 15.9635C17.1179 16.062 16.7201 16.1429 16.3915 15.9682C16.2479 15.8915 16.0588 15.7311 15.9732 15.4002C15.8431 14.8941 16.1508 14.6701 16.3757 14.506C16.4329 14.4647 16.4915 14.4214 16.5444 14.3754C16.7145 14.2253 16.6964 14.1644 16.629 13.9381C16.5803 13.7926 16.5513 13.6414 16.5426 13.4882C16.5333 13.2038 16.7192 12.8376 16.9344 12.4151C17.0998 12.0898 17.4028 11.4939 17.3173 11.3243H17.3118C17.2448 11.3385 17.1758 11.3403 17.1082 11.3299C16.5161 11.2239 16.2061 10.6383 15.9798 10.2107C15.9533 10.1605 15.9272 10.1117 15.9017 10.0653C15.7818 9.8459 15.6739 9.61771 15.5694 9.39741C15.3881 9.01399 15.2162 8.6538 14.9847 8.32429C14.9322 8.24946 14.8694 8.17603 14.803 8.09841C14.6719 7.94551 14.5362 7.78702 14.4484 7.58718C14.3605 7.38733 14.3313 7.17959 14.302 6.97742C14.289 6.88446 14.2764 6.80034 14.2592 6.71901C14.1751 6.31885 14.0598 5.91498 13.9488 5.52412C13.8865 5.30568 13.8223 5.07981 13.7629 4.85533C13.6011 4.23767 13.8637 3.31419 14.0747 2.57197C14.1398 2.34285 14.2016 2.12627 14.242 1.94827C14.2773 1.79304 14.4484 1.10798 14.6138 0.447097C13.8702 0.302093 13.1266 0.15306 12.383 0C11.3893 3.9207 9.9537 9.67627 9.88584 10.3093C9.80126 11.0733 9.87701 12.252 9.90071 12.5791Z" fill="#0057B8"/>
</svg>