<svg xmlns="http://www.w3.org/2000/svg" width="32" height="32" viewBox="0 0 32 32" fill="none">
  <path d="M11.8437 2.22842L11.8634 2.24221C11.9008 2.27178 12.7831 2.96882 12.5972 3.9109C12.4908 4.45881 12.1675 4.7459 11.9317 4.95547C11.8088 5.06519 11.7024 5.15913 11.6794 5.24453C11.6579 5.32773 11.6417 5.41222 11.6308 5.49747C11.5855 5.79901 11.5211 6.03355 11.1006 6.2983C10.9443 6.39685 10.8109 6.48422 10.694 6.56109C10.5191 6.68269 10.3363 6.79243 10.1467 6.88957C10.0506 6.92845 9.95095 6.95771 9.84911 6.97694C9.17113 7.13527 8.5352 7.36324 8.44848 7.95385C8.45899 8.01955 8.50826 8.15948 8.74345 8.22517C9.26902 8.37167 9.5318 8.71724 9.53903 9.25266C9.53903 9.52727 9.20136 10.085 8.9412 10.2723C8.85514 10.4037 8.64687 10.9122 8.59759 11.3405C8.5319 11.8937 8.08714 12.0204 7.84735 12.0881C7.77872 12.1033 7.71244 12.1276 7.65026 12.1604C7.65026 12.1604 7.52675 12.3424 7.53989 13.2004V13.2286C7.53989 13.385 7.44462 13.5735 7.16804 13.6333C7.11479 13.6439 7.06072 13.6498 7.00643 13.651C6.98607 14.0557 7.00119 14.7324 7.24623 15.3388C7.46237 15.8735 7.6299 16.2191 7.75209 16.4714C7.84096 16.6377 7.91482 16.8116 7.97282 16.991C8.17582 17.2689 9.56202 18.4613 10.1612 18.977C10.5113 19.2779 10.6966 19.4369 10.761 19.5026C11.0895 19.8252 11.1473 20.6805 11.1519 21.1608C11.1519 21.3368 11.1644 21.4439 11.1834 21.4794C11.2358 21.4982 11.2917 21.5049 11.347 21.4991C11.369 21.4996 11.391 21.4978 11.4127 21.4939L11.4232 21.4728C11.4667 21.3711 11.5385 21.2841 11.63 21.222C11.7216 21.1599 11.829 21.1255 11.9396 21.1227C12.1367 21.1102 12.4034 21.1082 12.6221 21.1181C12.969 21.1332 13.1609 21.1654 13.2686 21.2981L13.3212 21.3276C13.4381 21.3933 13.5912 21.4781 13.6726 21.6272H13.6799C13.73 21.6342 13.778 21.6517 13.8208 21.6787C13.8637 21.7056 13.9003 21.7414 13.9282 21.7836C14.0504 21.9669 14.0005 22.1778 13.8244 22.8308C13.7587 23.0666 13.693 23.3097 13.6582 23.5028C13.5965 23.7587 13.5084 24.0075 13.3954 24.2452C13.222 24.6532 13.0426 25.0743 13.0853 25.4737C13.1017 25.6242 13.4191 26.0433 14.2271 26.5807C14.9498 27.0603 15.5456 27.2922 15.681 27.2876C16.177 27.2672 16.2788 27.67 16.3228 27.8421C16.376 28.0536 16.4056 28.1706 16.8484 28.1863L17.1112 28.1968L17.2997 29.2624C17.5927 29.3846 17.935 29.6566 17.9403 30.1572C17.9436 30.5074 17.8043 30.7761 17.6926 30.9916C17.6525 31.0691 17.5697 31.23 17.5809 31.2635C17.667 31.5132 17.9639 31.8995 18.2753 31.9461C18.3502 31.958 18.4488 31.975 18.5558 32C18.95 31.2432 19.3068 30.8346 19.607 30.7866C20.3533 30.669 20.846 30.8227 20.9938 31.2215C21.0083 31.2596 21.1141 31.2773 21.2507 31.2964C21.3394 31.307 21.4273 31.3242 21.5135 31.3476C21.6043 31.3739 21.6902 31.415 21.7677 31.4692L21.773 31.4731C21.8101 31.4766 21.8474 31.4779 21.8847 31.4771C21.923 31.476 21.9606 31.4663 21.9947 31.4488C22.0288 31.4313 22.0585 31.4064 22.0818 31.3759C22.0699 31.3575 22.0542 31.3345 22.041 31.3161C21.9022 31.1301 21.8119 30.9125 21.7782 30.6828C21.7638 30.5961 21.7467 30.5225 21.7303 30.4515C21.6725 30.2012 21.6068 29.9181 21.909 29.6093C22.0949 29.4201 22.3242 29.3925 22.4924 29.3721C22.6605 29.3518 22.6895 29.34 22.7131 29.3005C22.8787 29.0312 23.0725 28.9832 23.2301 28.9793C23.2305 28.9776 23.2305 28.9758 23.2301 28.974C23.2919 28.8637 23.2919 28.8637 23.2255 28.7053C23.1833 28.6084 23.1475 28.5088 23.1184 28.4071C23.0278 28.0786 23.1697 27.7501 23.2952 27.4624C23.3431 27.35 23.416 27.1812 23.4154 27.1214C23.4121 26.7666 23.577 25.2103 23.6177 24.8444C23.6749 24.3392 24.2235 23.6277 24.6774 23.1166C24.7654 22.9786 25.0151 22.2408 25.1274 21.7855L25.1334 21.7626C25.2306 21.3684 25.2542 21.2731 25.1334 20.9597C25.0388 20.7193 25.002 20.3685 24.956 19.9585C24.9152 19.5867 24.8699 19.1649 24.7779 18.9199C24.6111 18.4745 24.6807 17.3254 24.7812 16.1501C24.7904 16.047 24.7996 15.9405 24.8016 15.8998C24.7904 15.8282 24.7359 15.5917 24.6847 15.3815C24.502 14.6115 24.3509 13.946 24.3476 13.5991C24.343 13.1609 24.2708 6.15574 24.2484 3.98448C23.7432 3.81039 23.2091 3.16065 22.3721 0.64908C22.3008 0.433596 22.2351 0.217236 22.1751 0C19.7318 0.166212 12.337 0.557761 10.2965 0.664846C10.5685 1.12209 10.9929 1.65949 11.8437 2.22842Z" fill="#0057B8"/>
</svg>