<svg xmlns="http://www.w3.org/2000/svg" width="32" height="32" viewBox="0 0 32 32" fill="none">
  <path d="M8.62766 16.6019C8.76979 17.2013 8.7989 17.352 8.80404 17.4581C8.80404 17.5129 8.79718 17.602 8.77407 17.8751C8.61738 19.7048 8.59855 20.7931 8.71756 21.1116C8.87511 21.5311 8.93845 22.1116 8.99924 22.6733C9.04633 23.1014 9.09514 23.5501 9.17562 23.7564C9.43677 24.4191 9.35285 24.759 9.21415 25.3224L9.20646 25.3524C9.20646 25.3687 8.75181 27.0879 8.43587 27.4407C7.76631 28.1933 7.29282 28.9116 7.25686 29.2284C7.17124 30.0127 7.01884 31.518 7 32C7.62418 31.8425 8.58056 31.5582 8.81516 31.4674C9.00419 31.3864 9.1727 31.2641 9.30834 31.1095C9.5652 30.8527 9.88971 30.5299 10.5927 30.5718C11.0456 30.5984 11.3632 30.8492 11.6201 31.0513C11.9549 31.315 12.0859 31.3989 12.377 31.2688C12.4772 31.2234 12.5294 31.113 12.6253 30.8715C12.7546 30.5419 12.9515 30.0436 13.5894 29.8929C14.1083 29.7704 14.4713 30.0641 14.711 30.2627C14.9508 30.4614 14.9953 30.4717 15.0715 30.4434C15.3403 30.3415 15.3891 30.142 15.4499 29.6377C15.5107 29.1334 15.6058 28.3534 16.5125 28.1368C17.0262 28.0135 17.4732 28.2832 17.8679 28.5212C18.2763 28.7678 18.5426 28.9099 18.7943 28.8106C19.5555 28.5101 20.362 26.6487 20.7952 25.6478C20.9048 25.396 20.999 25.1786 21.0838 24.9988C21.1453 24.8128 21.1847 24.6203 21.2011 24.4251C21.2576 24.0116 21.3158 23.5834 21.5787 23.3043C21.8921 22.9704 22.1866 22.7983 22.6061 23.0475C22.637 23.07 22.6721 23.0859 22.7094 23.0943C22.7466 23.1027 22.7852 23.1034 22.8228 23.0963C23.113 23.068 23.6387 22.8779 24.1071 22.5269C24.5352 22.2092 24.7689 21.8565 24.7432 21.5851C24.719 21.4376 24.6639 21.297 24.5814 21.1724C24.4151 20.9107 24.3209 20.6097 24.3083 20.2999C24.3133 20.0996 24.3488 19.9012 24.4136 19.7117C24.4751 19.5532 24.5042 19.3841 24.4992 19.2142L22.0582 0L10.0712 1.04714C9.30833 1.5994 8.53005 1.98897 8.08995 2.03777C8.11992 4.96944 8.21153 13.91 8.21753 14.4742C8.21496 14.8612 8.47354 15.9546 8.62766 16.6019Z" fill="#0057B8"/>
</svg>