<svg xmlns="http://www.w3.org/2000/svg" width="32" height="32" viewBox="0 0 32 32" fill="none">
  <path d="M0.0331783 11.945L0.0908259 11.9832C0.281732 12.1075 0.49509 12.2827 0.607388 12.7476C0.642993 12.8798 0.658895 13.0165 0.654562 13.1534C0.972351 13.6081 1.14227 14.1498 1.14119 14.7046C1.14119 15.1156 1.4616 15.4981 1.7678 15.8687C2.0463 16.2056 2.30982 16.5245 2.33378 16.8884C2.36293 17.176 2.40741 17.4619 2.46704 17.7448C2.55014 18.185 2.63624 18.6432 2.63999 19.028C2.64448 19.5012 2.76725 19.7243 2.81591 19.7602C3.28082 19.7602 3.44778 20.3322 3.55933 20.9513C3.6342 21.3548 3.66937 21.7524 3.67761 21.8497C3.81461 22.5399 4.11033 24.1383 4.0145 24.5755C4.00851 24.6197 4.03397 24.8443 4.22712 25.3032C4.30199 25.4747 4.37686 25.6281 4.43675 25.7464C11.3453 25.5615 21.4723 25.2523 22.9531 25.1078C23.0549 24.9729 23.2014 24.8787 23.3664 24.842C23.4412 24.8248 24.136 24.6721 24.681 24.7986C25.226 24.9251 25.914 25.7981 26.2188 26.2353C26.2375 25.396 26.3797 25.0996 26.4913 24.9484C26.6575 24.7238 26.9097 24.6489 27.1126 24.5927C27.4031 24.5104 27.4158 24.4842 27.4286 24.3756C27.4763 24.0165 27.5676 23.6646 27.7003 23.3275C27.895 22.8214 28.0365 22.6762 28.1495 22.6171C28.2536 22.5167 28.4654 22.1918 28.4931 22.0728C28.4931 21.8871 28.4812 21.7269 28.1338 21.6296C27.2661 21.387 27.2489 20.6279 27.2489 20.5957V20.5732V20.5508C27.3986 19.2309 28.8158 18.8985 29.42 18.754C29.4948 18.7368 29.5847 18.7151 29.6154 18.7046C29.7963 18.6078 29.9713 18.5003 30.1394 18.3827C30.2757 18.2929 30.4307 18.1903 30.6156 18.0742C30.8402 17.9328 30.8454 17.9043 30.8776 17.6857C30.8951 17.5595 30.9201 17.4345 30.9525 17.3114C31.0363 16.9984 31.2639 16.7955 31.4653 16.6174C31.6951 16.4122 31.9145 16.2191 31.9856 15.844C32.0987 15.2616 31.511 14.7472 31.4323 14.6814C29.9126 13.6639 29.4409 12.681 29.1287 12.0296C28.854 11.4554 28.7731 11.3199 28.3547 11.3124C26.897 11.287 26.7308 10.7315 26.6739 10.0637C26.6672 9.98882 26.662 9.92068 26.6522 9.85181C26.6275 9.67812 26.5437 9.56882 26.3969 9.39214C26.2157 9.17278 25.9904 8.89952 25.9717 8.43611C25.953 7.97269 26.1401 7.64853 26.2906 7.39399C26.3834 7.23602 26.4568 7.11174 26.4658 6.98447C26.477 6.82052 26.1701 6.65207 26.0541 6.58844C26.0025 6.56283 25.9536 6.53224 25.908 6.4971C25.8429 6.4417 25.7583 6.37133 25.6962 6C22.2015 6.34737 3.61099 6.76512 0.636596 6.83025V6.83998L0.0713603 6.84597C0.140275 6.91156 0.194818 6.99074 0.231545 7.0785C0.268273 7.16626 0.286374 7.26069 0.284715 7.35581C0.284715 7.4726 0.289215 7.53698 0.292958 7.61184C0.298199 7.71366 0.303434 7.82821 0.306429 8.08649C0.306429 8.14938 0.319168 8.17034 0.394033 8.27215C0.525047 8.44884 0.721945 8.71535 0.658309 9.29556C0.641459 9.56639 0.546252 9.82649 0.384291 10.0442C0.300442 10.164 0.227827 10.2688 0.219592 10.7442C0.209859 11.3341 0.134999 11.552 0.000242076 11.7369C-0.000630789 11.7739 0.000855701 11.8109 0.00472009 11.8477C0.00851412 11.8816 0.0181487 11.9145 0.0331783 11.945Z" fill="#0057B8"/>
</svg>