<svg xmlns="http://www.w3.org/2000/svg" width="32" height="32" viewBox="0 0 32 32" fill="none">
  <path d="M32 24.1953H30.9994H29.9987H28.9981H27.9974H23.9949H22.9942H21.9936H20.993H19.9923L18.9917 24.1782L17.9945 24.1577L16.9904 24.1372L15.9898 24.1133L14.9925 24.0826L13.9953 24.0519L12.9913 24.0211L11.994 23.987L10.9934 23.9494L9.99274 23.9084L8.9921 23.8674L7.99488 23.823L6.99423 23.7752L5.99701 23.7274L4.99637 23.6728L3.99573 23.6216L2.99509 23.5635L1.99787 23.502L1.00064 23.4406L0 23.3757L0.0648888 22.3511L0.126359 21.3266L0.191248 20.302L0.256137 19.2775L0.321025 18.2529L0.382496 17.2284L0.447385 16.2209L0.512273 15.1964L0.573744 14.1718L0.638632 13.1473L0.703521 12.1227L0.764991 11.0982L0.82988 10.0736L0.894769 9.04909L0.959658 8.02455L1.02455 7L1.892 7.05805L2.75944 7.1127L3.62689 7.16392L4.49775 7.21515L5.36521 7.26296L6.23607 7.31078L7.10694 7.35517L7.97439 7.39957L8.84183 7.44055L9.7127 7.47812L10.5801 7.51568L11.4544 7.54984L12.3219 7.58057L13.1927 7.61131L14.0602 7.64204L14.9311 7.66595L15.8019 7.69328L16.6694 7.71377L17.5402 7.73426L18.4111 7.75133L19.282 7.76841L20.1494 7.78548H21.0237H21.8911H22.762H23.6329H27.9701H28.718L29.6811 8.46851H29.9338L30.231 8.35582L30.4564 8.51291L30.6134 8.94322V9.16179H30.4154L30.1729 9.42134L29.8826 9.93362L29.9612 10.4117L30.4085 10.8523L30.7057 11.2963L30.8593 11.7505L31.1565 12.092L31.8156 12.4608V12.6657V13.3693V14.0762V14.7763V15.4798V16.1833V16.8869V17.5904V18.2939V18.9974V19.701V20.4045V21.108V21.8115V22.515V23.2186L32 24.1953Z" fill="#0057B8"/>
</svg>