<svg xmlns="http://www.w3.org/2000/svg" width="32" height="32" viewBox="0 0 32 32" fill="none">
  <path d="M28.5263 10.5012L28.6458 10.6343L28.8096 11.4191V11.5794L28.714 11.9207L28.7481 12.0913L28.9085 12.3404L29.4511 12.8932L29.5295 13.1252L29.7445 13.3368L29.9492 13.678L30.543 14.3604L31.3858 14.8654L32 14.9405L30.5907 16.4794L29.9083 17.0595L29.26 17.544L29.2122 17.6157L29.1133 18.0559L28.7413 18.4858L28.5298 18.9124L27.9326 19.3286L27.5402 19.8405L26.4585 20.4206L25.8375 20.6628L25.4348 20.9768L25.4041 20.9938H25.3734L25.3427 21.0109L25.3086 21.028L25.2779 21.045L25.2472 21.0621H25.213L25.1823 21.0791L23.6775 21.2293L22.1727 21.3726L20.6714 21.5091L19.1666 21.6387L17.6618 21.765L16.1535 21.8844L14.6453 21.997L13.1405 22.1062L11.704 22.2802L10.2674 22.4508L8.82747 22.618L7.38749 22.7784L7.24418 22.6215H6.87224H6.28535H6.26146L6.48326 23.1572L6.53102 23.6383L5.84857 23.6963L5.09789 23.7611L4.34719 23.8226L3.59991 23.884L2.84921 23.942L2.09852 24L1.34782 24.058L0.487948 24.1194L0.682449 23.6315L0.873533 23.4916L0.962255 23.4609L1.18745 23.5291L1.29323 23.553L1.51162 23.3687L1.6754 22.8671L1.75388 22.3451V21.8025L1.58668 21.3794L1.51843 21.1167L1.62763 20.7754L1.96885 20.3114L2.71613 20.2397L3.85925 20.5571L4.48028 20.6219L4.57581 20.4376L4.52122 20.1305L4.31306 19.6972L4.22775 19.3559L4.26189 19.1307L4.69183 18.8441L5.51759 18.4824L5.84176 18.0798L5.65748 17.6259V17.1994L5.86223 16.7968L5.98507 16.6876L6.06354 16.6193L6.2717 16.6671L6.42524 16.6193L6.52079 16.4828L6.54809 16.2781L6.51054 16.029L6.56174 15.9642L6.6368 15.9403L6.8586 16.0529H7.09746L7.32607 15.9539L7.48305 16.0119L7.56494 16.2269L7.66047 16.2849L7.77308 16.1894L7.81744 15.9778L7.79355 15.6605L7.83791 15.6059L7.8891 15.6434L7.96416 15.739L8.14844 15.7594L8.40094 15.6468L8.76945 15.6912L9.49967 15.9915L9.81701 16.2303L10.0115 16.1211L10.1855 15.7526L10.4756 15.4421L10.8816 15.1964L11.3082 15.2408L11.762 15.582L12.0827 15.6264L12.2738 15.3773L12.3625 15.1145L12.3421 14.8381L12.4069 14.6539L12.557 14.5617L12.6048 14.4287L12.5468 14.2478L12.6526 14.1318L12.9222 14.0738L12.9563 13.9953L12.9187 13.9271V13.8895H12.9972L13.1269 13.9578L13.277 14.125L13.3726 14.3741L13.6524 14.5925L14.1199 14.7835H14.4611L14.6965 14.5959L14.8876 14.1557L15.0275 13.4732L15.2664 13.0672L15.6076 12.9409L15.8328 12.6645L15.9454 12.2414L16.1706 11.8831L16.5118 11.5931L16.6142 11.2212L16.4777 10.7673L16.6142 10.4978L17.0237 10.4125L17.283 10.4363L17.4434 10.5387L17.556 10.5831H17.6276L17.7675 10.5285L17.9313 10.4193L18.7025 10.0235L19.0915 9.70612V9.43656L18.9959 9.27959L18.7912 9.23524L18.74 9.12945L18.8356 8.96908L18.8185 8.77799L18.682 8.5562L18.7503 8.31393L18.8083 8.25592L19.0198 8.05119L19.2621 8L19.4805 8.16038H19.7603L20.1015 8.02389L20.4427 8.04778L20.784 8.22521L21.1252 8.59374L21.4664 9.1431L21.9885 9.43997L22.6948 9.47751L23.2305 9.64129L23.5922 9.93133L23.8652 9.99958L24.1484 9.77779L24.4624 9.6447L24.8036 9.70612L25.2745 9.92451L25.9126 9.77095L26.7042 9.24888L27.2058 9.1977L27.4208 9.61741L27.8507 10.0235L28.4956 10.4227L28.5263 10.5012ZM0.303674 24.1502L0 24.1809V24.116V23.9659L0.0204726 23.8976L0.0818905 23.8806H0.153534L0.262729 24.0137L0.303674 24.1502Z" fill="#0057B8"/>
</svg>