<svg xmlns="http://www.w3.org/2000/svg" width="32" height="32" viewBox="0 0 32 32" fill="none">
  <path d="M27.5775 20.92L27.1849 21.1337L24.9344 20.5754L24.3457 20.039L23.8528 19.9474L23.2509 19.9168L22.6534 20.6627L22.2173 21.6483L23.0241 22.1237L23.7045 22.3287L24.7861 22.0496L25.3619 21.5437H25.8547L26.0859 21.4346L26.2865 21.1729L26.7226 21.3343L26.7488 21.5262L26.4697 21.8141L26.1077 22.067L25.894 22.3462L26.365 22.8565L27.0541 22.9873L27.3071 22.8957L27.4205 22.2764L27.8086 21.8403L28.38 21.8839L28.3189 22.1325L28.4149 22.3593L28.7027 22.7343V23.3057L28.7638 23.4365L28.1706 23.7331L27.7345 23.8509L27.3943 24.2042L27.5993 24.3786L27.2373 24.5705L26.98 24.5225L26.8578 24.5923V24.7973L26.6747 24.9936L26.9974 25.5388L27.5993 25.8615L28.0354 26.2977L29.7146 26.7818L30.1071 26.7338L30.5433 27.3139L30.8747 27.5014L31.1844 27.5843V28.0204L30.6698 28.3693L30.552 28.7444L30.4299 28.9625L30.1682 28.7183L29.9021 28.5482L29.3657 29.1631L29.0953 29.3071L29.1912 28.679L28.9557 28.4522L28.5806 27.8547L28.0703 27.5058L27.7214 27.4011L27.4423 27.1787L27.1195 27.1045L26.8491 27.1481L26.3824 27.0391L26.3257 26.712L26.1818 26.4721L25.8024 26.2061L24.0578 25.7699V25.9967L24.1886 26.1625L24.4416 26.2628L24.7513 26.4634L24.7949 27.122L24.6858 27.4098L24.6553 27.8111L24.5681 28.2211L24.3805 28.5525L23.9444 28.8011L23.7263 28.6354L23.3338 27.7849L22.8453 27.5407H22.0908L21.5936 27.7675L21.0091 28.6398L20.573 28.8055L19.0072 28.4522L17.2147 27.8852L17.2496 27.6584L17.52 27.5712L18.0564 27.6366L18.0128 27.4098L17.4327 26.6946L17.315 26.3674L17.3673 25.9531L17.1885 25.9749L16.8832 26.3325L15.7492 26.097L15.4265 25.7656L14.7243 24.8148H13.7996L13.3635 24.2434L12.6221 24.5225L12.2557 24.8148L11.9373 25.2509L12.0769 25.469L12.4258 25.8048L12.2819 25.9836L11.2133 26.2758L8.70111 26.097L7.95965 25.8615L6.96089 25.3381L5.59139 24.9325L4.93717 24.8802L4.3004 24.9892L2.43806 25.0852L2.00192 25.216L1.63991 25.4166L1.39567 25.2073L1.27792 24.8322L1.49162 24.7668L1.72715 24.5356L1.93649 24.0995V23.8334L1.77948 23.6633L2.16764 22.9568L2.2636 22.7082L2.16764 21.5262L1.9801 21.0901V20.8458L2.15456 20.1916L2.11096 19.5985L2.42498 18.8788L2.65614 18.5037L2.91346 17.7318L2.96143 17.2389L3.12717 16.8638L3.03993 16.4669L3.22312 16.1791L3.08355 15.7778L3.03122 15.2457L2.79569 15.0495L2.35955 14.2775V13.9329L1.9234 13.2089V12.956L1.48726 12.5852L1.40004 12.3454L1.34334 11.3291L1.22558 11.0326L0.859207 10.4612L0.0218153 9.63254L0 8.76025V7.88796V7.01567V6.14338V5.27109V4.3988V3.52651V2.65422L1.05111 2.62804L2.09787 2.60187L3.14897 2.57135L4.19573 2.54082L5.24248 2.51028L6.29359 2.4754L7.34033 2.43615L8.39145 2.39688L9.43818 2.35763L10.4849 2.31403L11.5361 2.26604L12.5828 2.21807L13.6296 2.17009L14.6807 2.11775L15.7231 2.06542L16.8657 2L16.9181 2.33583L17.2103 2.52337L17.2452 2.88537L17.0228 3.42619V3.79255L17.2932 3.98446V4.20689L17.0228 4.45114L16.9922 4.69973L17.206 4.95707L17.3106 5.26673V5.62L17.5941 6.05615L18.0303 6.33092L18.3138 6.66675L18.3487 6.85429L18.3792 7.03311L18.3312 7.29043L18.0172 7.68733L17.7773 7.97518L17.629 8.08422L17.5505 8.27613V8.6861L17.2016 9.22257L16.4689 9.86805L15.9978 10.6575L15.7928 11.5952L15.5617 12.1971L15.2956 12.4675L15.0339 12.9385L15.0688 13.6582L14.9118 14.0638L14.5585 14.1554L14.5018 14.5915L14.7461 15.3286L14.6763 15.6426L14.4408 15.9V16.0962L15.8713 16.0308L17.3063 15.9567L18.7412 15.8781L20.1761 15.7953L21.6154 15.708L23.0503 15.6208L24.4852 15.5249L25.9245 15.4289L25.8024 16.2401L25.4535 17.3479V17.6315L25.5843 17.9716V18.1723L25.7631 18.4558L26.1295 18.7262L26.4653 19.1623L26.7881 19.9343L26.884 20.2963L27.1457 20.7891L27.2678 20.8764L27.4379 20.9243L27.5775 20.92ZM29.4267 21.5437L29.4747 21.8664L29.1651 21.7268L28.7289 21.7487L28.9165 21.6222L29.0429 21.5044L29.104 21.3823L29.6274 20.9461L29.4922 21.2515L29.4267 21.5437ZM31.9738 23.2883L31.8212 23.5238L31.904 22.4509L31.6031 21.5786L31.8822 21.9537L32 22.4116L31.9738 23.2883ZM31.6511 23.9774L31.3501 24.3699V24.2303L31.5639 23.8465L31.7252 23.6895L31.6511 23.9774ZM14.0744 26.555L13.8563 26.664L12.8183 26.1058L12.7442 25.8484L13.2327 25.5911H13.538L14.0308 25.8746L14.2096 25.9531L14.2968 26.0752L14.2576 26.2671L14.0744 26.555Z" fill="#0057B8"/>
</svg>