<svg xmlns="http://www.w3.org/2000/svg" width="32" height="32" viewBox="0 0 32 32" fill="none">
  <path d="M11.4913 1.47659L11.5525 1.60765L11.8364 1.7955L12.1903 1.87413H12.4349L12.7014 1.79113L13.3261 1.23195L14.1125 0.7514L14.5188 0.401917L14.545 0.183487L14.7372 0.0524277L15.0954 0L15.8774 0.279597L16.8385 0.760139L17.5986 1.13584L17.9306 2.11003L18.2758 3.14102L18.6427 4.22881L18.9005 5.00642L19.2543 6.07236L19.5427 6.9155L19.914 8.02075L20.1149 8.61051L20.2504 8.75468L20.2766 9.00369V9.13038L20.3115 9.21775L20.3858 9.3226L20.4295 9.4886L20.4033 9.65898V9.84246L20.4819 10.1264L20.6173 10.2706L20.7877 10.3274L20.9013 10.2924L21.0804 10.3448L21.3294 10.4628L21.6702 10.524L21.9847 10.4803L22.1813 10.3754H22.4653L22.6313 10.5982L22.6618 10.8429L22.5526 11.0001L22.4303 11.1356L22.4609 11.319L22.5963 11.4807L22.7579 11.6074L22.972 11.8564L23.007 12.1229L22.9633 12.3675V12.599L23.1162 12.7563L23.4438 12.9223L23.6753 13.1145L23.9637 13.167L24.0467 13.0359L24.0991 12.8786L24.169 12.7563H24.5753H24.8156L24.8549 12.966L25.0995 13.2631L25.4141 13.8834L25.3573 14.2285L25.5189 14.613L25.9907 14.5824L26.1349 14.6654L26.2048 14.8008L25.5757 16.1114L24.702 16.2381L24.3481 16.6487L23.9113 16.8759L23.8545 17.3914L23.6317 17.5661L23.2734 17.6492L22.9327 17.6186L22.7186 17.7584L22.6575 18.6714H22.3735V18.999L22.2774 19.1694L22.107 19.3442L21.8187 19.0384L21.6003 18.7326L21.408 18.7107H21.1634L20.9406 18.785L20.8052 18.8811L20.6872 19.1607L20.4775 19.4359L20.2242 19.3442L19.9839 19.1388V19.5757L19.9184 20.0694L20.1062 20.563V20.8907L19.8921 20.8688L19.6213 20.6635L19.0272 20.6154L18.5903 20.764V20.4582L18.8655 19.9296L18.717 19.8902L18.5422 20.0082L18.4374 19.9776L18.4636 19.567L18.35 19.1607L18.219 19.3573L18.1272 19.8553L17.6904 20.362L17.8913 20.9212L17.7341 22.2318L17.8607 22.7386L17.6554 23.2322L17.3322 23.704L16.7337 23.7783L16.3885 24.2152L16.2706 24.6214L16.0958 24.7306L15.8643 24.3244L15.7507 24.2152L15.7857 24.901L15.6328 24.9884L15.4362 24.5515L15.2702 24.2763L15.1216 24.5996L15.1784 25.3292H15.0081L14.8813 25.0932L14.7503 25.0496L14.794 25.351L14.9731 25.7442V25.9844L14.7852 25.9145L14.5712 25.7616L14.3615 25.9844L14.1431 26.1155L14.0819 25.9145L14.0557 25.6568L13.6188 25.932L13.182 26.548L12.9242 27.3038L13.1077 27.3605L13.3392 27.5135L12.8587 28.7061L12.3913 29.8463L12.2078 31.4452L12.0199 31.6811L11.8889 32L11.321 31.4889L11.1025 31.0083L10.4909 30.5365L10.2026 30.1783L10.0147 29.7414L9.90116 29.239L9.65652 28.5095L9.41188 27.7799L9.16724 27.0504L8.91822 26.3208L8.67358 25.5913L8.42894 24.8617L8.1843 24.1278L7.93966 23.3982L7.69065 22.6687L7.44601 21.9391L7.20137 21.2096L6.95672 20.48L6.71208 19.7504L6.46744 19.0209L6.21843 18.287L6 17.636L6.08735 17.505L6.3189 17.2341L6.51549 17.2079L6.75576 17.4482L6.93923 17.6011L7.07903 17.5006L7.13583 17.1948L7.02661 16.8279L7.13583 16.5133L7.34116 16.4128L7.5421 16.3648L7.60327 16.2075L7.5421 16.0284L7.38921 15.7619L7.31493 15.4037L7.63385 14.6436L8.12313 14.0451L8.27165 13.7742L8.21051 13.3373L8.43331 12.7956L8.52941 12.4898V12.2583L8.35903 12.0137L8.21488 11.4894L8.15372 10.8341L8.1013 10.1177L8.24109 9.41434L8.56874 8.59741L8.44641 7.68874L8.31098 6.6927L8.67358 5.61365L9.07549 4.38608L9.30703 3.6871L9.71331 2.42021L9.99725 1.5159L10.1545 1.07904L10.2987 0.589764H10.7749H11.2467L11.3646 1.20137L11.4913 1.47659ZM21.6352 19.9165L21.3993 20.1349L21.0804 20.1742L21.194 20.5237V20.6591L20.8008 20.5849L20.6435 20.5062L20.5081 20.0431L20.6654 19.5102L20.8401 19.2699L21.1678 19.2961L21.5478 19.733L21.6352 19.9165ZM19.8484 21.4717L19.7087 21.6595H19.5033L19.3941 21.3319V21.2052L19.4465 21.1353L19.5776 21.1965L19.8484 21.4717Z" fill="#0057B8"/>
</svg>