<svg xmlns="http://www.w3.org/2000/svg" width="32" height="32" viewBox="0 0 32 32" fill="none">
  <path d="M24.4836 8L24.855 9.34142L25.2264 10.6828L25.5978 12.0243L25.9692 13.3657L26.335 14.7016L26.7064 16.043L27.0778 17.3844L27.4547 18.7203H27.5767L28.2584 18.5706L29.744 18.2269L31.2295 17.8777L31.9446 17.7059L32 17.9553V18.3489L31.8781 18.5318L31.7949 18.1549L31.6563 18.0495L31.5122 18.2546L31.4401 18.4653L31.5621 19.2136L31.5233 19.6071L31.1076 19.8233L30.8858 20.8876L30.5976 21.5306L30.5256 21.9131L29.9103 22.1459L28.9292 22.5117L28.7518 22.9551L28.1975 22.9053L27.4214 23.0993L27.4491 22.545L27.5711 22.035L27.0612 21.6692H26.8062L26.5124 21.5417L26.7175 21.0927L26.7729 20.6548L26.5734 20.1781L26.6122 19.7845L26.4237 19.8843L26.1854 20.3499L26.0191 20.5495L25.8195 20.2335L25.692 20.3388L25.6532 20.5994L25.4758 20.7767L24.9659 20.5495L24.2453 20.3167L23.7408 19.7623L23.4304 19.3078V18.36L23.8351 18.105H24.4448L25.1932 17.9387L25.0435 17.7613L24.7829 17.85L23.8296 17.2957L23.4803 16.9077H23.0147L22.9094 17.3788L22.7098 17.5396L22.7819 16.5474L23.1311 16.431L23.5968 16.0541L23.3251 15.5496L22.9426 15.3889L22.3883 15.8157L22.3108 15.4388V14.9288L22.7598 14.829L23.1921 14.9011L23.3584 14.0475L23.2974 13.6927L22.8484 14.3191L22.4826 13.2548L22.7986 12.0741L23.2198 11.5198L23.8739 11.3868L24.5224 11.1595L24.0568 11.0653H23.6078L23.8407 10.5775L24.0956 10.4445L24.2785 10.0177L23.6522 10.2172L23.569 9.50771L23.2863 9.71835L22.926 9.86802L22.8429 10.1895L22.9815 10.6662L22.9426 11.0099L22.7098 11.3314L22.2553 11.6363L22.1334 11.3037L21.9338 11.1873L22.0392 11.9356L21.9615 12.2183L21.4516 11.603L21.3684 11.7693L21.4239 11.9633V12.3236L21.1467 12.5675L21.2631 12.9998L21.1966 13.2659L20.088 13.1052V13.2382L20.8307 13.9366L21.3019 14.1251L21.4516 14.5574L21.18 15.0064L20.6257 14.7958L20.5481 14.8346L20.9306 15.3224L21.2022 15.7658L21.119 16.2037L21.2576 16.6915L21.313 17.1516V17.5618L21.9449 19.3134L22.3385 19.7402L22.7209 20.1448L22.9704 20.5495L22.6821 20.6825L22.1278 20.4275L21.7121 20.1337L21.0137 19.3632L20.8585 19.0307L20.6756 18.7812L20.8751 19.4021L21.2022 20.0783L23.1256 21.3255L23.5524 21.8798L23.8794 22.3066L23.9238 22.7833L23.4415 22.545L22.9925 22.2068L21.956 21.9408L20.7033 21.902L19.7997 20.9541L19.8995 21.4031L19.833 21.8244L19.3231 21.4419L18.9794 21.0927L18.802 20.6714L18.2976 20.81L17.8486 21.3089H17.2943L17.0781 20.5772L17.1335 20.1504L17.516 19.0972L17.9595 18.5041L18.0703 17.8389L17.7876 16.9021L18.0094 17.595L18.4528 16.7691L17.9539 16.2979L17.4883 15.8656L17.0781 16.564L16.5737 16.4421L15.6813 15.8878L14.3731 15.6272L14.1458 15.4055L14.1126 15.1228L14.1902 14.696L13.7412 14.3911L12.7656 14.1971L12.3166 13.9588L12.2224 13.9089L12.106 13.5209L11.9397 13.2992L11.7235 13.2326L11.6515 13.0719L11.7235 12.8114L11.5517 12.5897L11.1304 12.3956L10.9586 12.185L11.0306 11.9577L10.8256 11.8968L10.3489 12.0132L9.83336 11.9134L9.27906 11.6085L8.72475 11.6529L7.85449 12.246L7.33899 12.4511L7.14496 12.7227L7.10619 13.1384L6.90662 13.3768L6.35231 13.4876H6.26364L5.63727 13.4821L5.16612 13.3213L5.06632 13.2326V13.0165L4.9721 12.9389H4.83352L4.7393 13.083L4.68388 13.471L3.82468 14.6738L3.27038 14.5685L3.08193 14.6129L1.88462 16.2758L1.48553 16.5862L0.742749 17.3844L0.559853 16.2758L0.371375 15.1672L0.188445 14.0586L0 12.95L1.54095 12.6617L3.07084 12.3735L4.60627 12.0852L6.19157 11.8192L7.72146 11.5198L9.2569 11.2205L10.7867 10.9101L12.3166 10.5997L13.8465 10.2837L15.3764 9.96779L16.9063 9.64075L18.4306 9.31372L19.955 8.98113L21.4793 8.64854L23.0036 8.31043L24.4836 8ZM31.5122 21.5084L31.3348 21.5749L31.4457 21.2368L31.7118 19.6681L31.8614 19.1138V20.1781L31.6231 21.2091L31.5122 21.5084Z" fill="#0057B8"/>
</svg>