<svg xmlns="http://www.w3.org/2000/svg" width="32" height="32" viewBox="0 0 32 32" fill="none">
  <path d="M20.0363 7V7.63158L20.4356 8.12522L20.755 8.66968L21.2922 9.14156L21.6261 9.10526L21.9383 8.90199L22.1996 8.85844L22.4319 9.05444V9.3666L22.0544 9.55534L21.4592 10.2813L20.8711 10.6661L20.7187 11.392L20.4356 12.2414L19.7967 13.6279L20.3049 13.853H21.8875L22.6134 14.0635L24.2032 15.8639L24.0363 16.1397V16.5463L25.0744 16.8294L25.8003 18.2813L26.6715 18.5789H27.8548L29.0526 17.7441L29.9673 16.7931L29.7786 16.2994L28.7404 15.3194L28.4138 14.8112L27.7894 14.6007L27.6878 14.9637L27.2378 14.6661L27.1361 14.4555L27.412 14.2595L27.7822 14.1942L28.2686 14.274L29.7205 15.2541L30.519 16.8584L30.8965 17.9111V18.3176H30.5626L29.9818 18.5644L27.2885 19.951L26.7949 20.6261L25.4882 21.5771L25.3212 21.3376L25.2704 20.7641L24.8566 19.6606L24.559 19.6969L22.8094 22.1797L21.9673 22.5354L21.3793 23.2613L21.1325 23.0072L20.5953 21.6134L20.7259 20.3285L20.4864 20.4156L20.1452 20.9601L19.7314 20.5463L19.3539 20.3648L18.9837 20.1906L18.8748 19.7695L18.715 19.1379H18.3376L18.0907 18.412L17.9238 17.9256L17.3067 18.1071L16.7986 18.2523L15.9782 18.4918L15.1361 18.7387L14.5191 18.9201L14.4755 18.804L13.4809 19.0581L12.4937 19.3049L11.4991 19.559L10.5118 19.8058L9.51723 20.0526L8.52268 20.2994L7.52812 20.539L6.53357 20.7858V21.0544L6.18513 21.1851L6.09802 20.8947L5.37207 21.0399L4.64611 21.1924L3.92016 21.3448L3.19421 21.49L2.46826 21.6425L1.7423 21.7876L1.01635 21.9401L0.290399 22.0853L0 21.8675V20.8657V19.8639V18.8621V17.8602V16.8584V15.8566V14.8548V13.853L0.82033 13.6788L1.63339 13.5045L2.44646 13.3303L3.26679 13.1488L4.07985 12.9673L4.89291 12.7858L5.71324 12.6043L6.52631 12.4229L7.70235 12.1543L8.87838 11.8857L10.0544 11.6098L11.2305 11.3339L12.3993 11.0508L13.5753 10.775L14.7441 10.4918L15.9201 10.2087L16.5444 9.7078L17.147 8.59709L17.6043 8.27042L18.3303 7.54446L18.7078 7.31941L20.0363 7ZM27.216 22.9201L25.0816 24.118L24.617 23.8711L25.1397 23.5517L25.6261 22.5136L26.0762 22.2813L26.9619 22.5354L27.216 22.9201ZM32 22.8548L31.412 23.2178H29.8076L30.9256 22.4918L31.0926 22.3103V21.7586L31.0345 21.4973L31.8185 22.4555L32 22.8548Z" fill="#0057B8"/>
</svg>