<svg xmlns="http://www.w3.org/2000/svg" width="32" height="32" viewBox="0 0 32 32" fill="none">
  <path d="M5.58744 1.40216V1.4886L5.71548 1.50461L5.69627 1.54622L5.56503 1.63585L5.19367 1.82153L4.93757 1.89196L4.79992 1.84714L4.78071 1.7415L4.87354 1.57823V1.5014H4.76791L4.78712 1.44058L4.93757 1.30933L6.21808 0.432175L6.76871 0.112047L7.06961 0L7.12085 0.0384187L6.80072 0.358547L6.7559 0.480192L6.7751 0.557025L6.67907 0.720288L5.73789 1.34774L5.58744 1.40216ZM8.43977 4.84994L8.38856 5.01961L8.41095 5.11885L8.02361 5.58944L7.89235 5.87755L7.76751 5.93198L7.64907 5.7527V5.60224L7.7451 5.4806L7.83473 5.30772V5.08363L7.7899 5.0068L7.67787 5.21809L7.75149 5.2533L7.7771 5.28532L7.7579 5.36214L7.26491 5.29492L7.10484 5.15086V4.92997L7.2457 4.63546L7.7771 3.9952L8.02041 3.80632L8.72469 3.48619L9.12165 3.39016L9.52501 3.35174L9.82593 3.41257L10.0212 3.56623L9.86114 3.69748L9.07362 3.86395L9.05441 3.89916L9.21448 3.97919L9.24971 4.04322L9.12485 4.22889L8.43977 4.84994ZM22.3013 6.9948L22.4166 7.04602L22.503 7.15166L22.7271 7.43978L22.8455 7.64146L22.9416 7.96159L22.9928 8.06083L23.012 8.2433L22.9064 8.38736L22.8839 8.4898L22.9704 8.57623L23.3898 8.55062L23.5914 8.62425L23.6779 8.72349L23.6491 8.85154L23.6907 8.97639L23.8123 9.09804L24.1709 9.26131L24.2669 9.34774V9.45339L24.1773 9.53342L24.0044 9.58784L22.7015 9.56223H22.3237L22.2757 9.64226L22.2437 9.65827H22.1797H22.0708L22.01 9.61985L21.946 9.495L21.8243 9.42777H21.6451L21.5042 9.54302L21.3761 9.94958L21.4114 10.0168V10.2665L21.4658 10.3273V10.385L21.4242 10.4394H21.3185L21.1521 10.401L20.4798 9.89196L19.9932 9.65827L19.4042 9.51101L18.9464 9.45978L18.6262 9.5014L18.3637 9.67107L18.1845 9.9912L17.8643 10.1961L17.4226 10.2857L17.1857 10.3914L17.1633 10.5098L17 10.5322L16.7055 10.4522H16.4046L16.1068 10.5322L15.8988 10.6731L15.7035 11.0572L15.6747 11.2397L15.521 11.4094L15.092 11.7007V11.7903L14.8807 12.088L14.8231 12.2481L14.8391 12.3954H14.7559L14.5798 12.2449L14.551 12.024L14.6695 11.7263L14.7879 11.5758H14.9064L14.964 11.4446V11.1853L14.9096 11.0604L14.6887 11.1373L14.583 11.2525L14.4326 11.2877L14.2469 11.2461L14.0996 11.403L13.9972 11.7583L13.8531 11.9952L13.6707 12.12L13.5298 12.0176L13.4306 11.6975L13.4018 11.4318L13.4466 11.1116L13.4018 11.0508L13.3313 11.1597L13.2353 11.4414L13.1328 12.04L13.0432 12.2385L12.912 12.3345L12.7231 12.7059L12.4766 13.3621L12.1917 14.0024L11.8715 14.6266L11.6667 14.9628L11.5962 15.014L11.5706 15.126V15.3725L11.3913 15.3213L11.2281 15.1325L11.1224 14.9372L11.0936 14.7291L11.2569 14.1881V14.1016L11.2313 14.0568L11.1096 14.0088L10.8599 14.1241L10.6006 14.1657L10.5142 14.1401L10.4726 14.0536V13.9128L10.511 13.7431L10.6391 13.423L10.6166 13.1317L10.6711 12.9556L10.575 12.6547V12.5074L10.4502 12.3537L10.1301 12.1681L9.40016 11.912L9.44177 11.5918L9.40336 11.4574L9.21768 11.2685L8.47819 11.0924L7.97879 11.0252L7.49219 11.0604L7.14005 11.0028H6.74949L6.487 10.878L6.2277 10.7563L5.96839 10.6315L5.70907 10.5066L5.2577 10.417L4.80633 10.3241L4.35494 10.2345L3.90677 10.1417L3.45538 10.052L3.00721 9.95918L2.55902 9.86635L2.11083 9.77031L1.9988 9.56543L1.88676 9.35735L1.7747 9.14926L1.66267 8.94438L1.45458 8.86435L1.34574 8.82593L1.2593 8.71709L1.08324 8.77792L1 8.59864L1.016 8.55703L1.2465 8.493L1.88676 8.17287L2.42776 7.81113L2.86635 7.40136L3.42976 7.12605L4.11804 6.9916L4.60464 6.82193L4.88954 6.61385L5.26411 6.22649L5.47859 6.10164L5.7603 6.04722L5.96198 5.89356L6.08684 5.63745L6.33332 5.33654L6.70468 4.9908L6.92237 4.84674L6.98319 4.90116L7.01199 5.01001V5.18928L7.12405 5.31413L7.34494 5.39416L7.45057 5.51901V5.68548L7.5178 5.82313L7.66186 5.92877L7.71628 6.17847L7.68748 6.57543V6.82833L7.7451 6.93718L7.79952 7.0012L7.86994 6.93077L7.95317 6.78672L7.97879 6.70028V6.61065L8.52942 6.16567L8.64145 6.13686L8.83993 6.22009L9.73308 6.28411L10.0916 6.35454L10.479 6.54982L10.6102 6.62345L11.1257 7.31173L11.3561 7.57743L11.4906 7.64466L11.5738 7.7503L11.6571 8L11.7339 8.07043H12.3966L12.6911 7.9968L12.8607 7.87195L13.0688 7.91997L13.3153 8.13766L13.5394 8.18248L13.7443 8.05442H13.9492L14.1477 8.14726L14.2437 8.21769H14.3013L14.6374 7.81433L15.0536 7.44618L15.617 7.03642L15.9372 6.84114L16.0364 6.86995L16.5774 6.69068L17.0736 6.62665H17.7395L18.3413 6.47299L18.8759 6.17527L19.3561 5.9864L19.7851 5.90637L19.9548 5.95438L19.8683 6.12405L19.8459 6.40256L19.8843 6.78672V7.03321L19.8331 7.14206V7.23809L19.894 7.32453H20.3229L20.5598 7.42377L20.8159 7.39816L21.0848 7.2509H21.3089L21.485 7.43017H21.7123L21.9076 7.26051L22.042 7.10685L22.1637 7.03321L22.3013 6.9948ZM23.1849 7.61265V7.72149H23.0728L22.9736 7.65747L22.8872 7.54542L22.7559 7.2509L22.5894 7.05242L22.7623 6.77711L22.8807 6.7323L23.0216 6.77071L23.0568 6.91157L22.9928 7.15486L23.028 7.39176L23.1849 7.61265ZM23.3065 8.19528L23.2617 8.23049L23.0568 8.05442L23.0056 7.93918V7.83353H23.0728L23.1977 7.91037L23.2713 8.0096L23.3033 8.13126L23.3065 8.19528ZM25.6339 9.07883L25.6851 9.18768L25.6242 9.36695L25.3874 9.48539L24.8847 9.54302L24.5486 9.52381L24.3821 9.42457L24.3405 9.36695V9.2325H24.411L24.5262 9.28692L24.6831 9.2357L24.8752 9.07563L24.9744 8.96039V8.89316L24.8912 8.77471L24.9392 8.71389H25.2113L25.3233 8.78431L25.541 9.04682L25.6339 9.07883ZM22.0452 10.5482H22.5062L22.5446 10.5034L22.6919 10.6219L22.7239 10.7307L22.6823 10.8331L22.6086 10.894L22.5062 10.9164L22.3301 10.8427L22.0292 10.6219L22.0452 10.5482ZM21.3345 10.7819L21.6002 10.8427L22.0932 11.0988L22.5478 11.2269H22.9608L23.2809 11.2973L23.489 11.4382L23.6491 11.611L23.7611 11.8095L23.9724 11.8992H24.2925L24.5454 11.9568L24.7439 12.0848L25.7747 12.3409L26.2101 12.4882L26.463 12.6579L26.5462 12.7763V12.9076L26.5878 13.0388L26.7927 13.2821H26.8567L26.9144 13.4038L26.9624 13.6343L27.0328 13.7815L27.1288 13.8487L27.084 13.8872L26.7639 13.7975L26.5974 13.8615L26.543 14.044V14.2105L26.6198 14.3577L27.0712 14.7675L27.2345 15.1773L27.3241 15.6863L27.3049 15.8944L27.3241 16.3393L27.3882 17.0244L27.4138 17.2581L27.3145 17.5046L26.9944 17.8792V17.8183H26.908L26.8215 17.8792L26.7351 18.1769L26.6871 18.6987L26.591 18.9964L26.4406 19.0636L26.3573 19.1501V19.2557L26.1973 19.3485L25.8964 19.4254L25.7075 19.611L25.6114 20.072L25.6467 20.2801L25.6082 20.5522L25.6434 20.7731L25.7491 20.9492L26.0244 21.1028L26.4598 21.2309H26.6871L26.8471 21.1317L26.9816 20.8115L27.1353 20.6707L27.3401 20.5906L27.3977 20.4402L27.6571 19.7839V19.6463L27.5226 19.6142L27.5386 19.5726L27.6955 19.5246L27.8235 19.4222L27.926 19.2653L28.118 19.1309L28.6046 18.9004L28.8479 18.6795L29.0176 18.6251L29.2833 18.6859L29.6451 18.8619L29.9652 19.1501L30.2213 19.547L30.6278 20.6162L31.1881 22.3545L31.5402 23.3149L31.6811 23.5102L31.7515 23.6094L31.7003 25.0436L31.5754 25.6519L31.2553 26.0392L30.9352 26.417L30.5286 27.0188L30.0644 27.3613L29.8275 27.5566L29.7859 27.6655L29.7187 27.6431L29.6226 27.9632L29.5586 28.389V28.7091L29.629 28.8755L29.5362 29.0004L29.3762 29.2341L29.3505 29.3141L29.3793 29.4358L29.3473 29.503H29.2545L29.1937 29.5702L29.0528 29.8135L28.8319 30.425L28.7999 30.537L28.7647 30.5722L27.5194 30.7931L26.2709 31.0044L25.0256 31.2157L23.7771 31.4206L23.7387 31.126L22.5958 31.2669L21.453 31.4014L20.3101 31.5326L19.1673 31.6607L18.0244 31.7823L16.8815 31.904L15.95 32L16.1773 31.8335L16.5454 31.4622L16.7407 31.1421L16.9136 30.7355L17.0704 30.2361L17.4194 29.4774L17.5794 29.026L17.7171 28.4594L17.8035 27.8703L17.8419 27.2621L17.8195 26.6219L17.7459 25.9816L17.5762 25.3413L17.3105 24.7011L17.1697 24.381L17.1184 24.2945L16.6799 23.4974L16.1645 22.377V22.2745L16.459 21.5414V21.4486L16.3597 20.8916L16.2541 20.6194L16.0268 20.2577V20.1617L16.3469 19.6399L16.5358 19.2493L16.6959 18.7787L16.7727 18.2441V17.6743L16.7247 17.2805L16.6382 17.0884V16.9348L16.7055 16.8163L17.0928 16.6339L17.2017 16.3842V15.968L17.2625 15.7535H17.3969L17.5154 15.6543L17.6082 15.4686L17.7587 15.4014L17.9572 15.4558L18.1909 15.1709L18.4662 14.5306L18.6903 14.1721L18.8631 14.0824L18.9016 14.1337L18.8087 14.3225V14.5178L18.8759 14.7227V14.9276L18.8247 15.2157L18.8856 15.2957L18.7895 15.7567L18.8087 15.9808L18.9176 16.1409L19.0136 16.0704L19.1032 15.7663L19.1224 15.6094H19.068V15.4846L19.1256 15.2477L19.1897 15.1293H19.2601L19.2921 15.2509V15.4878L19.1609 16.0608L19.1416 16.2337L19.1929 16.2753L19.385 15.904L19.5194 15.3277L19.6186 14.8892V14.6587L19.5034 14.0696L19.4874 13.8231L19.5226 13.6503L19.7019 13.4358L20.022 13.1829L20.3421 13.0292L20.6623 12.9748L20.8896 12.8884L21.0112 12.7731L20.9536 12.6963L20.7199 12.6643L20.531 12.5554L20.387 12.3665L20.3197 12.1361V11.8671L20.4318 11.5918L20.6495 11.3069L20.7039 11.1116L20.5982 11.0028L20.6975 10.9484H21.0176L21.2257 10.8876L21.3345 10.7723V10.7819ZM18.6487 12.0784L18.5302 12.1168L18.431 12.0688V11.8287L18.5078 11.3998L18.607 11.1949L18.7799 11.2525L18.7543 11.3069L18.8375 11.7487L18.8023 11.9504L18.6487 12.0784ZM17.4034 14.7931L17.3714 14.87H17.2689L17.1825 14.8091L17.08 14.5946L17.1024 14.5402H17.3009L17.3777 14.6266L17.4034 14.7931Z" fill="#0057B8"/>
</svg>