<svg xmlns="http://www.w3.org/2000/svg" width="32" height="32" viewBox="0 0 32 32" fill="none">
  <path d="M16.0333 4.02902L16.4703 3.94708H16.8425L17.2181 3.96415L17.423 4.00171L18.0102 4.22364L18.3961 4.40803L18.956 4.74947L19.2633 4.8997L19.4238 5.27529L19.615 5.75672H19.8574L20.0248 5.46308L20.4891 5.39479L21.1037 5.56893L21.6671 6.11524L22.4627 6.58643L22.9475 6.81861L23.4289 6.79471L24.0265 6.51131L24.6479 5.9889L25.1088 5.87964L25.3888 5.91037L25.5664 6.28254L25.7678 6.41571L26.2697 6.34401H27.3248L28.1511 6.18694L28.3559 6.39522L28.5472 6.73666L28.8886 6.82202L29.3427 6.68203L30.0734 6.70593L29.9744 6.76739H29.8685L29.7354 6.85958L29.5715 7.04738L29.1891 7.32394L28.5984 7.68587L27.8916 8.02732L26.4507 8.65557L25.5561 9.277L25.184 9.61844L23.685 11.3871L22.7631 12.3329L21.2539 13.6611L21.114 13.8284V13.9787H21.0457L20.7998 14.2928L20.6974 14.4942L20.4447 14.5591L20.4755 15.3444L20.5096 16.1298L20.5403 16.9151L20.5711 17.697L20.4516 17.7823L20.2979 17.9735L20.0828 18.0248L19.0858 18.7076L18.9253 18.8988L18.7546 19.3359L18.437 19.8344L18.3619 20.0973L18.3892 20.4388L18.9117 20.7017L19.1131 20.9646L19.219 21.306V21.5928L18.9799 22.163L18.939 22.3884L18.9902 23.0713L18.8673 23.2898L18.9936 23.8361V24.0273L18.9356 24.6385L18.8843 24.8195L18.997 25.1302V25.1643L19.5023 25.5843L19.9223 25.8096L20.2979 25.8711L20.595 26.0452L20.8135 26.3321L21.1071 26.5164L21.4656 26.595L21.8378 26.8237L22.4217 27.4008L22.7221 27.9027L23.2275 28.2441L24.0333 28.5856L24.5659 28.9031L24.8254 29.1831L25.0269 29.9275L25.242 31.5186L23.9411 31.5869L22.6607 31.6449L21.3803 31.7029L20.0999 31.7542L18.816 31.7985L17.5356 31.8395L16.2518 31.8771L14.968 31.9112L13.6876 31.9385L12.4038 31.9659L11.1233 31.9829L9.84294 32H8.55911H7.2787H5.99487H4.71106V30.7845V29.5689V28.35V27.1344V25.9394V24.7204V23.5015V22.2825L4.42083 21.8796L3.78916 21.5382L3.6321 21.3436L3.33845 20.8519L3.22578 20.6402L3.20529 20.4763L3.34869 20.2988L3.92915 19.7798L4.11353 19.5373L4.20572 19.3018L4.34229 18.7623L4.29108 18.3423L4.33205 17.6936L4.21938 17.2087L4.19547 16.9629L4.12377 16.6624L3.70038 15.8668L3.60477 15.2249L3.49893 14.9108L3.47162 14.0982L3.48868 13.8694L3.57746 13.4324L3.39992 13.1319L3.37601 12.886L3.31114 10.9535L3.25651 10.6735L3.28041 9.7755L2.96628 8.82629L2.81604 8.50534L2.74434 8.11268V7.92488L2.48826 7.27614L2.32436 6.56253L2.34827 5.94793L2.30047 5.48016L2.32436 5.11823L2.28339 4.57192L2.34144 4.26462V3.78319L2 2.07597H2.44046H3.98036H5.52369H7.06359H8.60692H9.45711V0L10.2322 0.102434L10.4644 0.266325L10.5429 0.344855L10.5224 0.597525L10.5941 1.36236L10.7443 1.99744L11.0858 2.76227L11.1165 3.06274L11.2292 3.25054L11.4272 3.42126L12.1818 3.61929L13.4895 3.84123L14.2373 4.10755L14.4183 4.42509L14.7597 4.5446L15.2787 4.46948L15.6406 4.32608L16.0333 4.02902Z" fill="#0057B8"/>
</svg>