<svg xmlns="http://www.w3.org/2000/svg" width="32" height="32" viewBox="0 0 32 32" fill="none">
  <path d="M24.3056 0L24.8147 0.385939V0.95664L24.7901 2.16372L24.7614 3.3749L24.7367 4.58199L24.708 5.8137L24.6752 7.02079L24.6464 8.22787L24.6177 9.43906L24.5848 10.6461L24.5561 11.8573L24.5232 13.089L24.4904 14.3208L24.4575 15.532L24.4247 16.7431L24.3877 17.9543L24.3508 19.1655L24.318 20.3972L24.4781 21.629L24.6382 22.8607L24.7983 24.0924L24.9585 25.3241L25.1186 26.5558L25.2828 27.7875L25.4429 29.0193L25.6277 30.3577L23.9854 30.5958L23.234 30.3167L22.9302 30.2756L22.7496 30.3002L21.9284 30.6698L20.9841 30.9777L20.7542 30.9202H20.4298L19.7893 31.7701L19.3788 32L19.2392 31.9548L19.0832 31.9097L18.9641 31.8276L18.7177 31.3636L18.6274 31.0269L18.3236 30.3002L18.0075 29.8897L17.6626 29.6351L17.4943 29.3682V29.1835L17.3669 28.8591V28.4362L17.6954 27.3934L17.8104 26.6338L16.4555 26.7241L15.1047 26.8104L13.7539 26.8966L12.4031 26.9787L11.0483 27.0526L9.69746 27.1265L8.34669 27.1963L7 27.2579V27.0772L7.22173 26.835L7.28741 26.5353L7.0616 25.8414L7.11086 25.4514L7.44343 25.3611L7.59123 24.9792L7.5584 24.3018L7.66923 23.8419L7.91559 23.5915L8.13318 23.0249L8.32617 22.1381L8.76959 21.3949L9.45935 20.7914L9.79191 20.2823V19.9004L9.8617 19.7198L10.0013 19.6171L10.2271 19.3462L10.5227 18.9726L10.5679 18.7262L10.5392 18.5579L10.5104 18.3813L10.2394 18.0652L9.82885 17.8106L9.56199 17.4001V17.0675L9.46343 16.7801L9.26226 16.5378L9.291 16.2997L9.54555 16.0698V15.8645L9.29511 15.6798V15.3349L9.5004 14.8299L9.46754 14.4891L9.19247 14.3126L9.1432 13.9923L9.12268 13.8322L9.31152 12.6662L9.24584 12.5184L8.97488 12.1817L8.92558 11.7711L9.04878 11.2497L8.95433 10.8391L8.73674 10.7036L8.67514 10.5517L8.59713 10.3177L8.81475 10.0878V9.88659L8.60124 9.71414L8.71621 9.44727L9.1555 9.08597L9.27048 8.88479L9.39364 8.6795L9.44702 8.19503L9.36901 7.91174L9.24995 7.73108L9.29511 7.62844L9.38134 7.53811L9.91508 7.33283L10.0588 7.20144L10.0834 7.04953L9.88633 6.67591L10.03 6.26534L10.5063 5.82602L10.7485 5.44419V5.13215L10.9744 4.88992L11.4096 4.71748L11.6518 4.11804L11.6969 3.09161L11.8037 2.6482L12.0254 2.57019L12.1363 2.42239V2.12677L12.3949 1.80653L12.8876 1.46575L13.0724 1.15371L12.9985 0.9977V0.792414L14.3575 0.710294L15.778 0.615858L17.1945 0.521435L18.611 0.418792L20.0275 0.312039L21.444 0.201189L22.8604 0.0862292L24.3056 0ZM24.8106 31.2733L24.7449 31.3513L24.2317 31.2569L23.9156 31.1542L23.8499 31.0311L24.7162 31.1912L24.8106 31.2733Z" fill="#0057B8"/>
</svg>