<svg xmlns="http://www.w3.org/2000/svg" width="32" height="32" viewBox="0 0 32 32" fill="none">
  <path d="M19.8294 3.35735L19.6095 4.29005L19.6398 5.04835L19.8483 5.96967L20.072 6.65213L20.3109 7.10711L21.1374 7.94124L22.5555 9.16209L23.473 10.3374L23.8863 11.4749L24.3147 11.9185L24.7621 11.6569L25.3498 11.7327L25.9867 11.8844L26.3318 12.0891L26.4076 12.1649L26.4493 12.2445L26.4304 12.3318L26.3583 12.563L25.7024 14.5422L25.4863 15.4483L25.5469 15.7744L25.8919 16.237L26.5251 16.8247L27.0673 17.2038L27.5261 17.363L28.254 17.8218L29.2588 18.5801L29.7744 19.1564L29.8047 19.5697L29.9337 19.9792L30.1611 20.3962L30.1877 20.8057L30.0209 21.2076L30.1346 21.727L30.5327 22.3602L30.8588 22.7393L31.1128 22.8645H31.1659V22.8038L31.1242 22.7166L31.1052 22.6332V22.5194L31.1507 22.4739H31.1962L31.4313 22.618L31.8104 22.9555L32 23.4256V24.0284L31.9166 24.6085L31.7308 25.1659L31.4882 25.3706L31.3706 25.3441L31.1204 25.2683L31.0218 25.3024L30.8095 25.4578L30.5896 26.0038L30.4986 26.0607L30.4266 26.0114V25.9848L30.3735 25.8332L30.2521 25.6853H30.1725L30.1043 25.7043L30.0815 25.7801V25.9469V26.019L30.1953 26.4588L30.146 26.7848L29.9185 26.9251L29.8957 27.1071L30.0474 27.3043V27.3953L29.9981 27.4787L29.8351 27.5128L29.7138 27.5659L29.6266 27.7365L29.8427 28.036V28.4152L29.6 28.8777L29.5773 29.0521L28.6863 29.1242L27.8901 29.1924L27.0901 29.2569L26.2938 29.3213L26.6313 28.6578L26.8626 28.4152L27.0218 28.1611L27.3327 27.9147L27.6588 27.4067L27.6853 27.1792L27.636 26.9593L27.4047 26.6673L27.1621 26.2123L25.8161 26.2958L24.4701 26.3792L23.1242 26.455L21.7782 26.527L20.4474 26.6104L19.1014 26.6749L17.7517 26.7318L16.4057 26.7886L15.0597 26.8417L13.7137 26.8872L12.364 26.9289L11.018 26.9706L9.66825 27.0048L8.31849 27.0351L6.97251 27.0616L5.62654 27.0844V26.3261V25.5678V24.8095V24.0512V23.2702V22.4891V21.7081V20.927V20.146V19.3649V18.5839V17.8028V17.0218V16.2408V15.4597V14.6787V13.8976V13.1204V12.3356V11.5545V11.327L4.89479 10.9175L4.56492 10.5384L4.39431 10.0341L4.06446 9.54124L3.56778 9.05214L3.48057 8.52133L3.80284 7.95261L4.07204 7.66446H4.29195V7.42181L4.11753 6.94408L3.86729 6.76968L3.53744 6.89479H3.00663L1.93744 6.1365L1.8654 6.07963L1.53175 5.57157L1.39146 4.96114L1.12607 4.56304L0.727956 4.38104L0.477717 3.97915L0.371557 3.35356L0.117535 2.72797L0 2.54218H1.13744H2.27488H3.41232L4.54977 2.52322L5.68721 2.4929L6.82465 2.46636L7.96209 2.43223L9.09953 2.39811L10.237 2.36019L11.3744 2.3147L12.5119 2.26919L13.6493 2.2237L14.7867 2.17062L15.9242 2.11753L17.0616 2.05687L18.1991 2L18.4455 2.42086L18.7033 2.53839L18.7602 2.67868L19.0938 2.8872L19.1773 3.10332L19.8294 3.35735Z" fill="#0057B8"/>
</svg>