<svg xmlns="http://www.w3.org/2000/svg" width="32" height="32" viewBox="0 0 32 32" fill="none">
  <path d="M30.9932 22.9101L30.9163 23.8252L30.8394 24.7378L30.765 25.6528L30.6882 26.5679V26.6175H30.6014L29.9913 26.5629L29.3788 26.5059L28.7688 26.4489L28.1587 26.3893L27.5487 26.3273L26.9361 26.2678L26.3261 26.2009L25.7161 26.1389L25.106 26.0719L24.4984 26.0025L23.8884 25.933L23.2784 25.8611L22.6683 25.7892L22.0608 25.7148L21.4507 25.6379L20.8432 25.5635L20.2331 25.4842L19.628 25.4048L19.018 25.323L18.4104 25.2412L17.8029 25.1569L17.1953 25.0701L16.5877 24.9833L15.9826 24.894L15.3751 24.8022L14.7675 24.7105L14.1624 24.6187L13.5549 24.5245L12.9498 24.4303L12.3422 24.3311L11.7396 24.2319L11.1345 24.1302L11.0527 24.6262L10.9684 25.1221L10.8865 25.6181L10.8047 26.1141L10.6386 25.9802L10.5369 25.8413L10.46 25.69L10.3335 25.2808L10.2517 25.1246L10.1723 25.0254L10.0781 25.0031L9.94916 25.0304L9.84501 25.1023L9.78549 25.2536L9.66646 25.4197L9.64662 25.576L9.6739 25.6603L9.65158 25.6999L9.58958 25.7223L9.15561 25.5883H8.75884L8.51085 25.4817L7.99752 25.4222L7.57099 25.2932H7.41724L7.30812 25.3577L7.14941 25.5437L7.10973 25.5735H7.05766L6.37074 25.3255L6.18475 25.2908L5.96156 25.3875L5.87973 25.4718L5.84253 25.5958L5.79046 25.6206L5.72846 25.6032L5.58711 25.4916L5.44823 25.3255L5.38376 25.2114L5.40856 24.9783L5.32424 24.6981L5.34656 24.4501L5.29944 24.2418L5.20521 24.0211L5.10106 23.8698L4.97954 23.8004L4.73155 23.783L4.68444 23.7533L4.47613 23.4458L4.42157 23.3168V23.2102L4.55549 22.9771V22.8382L4.52076 22.6547L4.45877 22.496L4.33726 22.3472L4.25294 22.057L4.07935 21.6355V21.3354L4.03223 21.0874L4.05208 20.8394L3.99008 20.6733L4.03472 20.4923V20.4352L4.00992 20.4079L3.86857 20.2715L3.71481 20.0484L3.62802 19.9888H3.59082L3.55611 20.031L3.52387 20.1128L3.16181 20.3608L2.8791 20.4526L2.72535 20.5691L2.59888 20.6162H2.53937L2.46249 20.5542L2.23931 20.2889L2.03844 20.15L2.02603 20.1004L2.07563 19.9268L2.21699 19.7433L2.19219 19.349L2.24675 19.2275L2.34842 19.1507L2.61376 19.0639L2.64848 19.0043L2.66832 18.6398L2.56417 18.4786L2.54432 18.3993L2.64352 18.119L2.62368 17.9182L2.76008 17.7818L2.82455 17.5065L2.9659 17.2412L3.13949 16.8345L3.15933 16.6485L3.3106 16.4749L3.38748 16.2864L3.41971 16.1476V16.0583L3.38748 16.0186L3.30812 16.0012H2.89647L2.78239 15.9665L2.68816 15.907L2.64104 15.8277L2.65592 15.664L2.59641 15.5425L2.55424 15.5152L2.37569 15.5449H2.34098V15.5127L2.3013 15.3639L2.08803 15.044L2.02356 14.7142L1.81773 14.3943L1.6491 13.9802L1.28952 13.2684L1.20025 13.1296L0.882827 12.8543L0.659638 12.5071L0.411653 12.2418L0.391813 12.1996V12.1773H0.414135L0.505888 12.1426L0.550524 12.0384L0.488527 11.7905L0.585241 11.5921V11.287L0.565406 11.1829L0.421574 10.8655L0.347178 10.5778L0.193428 10.2926L0 9.84129L0.213264 8.88159L0.431492 7.92189L0.647238 6.9597L0.860505 6L1.33416 6.10663L2.42777 6.35462L3.52138 6.58772L4.615 6.81835L5.71357 7.04402L5.96156 7.09362L6.81215 7.26472L7.91073 7.47799L9.0093 7.6863L10.1104 7.89213L11.2114 8.08803L12.3125 8.28394L13.416 8.47241L14.522 8.65592L15.6255 8.83447L16.4588 8.9659L16.7316 9.00558L17.8376 9.17669L18.9436 9.33788L20.0546 9.49411L21.1606 9.64538L22.2691 9.79417L23.3825 9.93552L24.4935 10.0719L25.6045 10.2033L26.7154 10.3298L27.8264 10.4513L28.9399 10.5679L30.0558 10.677L31.1668 10.7812L32 10.858L31.938 11.602L31.876 12.3583L31.8115 13.1172L31.7471 13.8611L31.6851 14.6175L31.6206 15.3614L31.5586 16.1054L31.4966 16.8494L31.4321 17.5933L31.3676 18.3373L31.3081 19.0812L31.2436 19.8252L31.1817 20.5691L31.1172 21.3131L31.0577 22.057L30.9932 22.9101Z" fill="#0057B8"/>
</svg>