<svg xmlns="http://www.w3.org/2000/svg" width="32" height="32" viewBox="0 0 32 32" fill="none">
  <path d="M27.8137 11.7376L27.9212 11.7622L28.161 12.1925L28.2593 12.9609L28.4776 13.5756L28.8157 14.0459L28.9847 14.3902V14.6084L29.0646 14.8451L29.2275 15.094L29.2921 15.5182L29.2614 16.1145L29.329 16.4219L29.5011 16.4587L29.5779 16.5448L29.5533 16.6739L29.6117 16.7723L29.7501 16.8337L29.79 17.0059L29.7285 17.2886L29.7777 17.4638L29.9406 17.5376L29.9714 17.6759L29.8699 17.8819L29.8853 18.0448L30.0206 18.1616L30.1097 18.6841L30.1558 19.6062V20.1502L30.079 20.307L30.2019 20.642L30.4293 21.0016L30.5246 21.1522L30.7306 21.6594L30.8166 22.1666L31.0195 22.4924L31.3422 22.6399L31.5574 22.9626L31.6711 23.4575L31.9416 23.8694L32 23.9155L31.3053 23.937H27.3987H26.6149H25.8311H25.0504H24.2636L23.4828 23.9216L22.6991 23.9062L21.9153 23.8909L21.1315 23.8724L20.3508 23.854L19.567 23.8294L18.7832 23.8079L18.0025 23.7802L17.2187 23.7526L16.438 23.7249L15.6511 23.6942L14.8704 23.6604L14.0928 23.5989L13.3121 23.562L12.5314 23.522L11.7476 23.4821L10.9638 23.4391L10.1831 23.396L9.39929 23.3499L8.61858 23.3038L7.83786 23.2546L7.05715 23.2024L7.09711 22.5876L7.13399 21.9729L7.17395 21.3582L7.21698 20.7434L7.25694 20.1287L7.29383 19.514L7.33685 18.8992L7.37681 18.2845L6.45471 18.223L5.53261 18.1585L4.61051 18.0909L3.68841 18.0202L2.7663 17.9495L1.8442 17.8726L0.922101 17.7958L0 17.7159L0.104504 16.5049L0.209007 15.2938L0.310444 14.0797L0.414948 12.8687L0.519451 11.6392L0.623955 10.4282L0.728459 9.2141L0.832962 8L2.06243 8.10758L3.2919 8.20901L4.52137 8.30737L5.75084 8.39958L6.98031 8.48871L8.20977 8.57171L9.43924 8.64855L10.6687 8.72539L11.8982 8.79301L13.1276 8.85756L14.3571 8.91596L15.5866 8.97436L16.8161 9.02354L18.0455 9.06964L19.275 9.1096L20.6889 9.15263L21.737 9.90568L22.3733 10.1454L22.6806 9.93642L23.3384 9.82884L24.3496 9.81346L24.9828 9.92412L25.2471 10.1577L25.7635 10.4221L26.5319 10.7141L26.993 11.0214L27.1467 11.3565L27.4141 11.5747L27.8137 11.7376Z" fill="#0057B8"/>
</svg>