<svg xmlns="http://www.w3.org/2000/svg" width="32" height="32" viewBox="0 0 32 32" fill="none">
  <path d="M22.9422 24.2933L22.623 25.8689L22.27 27.6003L22.2025 27.6158L21.9429 27.974L21.6833 28.1168L21.525 28.0779L21.3874 27.9299L21.268 27.6703L21.0526 27.4912L20.7359 27.3926L20.4426 27.3692L20.183 27.4212L20.0013 27.538L19.8559 27.7975V27.9247L19.9468 28.2232L19.8715 28.6411L19.8222 28.9838L19.8741 29.1862L19.8456 29.4043L19.7184 29.7339L19.7028 30.0221L19.791 30.5594L19.4302 31.974V32L18.7086 30.9617L18.0415 29.9857L17.3822 29.0227L16.7255 28.0441L16.074 27.0681L15.4147 26.0896L14.7735 25.1084L14.135 24.1272L13.6729 23.4393L13.2135 22.7515L12.7541 22.061L12.2998 21.3705L11.8456 20.6801L11.3991 19.9896L10.95 19.2966L10.5036 18.6061L9.92732 17.7677L9.35367 16.9319L8.78521 16.0934L8.22453 15.2654L7.66386 14.427L7.10837 13.5756L6.55289 12.7346L6 11.891L6.20247 11.1486L6.40234 10.4062L6.60221 9.66386L6.80467 8.92148L7.00455 8.17911L7.20441 7.43413L7.40688 6.69176L7.60416 5.94938L7.80662 5.20701L8.00649 4.46204L8.20896 3.71966L8.40883 2.97729L8.61129 2.23232L8.81116 1.48735L9.01103 0.744969L9.2135 0L10.3193 0.298506L11.4251 0.589229L12.5308 0.874755L13.6366 1.15769L14.7476 1.43803L15.8585 1.6976L16.9695 1.95717L18.0805 2.21674L19.1914 2.47632L20.3024 2.73589L21.416 2.99546L22.5269 3.25503L23.6405 3.49383L24.7567 3.73004L25.8728 3.96107L26.989 4.18948L26.8618 4.81765L26.7372 5.44841L26.61 6.07398L26.4854 6.70473L26.3582 7.3329L26.231 7.96106L26.1064 8.59182L25.9792 9.21739L25.852 9.84815L25.7274 10.4763L25.6003 11.1045L25.4731 11.7326L25.3485 12.3608L25.2213 12.989L25.0967 13.6171L24.9695 14.2453L24.8423 14.8735L24.7177 15.5016L24.5931 16.1298L24.4659 16.7579L24.3387 17.3861L24.2141 18.0143L24.087 18.6424L23.9598 19.2706L23.8352 19.8988L23.708 20.5269L23.5834 21.1551L23.4614 21.7807L23.3368 22.4088L23.2096 23.037L23.0824 23.6651L22.9422 24.2933Z" fill="#0057B8"/>
</svg>