<svg xmlns="http://www.w3.org/2000/svg" width="32" height="32" viewBox="0 0 32 32" fill="none">
<path d="M23.9947 24.2301V25.7915V26.528L23.0078 26.7563L22.6249 26.9846L21.8884 27.7211L21.4171 28.0525L20.8941 29.2382L20.2534 29.7464L19.0677 30.0336L17.8746 30.3208L16.6815 30.6081L15.4884 30.8879L14.3027 31.1678L13.1096 31.4476L11.9165 31.7201L10.7234 32L10.4803 31.6318L9.82485 31.0352L9.63341 30.7627L9.57447 30.4166V29.4592L9.69229 29.1204L9.74385 28.5459L9.47136 26.3365L9.41243 25.055L9 22.7793V22.087L9.09575 21.6304L9.1473 20.4888L9.53029 19.4725L9.64073 18.3162L9.87641 17.2631L9.80278 16.7033L9.84697 15.4661L9.53766 13.3155L9.69229 12.9252L10.7013 12.3434L10.9811 12.0341L11.9017 10.8631L12.1669 10.4064L12.2995 9.97192V9.35328L12.3878 9.1618L12.3215 8.83038L11.585 7.57836L11.4304 7.09229L11.8944 5.31002L11.4599 4.46306L11.5262 4.2053L11.7103 1.80437L12.1595 0.589185L13.2569 0.648105L13.7798 0.471346L14.0817 0L14.45 1.10472L14.8698 2.342L15.2822 3.57193L15.6946 4.80921L16.107 6.03912L16.5195 7.26904L16.9319 8.49896L17.3443 9.72889L17.7641 10.9662L18.1692 12.1961L18.589 13.4186L19.0014 14.6559L19.4212 15.8859L19.8336 17.1158L20.246 18.3383L20.6585 19.5682L20.85 20.4152L21.174 21.1517L21.6601 21.7556L22.6912 22.551L23.0668 23.3537L23.9947 24.2301Z" fill="#0057B8"/>
</svg>