<svg xmlns="http://www.w3.org/2000/svg" width="32" height="32" viewBox="0 0 32 32" fill="none">
  <path d="M21.0488 2.83201L21.1335 3.89189L20.6757 6.18971L20.3789 6.76631L19.9974 7.30895L19.6752 7.58029L19.4208 7.98729L19.1495 8.60625L19.0308 9.73398L19.4886 10.5819L21.4812 10.4632L21.9221 10.0477L22.346 10.6582L22.7276 11.557L22.8378 12.6084L22.77 13.7191L22.8463 15.0503L23.1177 17.0599L23.2364 18.8914L23.0668 18.3657L22.7361 16.1781L22.4733 16.4833L22.38 17.0344L22.4648 19.9343L22.0154 21.6301L21.5151 22.8341H20.6672L21.0318 23.5972L20.9301 24.0636V24.9878L20.6163 25.6831L20.167 25.734L19.6413 26.2851L19.4632 26.6497L19.5903 27.2433L19.2936 27.8537L18.4457 30.8977L17.318 32L16.9788 31.9576L17.0212 30.6094L16.9619 29.2697L16.0292 28.9051L15.1813 28.7865L14.3334 29.0323L13.1378 28.2607L11.7303 27.8198L9.58506 26.2851L9.50878 25.734L9.25441 24.8267L9.44942 23.2666L9.72075 22.1388L10.2973 21.452L12.1712 20.46L12.4849 19.5442L12.6291 18.7981L13.0276 18.2385L13.9857 17.1616L15.495 15.7711L12.3069 13.0578L11.6879 13.0069L10.6789 11.557L9.83098 11.2856L9.58506 11.0737L9.27134 9.86116L9.16959 9.14044V8.69953L9.71226 8.20773L9.89878 7.41919L9.8225 7.0461L9.08482 6.02014L9 5.66401L9.73767 4.76523L10.5856 3.13727L10.9417 1.49232L11.1198 0.992063L11.3826 0.602007L12.061 0L13.1717 0.364594L14.2909 0.720726L15.4017 1.08532L16.5294 1.44991L17.6487 1.80605L18.7679 2.16215L19.8956 2.5098L21.0488 2.83201ZM23.0413 20.4515L22.3376 22.7154L22.2189 22.3424L23.0668 19.5358L23.0413 20.4515Z" fill="#0057B8"/>
</svg>