<svg xmlns="http://www.w3.org/2000/svg" width="32" height="32" viewBox="0 0 32 32" fill="none">
  <g clip-path="url(#clip0_6931_11180)">
    <path d="M31.3434 5.76813H31.1563L31.0292 7.33194L30.9021 8.89575L30.7715 10.4631L30.6444 12.0269L30.5174 13.5907L30.3868 15.1581L30.2561 16.7254L30.1291 18.2928L29.9985 19.8566L29.8714 21.4275L29.7443 22.9948L29.6137 24.5657L29.4831 26.133L29.3524 27.7074L29.2254 29.2783L29.0948 30.8492L28.0357 30.768L26.9767 30.6798L25.9177 30.588L24.8587 30.4962L23.7997 30.4009L22.7407 30.3056L21.6816 30.2032L20.6226 30.1008L19.5636 29.9949L18.5046 29.889L17.4456 29.7761L16.3865 29.6631L15.3275 29.5466L14.2685 29.4301L13.2095 29.3066L12.1505 29.183H11.9281L12.2811 30.242L12.8247 30.595H12.7894L11.7304 30.468L10.6714 30.3373L9.61236 30.1997L8.55334 30.0655L7.49432 29.9278L6.4353 29.7831L5.37629 29.6419L4.33491 29.4972L4.24666 30.122L4.16194 30.7468L4.07369 31.3717L3.98544 32L2.29102 31.7705L0.607171 31.5376L0 31.4493L0.285934 29.4725L0.571868 27.5027L0.857813 25.5329L1.14375 23.5667L1.42615 21.6004L1.70855 19.6342L1.99802 17.6715L2.39691 15.6805L2.67931 13.7178L2.96525 11.7551L3.24766 9.79592L3.53006 7.8332L3.81599 5.87402L4.0984 3.91485L4.38081 1.95566L4.66674 0L6.33999 0.236519L8.01677 0.469504L9.69355 0.695422L11.3703 0.910761L13.0471 1.12257L14.7239 1.32377L16.4042 1.52147L18.088 1.71208L19.7648 1.89565L21.4522 2.06862L23.1325 2.23807L24.8163 2.40045L26.5002 2.55577L28.1875 2.70403L29.8714 2.8417L31.5552 2.97585L31.5023 3.68186L31.4493 4.38787L31.3964 5.09388L31.3434 5.76813Z" fill="#0057B8"/>
  </g>
  <defs>
    <clipPath id="clip0_6931_11180">
      <rect width="32" height="32" fill="white"/>
    </clipPath>
  </defs>
</svg>