<svg xmlns="http://www.w3.org/2000/svg" width="32" height="32" viewBox="0 0 32 32" fill="none">
  <path d="M24.4999 15.5738V16.0392V16.5046V16.97V17.4354V17.9007V18.3627V18.8281V19.2935L24.6348 19.3947L24.7293 19.8938L24.8237 20.3929L24.9147 20.892L25.0092 21.3911L25.1036 21.8902L25.1946 22.3893L25.2891 22.8884L25.3835 23.3875L25.5521 23.5561L25.7207 23.7281L25.596 23.8563L25.4037 24.0586L25.2014 24.2744L24.935 24.5543L25.1609 24.7735L25.4442 25.0501L25.316 25.2221L25.0058 25.7819L24.7832 26.0955L24.5708 26.2338L24.4763 26.4698L24.3516 26.6418L24.392 26.1528L24.4629 25.7279L24.4156 24.959L24.2234 24.3689L23.9941 24.1665L23.7783 24.0451L24.1155 24.5847L24.328 25.2996V25.3232L23.8963 25.1816L23.4478 25.04L23.0026 24.8983L22.5575 24.7567L22.109 24.6117L21.6672 24.4667L21.2221 24.325L20.7803 24.18L20.6488 24.0046L20.4734 23.8866L19.7112 23.7922L19.492 23.6607L19.2762 23.4617L19.0941 23.202L18.966 22.912L18.9053 22.6692V22.3893L18.7029 22.2477L18.6591 22.079L18.5309 21.9914L18.0284 21.8936L17.8261 21.644L17.4653 21.445L16.9291 21.5665L16.3963 21.6879L15.86 21.8093L15.3272 21.9273L14.791 22.0487L14.2548 22.1667L13.7153 22.2848L13.179 22.4028L12.6429 22.5174L12.1066 22.6321L11.5671 22.7501L11.0309 22.8648L10.4947 22.9761L9.9551 23.0874L9.41891 23.1987L8.8827 23.3099L8.34313 23.4212L7.80693 23.5291L7.26736 23.6371L6.73115 23.745L6.19159 23.8495L5.652 23.9541L5.11244 24.062L4.57288 24.1631L4.03329 24.2677L3.49373 24.3689L2.95414 24.47L2.41458 24.5712L1.87501 24.6724L1.33543 24.7702L0.795864 24.868L0.25628 24.9658L0.128129 24.2609L0 23.5528V23.5224L0.205707 23.3538L0.880172 22.74L1.18705 22.3252L1.52428 21.9644L1.89525 21.6575L2.16503 21.3034L2.34038 20.8954L2.55621 20.5817L2.81589 20.349L2.93391 20.1366V19.941L2.83274 19.6881L2.64052 19.3846L2.57307 19.1283L2.63041 18.9192V18.8011L2.56634 18.7472L1.92221 18.6764L1.78058 17.7658V17.7422H1.81094L3.12951 17.0678L3.98945 16.7609L5.06522 16.5113L6.39392 16.4473L6.93013 16.5248L7.29433 16.6901H7.67204L8.0666 16.4978L8.63315 16.3427L9.37507 16.2247L9.77637 16.1943L9.84045 16.255L9.88765 16.2247L9.91463 16.0999L10.0832 15.9313L10.5925 15.6244L10.6734 15.648L10.7645 15.53L10.8656 15.2636L11.0916 14.9466L11.4288 14.5824L11.766 14.3564L12.1033 14.2721L12.3056 14.1541L12.3899 14.0023V13.8843L12.3259 13.7966V13.6853V13.628L12.2989 13.5875L12.2415 13.5066L12.11 13.0547L11.9987 12.8557L11.8773 12.7175L11.7391 12.6399V12.532L11.9077 12.3566V12.4814L11.965 12.5084L12.0459 12.4308L12.1943 12.1104V12.0025L12.3124 11.8643L12.3832 11.6754H12.2618L11.9954 11.7867L11.9212 11.7496L12.0156 11.4967L11.9616 11.3787L11.9043 11.3348H11.8065L11.5367 11.5979L11.4457 11.6383L11.4086 11.5405L11.1995 11.3483L11.5367 10.8492L12.8115 9.38898L12.9261 9.1799L12.9497 9.01465L12.8789 8.88987L12.8283 8.86627V8.82917L13.958 7.05533L14.6325 6.19876L15.226 5.67268L15.7016 5.37591L16.0556 5.31858L16.2479 5.24439L16.4198 5.20392L17.2798 4.99484L18.8176 4.61714L20.3554 4.23269L21.2591 4L21.3772 4.33723L21.4008 4.76214L21.5795 5.19043L21.7279 6.13805L22.1427 6.79566L22.2101 7.28465L22.3552 7.79724V7.93214L22.2472 8.26937L22.2135 8.6066V8.91348L22.2675 9.10233L22.6384 9.90832L22.7632 10.2725L22.8172 10.4917L22.8542 11.2202L22.8947 11.4225L22.9487 11.4697H22.9993L23.1038 11.2134L23.1645 11.1628L23.2691 11.1932L23.5759 11.4663L23.7176 12.0565L23.8154 12.4848L23.93 12.9636L24.0986 13.6786L24.22 14.2047L24.3313 14.6802L24.419 15.0477V15.3276L24.4999 15.5738ZM11.7795 10.2253L11.6682 10.2928L11.6278 10.2388V10.1781L11.7087 10.0837L11.8706 10.0466V10.1107L11.7795 10.2253ZM11.5435 11.8508L11.4929 11.8778L11.4726 11.7665L11.5131 11.6788L11.6177 11.6248V11.6822L11.5435 11.8508ZM2.40783 19.0102L2.32352 19.2126H2.20549L2.11106 19.1687L2.06049 19.0608V18.9124L2.14817 18.8315H2.43481V18.8855L2.40783 19.0102ZM29.7439 23.9507L29.5551 24.3587L29.8147 24.325L30.0036 24.1699L30.1553 23.9203L30.56 23.5258L30.9344 23.2998L31.0524 23.2425L31.2952 23.3808L31.6324 23.1245L32 22.9322L30.533 24.2475L30.1958 24.4363L29.7641 24.8241L29.3392 25.131L29.002 25.2861L27.471 26.3619L27.3394 26.4091L27.1776 26.3855L25.8624 27.06L25.2958 27.2421L24.8001 27.4883L25.1373 27.124L25.1205 27.0229L25.0092 26.9689L24.8068 27.0431L24.6618 27.3803L24.3448 27.5557L24.2032 27.2724L24.2605 27.0161L24.3617 26.7598L24.6112 26.3315L25.0362 25.9943L25.2317 25.7448L25.4442 25.8695L25.424 25.6369L25.5218 25.475L25.6465 25.3704L25.9838 25.2828L26.1558 25.2018L26.2704 25.0939L26.4019 25.0467H26.7965L27.1506 24.9253L27.4069 24.7095L27.7003 24.5847L28.4928 24.3453L29.2617 24.0384L29.5348 23.772L30.0643 23.0975L30.4015 22.8547L29.9597 23.6033L29.7439 23.9507ZM23.7648 28.0245L23.5827 28.0919L23.6501 27.549L23.9401 27.2387L24.0784 27.2556L24.1256 27.4276V27.5894L23.9503 27.8795L23.7648 28.0245Z" fill="#0057B8"/>
</svg>