<svg xmlns="http://www.w3.org/2000/svg" width="32" height="32" viewBox="0 0 32 32" fill="none">
<path d="M29.0831 9.08588L29.0659 9.44942L29.1633 9.63548L29.398 9.79578L29.7214 10.2595L30.0449 10.9064L29.7586 10.6803L29.4867 10.5858L29.0888 10.5572L28.711 10.4341L28.7997 10.7204L28.8341 11.0352L28.5478 10.998L28.3503 10.9351L28.5764 11.2213L28.2186 11.1984L27.9982 11.2671L27.9152 11.5877L27.7578 11.8081L27.4715 11.9284L26.982 11.7537L26.7759 11.4675L26.6414 11.1211L26.7072 11.5534L26.879 11.977L26.9248 12.3205L27.3513 12.2919L27.7263 12.1516L28.2501 12.0514L28.5793 11.914L28.7596 11.7623L29.272 11.7451L29.4008 12.143L29.4323 12.5581L29.4982 12.9932L29.6356 12.9617L29.7644 12.7871L29.6756 12.0028L30.0592 11.6163L30.2138 11.602L30.4142 11.8167L30.5201 12.0572L30.646 12.3892V12.936L30.0907 13.706L29.7529 14.3787L29.5239 14.5504L29.1404 14.5676L28.6909 14.5161L28.4791 14.5332L28.336 14.6134L28.2043 14.4588L28.0726 14.1554L27.8866 14.0838L27.7664 14.121V14.4788L27.3971 14.6563L26.8389 14.6306L26.2263 14.4645L26.5297 14.7193L28.024 15.0056L28.2014 15.0771L28.3818 15.2031L28.2415 15.4893L28.1499 15.7956L28.1786 16.016L28.1528 16.1649L27.6805 16.6515H27.3685L26.4639 16.1506L26.9305 16.6515L27.2625 16.8376H27.8494L28.8512 16.3824L29.2463 16.5399L29.0573 17.0179L28.8369 17.37L28.4763 17.4816L28.1671 17.6305L28.1127 17.8509L27.8837 17.9139L27.523 18.0026L26.9505 18.14L26.6328 18.16L26.295 18.6724L26.1433 18.7612L25.9 18.7325L25.7368 18.4234L25.5994 18.2831L25.7254 18.8986L25.7998 19.056L25.9057 19.1648L25.4706 19.6027L25.0699 20.1209L24.9182 20.2697L24.7636 20.5187L24.4773 21.2057V21.6666L24.4287 22.1876L24.3657 21.97L24.317 21.5922L24.1281 21.1886L24.2226 21.9815L24.1367 22.3765L22.6768 22.6399L22.1243 22.9261L21.4831 22.4881L20.8849 22.076L20.2895 21.6638L19.6912 21.2487L19.0958 20.8308L18.5033 20.4157L17.9107 19.9978L17.321 19.577L16.7972 19.6543L16.2734 19.7287L15.7524 19.8031L15.2285 19.8775L14.7047 19.952L14.1809 20.0235L13.657 20.0951L13.136 20.1667L13.0559 19.8174L13.0015 19.5713L12.6036 19.202L12.3718 18.9844L11.9968 19.2707L11.9596 19.1676L11.9424 18.9759L11.8966 18.9186L11.7764 18.89L11.1895 18.9615L10.617 19.0302L10.0302 19.0989L9.45773 19.1648L8.88523 19.2306L8.29842 19.2965L7.72591 19.3623L7.1391 19.4253L6.99882 19.4052L6.75838 19.5913L6.10001 19.9176L5.79085 20.1638H5.66204L5.10384 20.45L4.53134 20.7363H4.46264L3.34628 20.908L2.23275 21.0769L1.11637 21.243L0 21.4033L0.0143091 20.43L0.0830065 20.1953L0.183187 20.1323L0.563906 20.0808L0.795769 19.9377L0.933164 19.3337L1.35969 18.8156L1.56292 18.6724L1.87781 18.5408L2.63923 18.3232L3.40924 17.7679L3.9474 17.2669L4.40539 17.0837L4.53134 16.9091L4.60864 16.6944L4.63725 16.4082L4.6802 16.3452L4.96645 16.3252L5.14106 16.059L5.32426 15.8958L5.51318 15.7899L5.63628 15.7698L5.69352 15.8328L5.75651 16.0275L5.80803 16.0876H5.8939L6.00268 16.0246L6.14007 15.87L6.48071 15.4092L6.72117 15.2117L7.1162 15.0628L7.38241 15.2374L7.5513 15.1401L7.9406 14.2384L8.12381 14.0552L8.27264 13.9722L8.53886 13.9178L8.50451 13.6917L8.54459 13.3367L8.51882 13.102L8.63046 12.7356L8.70202 12.7928L10.0073 12.5953L11.3126 12.3921L12.6179 12.186L13.9204 11.9713L15.2228 11.7537L16.5253 11.5305L17.8277 11.2986L19.1273 11.0667L20.4269 10.8263L21.7264 10.5801L23.0232 10.3311L24.3199 10.0763L25.6137 9.81582L26.9076 9.54961L28.2014 9.28053L29.0831 9.08588ZM29.3694 9.02863L29.481 9L30.1565 10.3397L31.2214 11.7223L31.3702 11.9684L31.1498 11.7738L30.3884 10.8721L29.9275 10.1994L29.3694 9.02863ZM30.9724 11.8911L30.938 11.9942L30.5687 11.5591L30.855 11.6593L30.9294 11.7795L30.9724 11.8911ZM31.9227 14.5361L31.4647 14.768L31.4161 14.7393L31.9141 14.3615L31.8855 13.434L31.8168 13.019L31.5678 12.3176L31.5363 12.1659L31.6794 12.3778L31.9141 13.0333L32 13.5485V14.33L31.9227 14.5361ZM31.1012 14.9512L30.5115 15.4178H30.4314L30.8149 15.0943L31.1012 14.9512ZM29.0087 17.9597L28.9285 18.0312L29.1432 17.4043L29.6499 16.5456L29.8045 16.3996L29.3894 17.1209L29.0087 17.9597ZM28.8398 17.9396L28.7596 17.9683L28.6051 17.9482L28.3875 17.8967L28.3274 17.8394L28.522 17.8223L28.8398 17.9396Z" fill="#0057B8"/>
</svg>