<svg xmlns="http://www.w3.org/2000/svg" width="32" height="32" viewBox="0 0 32 32" fill="none">
  <path d="M31.9691 26.0449H30.969H29.9689H28.9687H27.9686H26.9685L25.9684 26.0217L24.9683 25.9985L23.9643 25.9754L22.968 25.9445L21.9679 25.9136L20.9678 25.8827L19.9677 25.8441L18.9675 25.8055L17.9674 25.7669L16.9673 25.7244L15.971 25.678L14.9709 25.6278L13.9708 25.5776L12.9745 25.5236L11.9744 25.4695L10.9743 25.4077L9.97804 25.3498L8.97791 25.2842L7.98166 25.2185L6.98154 25.149L5.98528 25.0757L4.98516 25.0061L3.9889 24.9289L2.98878 24.8478L1.99252 24.7667L0.996265 24.6818L0 24.5968L0.100402 23.4384L0.193073 22.2799L0.293475 21.1215L0.390012 19.9631L0.490414 18.8046L0.583085 17.6462L0.683487 16.4877L0.783878 15.3293L0.880414 14.1709L0.976951 13.0124L1.07735 11.854L1.17389 10.6762L1.27429 9.5178L1.37468 8.33618L1.47122 7.15844L1.56776 6L2.00797 6.03861L3.74563 6.18535L5.48329 6.32822L7.22095 6.45952L8.95861 6.57922L10.6963 6.69506L12.4378 6.80319L14.1755 6.89972L15.917 6.99239L17.6546 7.07349L19.3962 7.14686L21.1415 7.2125L22.8831 7.27042L24.6207 7.32448L26.3623 7.3631L28.1076 7.39785H29.3472L29.7333 9.32858V9.87305L29.6677 10.2244L29.714 10.8384L29.6831 11.2516L29.741 11.7768L29.714 12.4757L29.8994 13.2827L30.189 14.0164V14.2249L30.2701 14.6651L30.4438 15.032L30.7991 16.1093L30.772 17.1249L30.8338 17.4377L30.9072 19.6271L30.9342 19.9013L31.135 20.2411L31.0308 20.7392V20.9941L31.0617 21.9131L31.1775 22.2722L31.2895 22.9982L31.7683 23.8979L31.8417 24.2377L31.8726 24.5157L32 25.0641L31.9537 25.7977L31.9691 26.0449Z" fill="#0057B8"/>
</svg>