<svg xmlns="http://www.w3.org/2000/svg" width="32" height="32" viewBox="0 0 32 32" fill="none">
<path d="M30.485 11.2749L29.7927 11.7686L29.7122 12.1335L30.0127 12.5199L30.2328 13.0565L30.3615 13.7327L30.1898 15.2997L29.7122 17.7575L29.5136 19.2816L29.5995 19.8826L29.1541 20.7573L28.1774 21.9111L27.4744 22.6249L27.0451 22.8985L26.6533 22.9415L26.3099 22.759L25.9933 22.9737L25.6981 23.5854L25.3869 23.9289L25.0595 23.9987L24.8341 24.3958L24.7107 25.131L24.5497 25.5657L24.3565 25.7052L24.3995 26.0594L24.6731 26.6282V26.8482H24.5765H24.4799L24.2707 27.0146L24.0721 27.3902H23.9809L23.9004 27.3419L23.7608 26.918L23.5032 26.6389L23.1437 26.5102L22.7412 26.9878L22.2958 28.061L22.1294 28.7426L22.3012 29.1773L22.4514 29.8159L22.3441 30.1057L22.0328 30.2559L21.8343 30.6423L21.7484 31.2755L21.3513 31.7317L20.643 32L19.8434 31.8336H19.7843L18.7701 31.2058L18.11 30.594L17.7719 29.9393L16.9777 30.0198L15.7327 30.8409L14.7345 31.0823L13.9939 30.7389L13.4573 30.6369L12.9689 30.8516L12.5182 31.2004L12.0889 31.0877L11.5093 30.594L10.6721 30.3418L9.56128 30.2828L8.73486 29.8159L8.19822 28.9519L7.66157 28.3723L7.12493 28.0932L6.58829 28.0557L6.05164 28.2703H5.60622L5.26813 28.0181L4.88177 28.0986L4.55439 28.4206L4.2163 25.6301L3.8997 22.8878L3.58307 20.1456L3.26647 17.398L2.94984 14.6611L2.63323 11.9135L2.3166 9.17122L2 6.42361L4.08751 6.08017L6.18043 5.72598L8.27332 5.3718L10.3609 5.00151L10.4146 4.94249V4.96932L10.5219 5.10885H11.1068L11.52 5.22691L11.8581 5.44694L13.028 5.80648L13.409 6.0748L13.7686 6.20359H14.1013L14.3105 6.06943L14.4018 5.8172L14.5574 5.77965L14.7721 5.95674L15.4214 6.08553L15.4536 6.14994L13.7954 6.78317L13.4627 7.01392L13.9134 7.07296L14.3374 6.98173L14.7506 6.73487L15.2497 6.67048H15.7058L15.8293 6.57924L15.8829 6.53095L16.704 6.92806L16.9938 6.9549L17.2782 6.85829L17.5465 6.62217L18.169 6.27335L19.1403 5.8172L20.1009 5.54353L21.0508 5.45229L21.6304 5.27521L22.1187 4.87272L23.1491 3.64918L24.3941 2.57589L26.4709 1.17525L28.5155 0L28.6335 0.703L28.7892 1.57773L28.9394 2.45783L29.0897 3.33256L29.2399 4.20728L29.3902 5.08738L29.5458 5.96211L29.6907 6.84219L29.8464 7.71692L29.9966 8.59702L30.1469 9.47711L30.2972 10.3465L30.485 11.2749Z" fill="#0057B8"/>
</svg>