<svg xmlns="http://www.w3.org/2000/svg" width="32" height="32" viewBox="0 0 32 32" fill="none">
  <path d="M31.2435 11.3037L31.3369 11.9463L31.4304 12.586L31.5239 13.2287L31.6203 13.8713L31.7137 14.5139L31.8072 15.1536L31.9036 15.7962L32 16.4389V24.4863L31.1237 24.2643L30.9017 24.1183L30.4986 23.9547L30.0984 23.61L29.3827 23.1865L29.114 23.0842H29.0293L28.8832 23.2975L28.5064 23.4698H28.302L27.9281 23.4085L27.855 23.353L27.8025 23.2245L27.6535 23.1397L27.5425 23.2069L27.0021 23.388L26.9203 23.5136H26.6282L26.3361 23.4231L25.5708 23.7152L25.3079 23.9343L25.0333 24.0131L24.8902 24.2264L24.8084 24.1942L24.5163 23.9284L24.2242 23.8466L23.8211 23.5808V23.3501L23.7773 23.3208L23.7042 23.2916L23.6166 23.315L23.4384 23.5107L23.3362 23.5604H23.234L22.8455 23.4231L22.6848 23.1865L22.603 23.1105L22.5154 23.0959L22.346 23.166L22.2496 23.426L22.1736 23.4961L22.01 23.5399V23.6685L21.8581 24.0277L21.7793 24.1008L21.68 24.0862L21.5748 23.9956L21.4989 23.8671L21.4667 23.7561L21.5281 23.464L21.4959 23.3676L21.42 23.3384L21.2272 23.4698H21.0578L20.8416 23.6013L20.7073 23.6422L20.5846 23.6071L20.3889 23.3851L20.0442 23.2391L19.9157 22.9791L19.8543 22.9031L19.7813 22.8827H19.7083L19.5827 22.9645L19.1766 23.2946L18.9955 23.3997L18.8378 23.4172L18.6888 23.3793L18.5953 23.2916V22.947L18.5106 22.8418L18.1221 22.6286L18.0491 22.4241L18.0199 22.132L17.5759 22.1641L17.0297 22.1232L16.7785 22.3627L16.647 22.4066L16.4951 22.354L16.0628 22.0035L15.5925 22.059L15.3296 22.0122L14.6753 21.7523L14.1641 21.7114L13.9509 21.6617L13.8399 21.6004L13.8048 21.2148L13.612 20.8847L13.5478 20.7942L13.2119 20.5546H13.1564L13.1155 20.6043L13.0278 20.8555H12.9256L12.5283 20.7679L12.1574 20.8263L11.9587 20.6948L11.2869 20.0756L11.0152 19.912L10.7903 19.8536L10.8137 19.3015L10.84 18.7465L10.8633 18.1944L10.8838 17.6394L10.9101 17.0874L10.9335 16.5353L10.9568 15.9832L10.9802 15.4311L11.0036 14.879L11.0269 14.324L11.0503 13.772L11.0737 13.2199L11.1 12.6678L11.1116 12.1128L11.1321 11.5607L11.1584 11.0087L10.4602 10.9765L9.76212 10.9444L9.06691 10.9152L8.36878 10.8801L7.67065 10.8422L6.97252 10.8013L6.2744 10.7633L5.57626 10.7224L4.88106 10.6786L4.18293 10.6348L3.48481 10.588L2.7896 10.5413L2.09147 10.4916L1.39626 10.442L0.698133 10.3894L0 10.3368L0.0438138 9.75262L0.0876366 9.16842L0.13145 8.58421L0.175264 8L1.08955 8.0701L2.00091 8.13729L2.91228 8.19863L3.82656 8.26289L4.68243 8.31839L5.53537 8.37097L6.38831 8.42355L7.24418 8.47321L8.10005 8.51702L8.95591 8.56376L9.80886 8.60465L10.6647 8.64555L11.5177 8.68352L12.3735 8.71857L13.2294 8.75362L14.0853 8.78575L14.9382 8.81496L15.797 8.84125L16.6616 8.89968L17.5175 8.92304L18.3733 8.94349L19.2321 8.96102L20.0851 8.97854L20.9409 8.99315H21.7968H22.6527H23.5085H24.3644H27.7879H28.6437H29.4996H30.3555H31.2113V9.57736V10.1616V10.7458L31.2435 11.3037Z" fill="#0057B8"/>
</svg>