<svg xmlns="http://www.w3.org/2000/svg" width="32" height="32" viewBox="0 0 32 32" fill="none">
  <path d="M9.9669 4.06844L10.3366 4.05278L10.5685 4.22197L10.8348 4.5353L10.9633 5.29042V6.47792L10.9226 6.86331L11.1074 7.16098L11.4207 7.26124L12.5738 7.78449L12.7555 7.82209L12.9842 7.84402L13.7895 7.63097L14.5665 7.70616L15.4344 7.99129L15.9358 8.26075L16.0736 8.52394L16.5342 8.6806L17.7123 8.74954L18.9876 8.91874H19.6643L20.5103 8.75581H22.337L23.1987 8.925L23.6749 8.8592L23.8003 8.7934L23.8598 8.80907L24.7559 9.0378L25.652 9.26339L26.545 9.48586L27.4442 9.70831L28.3435 9.92764L29.2396 10.1438L30.1388 10.3569L30.9786 10.5543L31.0224 10.7893L31.2794 11.2875L31.6992 11.7637L31.9373 12.2149L32 12.641L31.5707 13.4808L30.6026 14.7341L30.0417 15.5456L29.8976 15.9184L29.4213 16.5012L28.6161 17.2908L28.1649 17.9175L28.074 18.3687L28.2119 18.682L28.5816 18.8449L28.8103 19.0548L28.9012 19.3086L28.8573 19.5123L28.6787 19.669L28.5941 19.8507V20.0669L28.4625 20.4115L28.0709 21.0915V21.1134L27.7952 22.304L27.5414 23.3819L27.2876 24.4628L27.0338 25.5407L26.7831 26.6217L26.5325 27.6995L26.2787 28.7774L26.0249 29.8552L24.6838 29.5419L23.3428 29.2285L22.0018 28.9152L20.6607 28.5768L19.326 28.2353L17.9912 27.8906L16.6564 27.5397L15.3216 27.1794L14.3817 26.9256L13.4417 26.6655L12.5017 26.4055L11.5617 26.1391L10.6218 25.8759L9.68178 25.6034L8.7418 25.3308L7.80182 25.055L6.86184 24.7793L5.92186 24.4973L4.98188 24.2153L4.04191 23.9302L3.10193 23.6388L2.16195 23.3474L1.22197 23.0529L0.260061 22.7395L0 22.0189L0.0845946 21.1009L0.166062 20.728L0.526386 19.788V19.3368L0.410457 18.5566L0.742582 18.0177L1.01204 17.7044L1.88622 16.2694L2.01782 16.1691L2.17135 16.2224L2.52854 16.0438L2.42514 15.9435L2.19328 16.0093L2.55987 15.4485L2.9202 14.9785L3.10193 14.8281L3.72858 13.1236L4.2581 11.8389L4.57143 11.4629L4.65289 10.993L4.91922 10.407L5.06335 9.78038L6.37932 6.93851L6.44199 6.56565L6.70831 6.12386L7.00597 4.82043L7.50102 3.41986L7.46656 3.20993L7.48223 3H7.57622L7.68275 3.26006L8.47234 3.50759L9.03319 3.47313L9.19612 3.59532L9.32772 3.90865L9.58152 4.04651L9.9669 4.06844Z" fill="#0057B8"/>
</svg>