<svg xmlns="http://www.w3.org/2000/svg" width="32" height="32" viewBox="0 0 32 32" fill="none">
  <path d="M30.2338 9.53242L29.891 9.84487L29.7521 10.0445L29.661 10.2962L29.4787 11.1381L29.0448 11.9713L28.6586 12.4312L28.7019 12.6135L29.0838 13.1429L29.1229 13.3295L29.0231 13.7331L28.7453 13.9892V14.2148L28.7974 14.5837L28.971 15.1739L29.0968 15.278L29.5308 15.4169L30.0472 16.1589L30.3683 16.1893L32 17.5736L31.2232 18.2853L30.7068 18.8582L30.4985 19.1446L30.1296 19.8563L29.4136 20.2338L29.0534 20.5506L28.9753 20.6808L28.4719 20.5983L27.834 20.7719L27.6387 20.9064L27.5086 21.1061L27.2395 21.7309L26.0461 22L24.8527 22.2647L23.6594 22.5251L22.4616 22.7855L21.2682 23.0415L20.0749 23.2932L18.8771 23.5449L17.6794 23.7922L16.4774 24.0353L15.2796 24.2739L14.0819 24.5126L12.8842 24.747L11.6821 24.977L10.4844 25.207L9.27801 25.4326L8.08028 25.6539L7.39896 25.7798L6.72199 25.9056L6.04068 26.0271L5.3637 26.1486L4.68242 26.2702L4.00542 26.3873L3.32413 26.5088L2.64281 26.626L2.50829 25.8449L2.37376 25.0594L2.23923 24.2783L2.10471 23.4972L1.96584 22.716L1.83563 21.9349L1.7011 21.1538L1.57092 20.3727L1.44074 19.6566L1.31925 18.9536L1.19773 18.2419L1.07621 17.5302L0.950367 16.8229L0.83319 16.1112L0.707352 15.4039L0.585858 14.6922L0.464337 13.9848L0.342843 13.2775L0.221322 12.5658L0.0954844 11.8584L0 11.2899L0.867914 10.7779L1.24546 10.4741L1.62734 10.1703L1.82263 10.0011L2.04829 9.83619L3.46297 8.68187V8.71658L3.62356 9.62789L3.78844 10.5392L4.48279 10.4134L5.18145 10.2875L5.8758 10.1573L6.57012 10.0315L7.26444 9.90128L7.95879 9.77109L8.65311 9.63656L9.34746 9.50638L10.0418 9.36751L10.7318 9.23299L11.4261 9.09846L12.1204 8.95959L12.8104 8.82072L13.5047 8.68187L14.1991 8.54734L14.8891 8.40413L15.5791 8.26093L16.2734 8.11771L16.9677 7.97017L17.6577 7.82697L18.3477 7.67943L19.042 7.53188L19.7277 7.38432L20.4177 7.23245L21.112 7.08056L21.7977 6.93302L22.492 6.78113L23.1777 6.6249L23.872 6.46868L24.5576 6.31245L25.2476 6.15623L25.9333 6L26.402 6.25605L26.6623 6.57717L27.3089 6.70302L27.4738 6.81584L27.5259 7.02849L27.7863 7.21074V7.57527L27.8601 7.88339L28.0293 8.25658L28.2593 8.59507L28.537 8.84677L28.8234 9.01601L29.7998 9.14186L30.0298 9.29375L30.2338 9.53242Z" fill="#0057B8"/>
</svg>