<svg xmlns="http://www.w3.org/2000/svg" width="32" height="32" viewBox="0 0 32 32" fill="none">
  <path d="M24.8566 11.5481L23.9934 12.9241L22.3204 11.683L21.2412 10.0911L20.081 9.36258L19.0287 9.22766L20.9174 12.8162L19.7573 16.2159L21.2682 23.7707L19.6762 27.5211L12.5801 31.5953L10.2597 32L10.0168 29.5448L10.5295 28.3576L9.98998 25.6594L9.6392 23.9596L8.85663 21.0995L7.93936 17.8617L6.96806 14.3542L6.10463 11.2513L5.45694 9.01181L4.59368 5.90895L4 3.69645L6.29352 3.02191L9.45031 2.10455L12.4722 1.24117L14.361 0.674537L16.6543 0L17.2748 1.83472L18.2193 4.53287H19.5954L20.2159 6.88029L20.5937 8.41821L21.9698 9.06578L23.3727 9.74032L24.8566 11.5481ZM27.1232 20.4519L25.909 21.9899L24.1282 22.2867L24.5869 20.5059L24.2901 18.1855L24.452 15.4874L24.7218 14.597L25.5312 13.6526L27.1232 20.4519ZM23.3457 21.7741L22.6981 22.7724L21.8347 20.8836V18.4283L22.4284 18.2125L23.0489 19.3458L23.3457 21.7741Z" fill="#0057B8"/>
</svg>