<svg xmlns="http://www.w3.org/2000/svg" width="32" height="32" viewBox="0 0 32 32" fill="none">
  <path d="M31.6027 6.51999L31.4605 7.09591L31.3621 7.34742L31.1653 7.60257L30.5456 8.15663L30.3925 8.34981L30.4108 8.52478L30.5347 8.75077L30.8445 9.27201L31.0122 9.48343L31.6938 9.84793L32 10.2781V11.583V12.8843V14.1856V15.4832V16.7845V18.0858V19.3834V20.6811L31.3876 20.6993L31.4605 21.0638L31.6246 21.4283L31.6537 21.6324L31.6209 21.8037L31.5043 21.9495L31.5298 22.1865L31.5626 22.2484L31.836 22.4015L31.9307 22.6057L31.9563 22.8389V22.9993L31.7849 23.3201L31.7339 23.7502L31.5225 24.3881L31.2892 24.7745L31.2455 24.9713L31.2637 25.1317L31.6282 25.5436V25.7076L31.7449 25.919L31.8506 26.3965L31.5225 26.3163L31.2054 26.0575L31.0231 25.6602L30.4764 25.2957L29.5651 24.9494L28.9527 24.636L28.6393 24.3589L27.8884 24.2277L26.6891 24.2459L25.9091 24.3735L25.5446 24.6214L24.7901 24.3371L23.5471 23.444L21.8704 23.393L20.4124 23.3456L18.9543 23.2909L17.4963 23.2326L16.0383 23.1634L14.5803 23.0941L13.1222 23.0175L11.6642 22.9374L10.2062 22.8462L8.74815 22.7551L7.29013 22.6567L5.8321 22.551L4.37408 22.4416L2.91605 22.325L1.45803 22.2047L0 22.0771L0.123931 20.6373L0.244213 19.1793L0.368144 17.7395L0.492075 16.2815L0.616005 14.8234L0.739947 13.3654L0.863878 11.9074L0.987809 10.4494H0.951356V10.3765L1.06435 9.03144L1.1737 7.68642L1.28671 6.34503L1.3997 5L2.34012 5.08019L3.28056 5.16038L4.22098 5.23693L5.16505 5.31348L6.10548 5.38638L7.04955 5.45199L7.98997 5.52125L8.93404 5.58686L9.87447 5.64882L10.8185 5.71079L11.759 5.76547L12.703 5.82379L13.6471 5.87482L14.5875 5.92585L15.5316 5.97323L16.4757 6.02062L17.4161 6.06436L18.3602 6.10445L19.3043 6.14091L20.2483 6.17736L21.1924 6.21381L22.1365 6.24297L23.0805 6.27213L24.021 6.30129L24.9687 6.32316L25.9128 6.34503L26.8568 6.3669H27.8009H28.745H29.689H30.6331L31.6027 6.51999Z" fill="#0057B8"/>
</svg>