<svg xmlns="http://www.w3.org/2000/svg" width="32" height="32" viewBox="0 0 32 32" fill="none">
  <path d="M32 10.9788L31.9153 11.0237L30.4209 12.5181L30.0075 13.1258L28.9614 15.3524L28.8369 16.6775L28.4483 16.2042V15.7958L28.3935 15.467L28.1694 16.2291L28.6974 17.1806L28.4633 17.6239L27.6513 18.5205L27.1532 18.7298L26.6102 19.0436L26.5554 19.7908L25.8879 20.5928L25.4844 20.9664L24.6077 20.9365L24.9813 21.5243L24.7572 22.0623L24.3088 22.5056L23.6862 22.8643L23.3026 22.8991L22.9938 23.0884L22.7945 23.4321L22.2217 23.8306L21.5442 23.7808L20.792 23.8107L20.4134 24.0548L21.1507 24.2192L21.589 24.5629V25.1308L21.4446 25.3798L21.056 25.7385H20.8518L20.6924 25.4994L20.4583 25.0013L20.2789 25.1507V25.4097L20.1245 25.5293L19.3574 24.7671L19.5019 25.4247L19.8008 25.8929L20.0548 26.1171L20.2889 26.2316L20.3836 26.4608L20.0548 27.1034L19.8605 27.2727L19.4869 27.4272L19.3275 27.8207L19.4471 28.1146L17.9925 27.7111L17.4944 27.213L17.3898 26.4857L16.9963 25.7036L16 24.4483L15.3624 24.1445L14.8443 23.2528L14.2117 21.6887L13.4645 20.7422L12.5977 20.4184L11.9801 19.9701L11.6164 19.3923L11.2727 19.0386L10.9489 18.8991L10.7397 18.6052L10.6501 18.1619L10.1021 17.6638L8.60771 16.7721L8.18929 16.1494L7.46201 15.5318L5.70362 14.3562L3.81568 11.8655L3.5467 11.3425L3.198 11.1631H2.69987L2.16188 10.9689L1.33499 10.3861L0 9.70859L0.139461 8.91157L0.941477 7.78581L1.18057 7.20797H1.22539H1.33998L2.33624 6.70984L3.3325 6.21171H3.55168L4.09463 5.78331L5.23537 5.21544L5.65379 4.88667L5.89787 4.92652L6.91906 4.81693L7.91533 4.70237L8.91159 4.58779L9.93774 4.4782L10.934 4.35866L11.9552 4.23909L12.9813 4.11955L13.9776 4L14.1818 4.04483L14.2665 4.14446V4.4782L14.3312 4.65255L14.9838 4.15442L15.3873 4.533L16.0847 5.18057L16.1793 5.60896L16.3188 6.21171L17.2254 6.09215L18.137 5.96761L19.0486 5.83811L19.9602 5.71358L20.8717 5.58406L21.7833 5.45454L22.6949 5.32005L23.6015 5.19053L24.6326 5.91781L25.6588 6.64508L26.6949 7.36736L27.7958 8.05977L28.8319 8.78207L29.868 9.49938L30.9091 10.2217L32 10.9788Z" fill="#0057B8"/>
</svg>