<svg xmlns="http://www.w3.org/2000/svg" width="32" height="32" viewBox="0 0 32 32" fill="none">
  <path d="M24.4825 11.1401L25.3316 11.0243L27.1516 10.7779L28.4431 10.5938L29.5001 10.4424L30.1266 10.3503L30.9104 10.2345L31.0707 10.1099L31.4656 10.0653L32 10L31.8872 10.383L31.9109 10.6265L31.8723 10.9946L31.905 11.2292L31.6289 11.2856L31.4804 11.3717L31.2874 11.5587L30.8807 12.494L30.7174 12.6038L30.3759 12.4346L29.9662 12.589L29.7139 12.7938L29.3605 13.2689L29.221 13.4292L29.1052 13.4945H29.0161L28.9597 13.4351L28.8944 13.2332L28.835 13.1679L28.7074 13.1887L28.5114 13.2986L28.3244 13.4648L28.1403 13.7439L27.8434 13.7647L27.7988 13.83L27.7721 14.1269L27.689 14.3526L27.5584 14.5307L27.0833 14.7237L26.5192 15.2403L25.7235 15.8163L24.9338 16.0419L24.6072 16.1785L24.3964 16.327L23.954 16.8614L23.8085 17.4878L23.5739 17.6363L23.1761 17.6927L23.0722 17.758L23.0039 17.9985V19.008L21.7539 19.1535L20.504 19.293L19.257 19.4266L18.0071 19.5572L17.3895 19.6196L16.772 19.6819L16.1544 19.7443L15.5368 19.8037L14.9193 19.8631L14.3017 19.9195L13.6842 19.9759L13.0666 20.0323L12.4491 20.0857L11.8285 20.1392L11.211 20.1926L10.5934 20.2431L9.97589 20.2936L9.34051 20.3232L8.72295 20.3737L8.10541 20.4183H8.05493L8.10837 20.4747L8.17964 20.5281L7.13454 20.6172L6.11023 20.6973L5.08592 20.7775L4.0616 20.8547L3.03434 20.9289L2.01003 21.0002L0.985714 21.0685L0 21.1278V21.113L0.136581 20.917L0.555203 20.5697L0.718513 20.1392L0.626475 19.6226L0.75414 19.1445L1.10745 18.7022L1.23512 18.2776L1.14308 17.8708L1.30934 17.5235L1.72797 17.2266L1.78438 17.1167L1.76062 17.0395V16.9505V16.9119V16.8317L1.85563 16.7782L1.9833 16.7337L2.03675 16.6625V16.5585L1.94472 16.3745V16.2884L1.96253 16.1518L2.15253 15.7896V15.4927L1.9833 15.2581L2.0516 15.1245L2.14661 15.0829L2.27427 15.0562L2.31287 14.9909V14.9196L2.1941 14.7653L2.21192 14.6227L2.39007 14.5129L2.42865 14.2576L2.33958 13.9132L2.60383 13.8864V13.9072L2.66024 13.9458L2.73149 13.9013L3.48563 13.8478L4.13583 13.7944L4.78901 13.7469L5.4422 13.6934L6.09539 13.643L6.7456 13.5895L7.39879 13.5331L7.99259 13.4826L7.95399 13.067L7.761 12.5979H7.78178H8.29244H8.62794L8.75265 12.7345L10.0026 12.5949L11.2555 12.4494L12.5055 12.301L13.7554 12.1466L15.0648 12.0545L16.3741 11.9536L17.6864 11.8497L18.9957 11.7398L20.3051 11.627L21.6144 11.5083L22.9208 11.3836L24.2301 11.2559H24.2598L24.2895 11.241H24.3162L24.3459 11.2262H24.3726L24.3993 11.2114L24.429 11.1965L24.4825 11.1401Z" fill="#0057B8"/>
</svg>