<svg xmlns="http://www.w3.org/2000/svg" width="32" height="32" viewBox="0 0 32 32" fill="none">
  <g clip-path="url(#clip0_6931_11228)">
    <path d="M29.5675 8.70797L29.6935 8.84471L29.7942 8.88249L29.8248 8.93827L29.8734 8.95266L29.9328 8.94006L30.0227 8.8735L30.1577 8.88969L30.2674 8.8645L30.4887 8.89329L30.6146 8.95626L30.6254 9.34308L30.6362 9.7299L30.6488 10.1185L30.6596 10.5053V10.8652L30.6686 11.225V11.5848V11.9447V12.3045L30.6776 12.6643V13.0242V13.384L31.0231 13.7259L31.1742 13.9633L31.2228 14.0839L31.2479 14.5031L31.2839 14.602L31.4638 14.7568V14.8593L31.6438 15.158V15.3001L31.8237 15.6186L31.9226 15.7013L31.9442 15.919L32 16.0846L31.9244 16.2051L31.9622 16.367L31.919 16.52L31.8974 16.7233L31.7931 17.0417L31.6977 17.1982L31.5682 17.4951L31.5862 17.738L31.5142 18.0079V18.1104L31.5934 18.2903L31.6312 18.7779L31.5934 18.8823L31.4333 19.1719H31.3145L31.0626 19.6523L31.2192 19.9132V20.0103L30.6938 20.0769L29.5117 20.6329L29.0494 20.9279L29.0728 20.8308L29.6305 20.4493L29.4308 20.3954L29.1123 20.4943L28.9972 20.4583L29.1285 20.1489L29.0817 19.8754H28.8551L28.7129 20.0949L28.6122 20.0859L28.479 19.9942L28.3765 20.0247L28.4574 20.5177L28.6032 20.7192L28.7273 20.9765L28.4017 21.3003L28.0994 21.5666L28.0688 21.8221L27.7648 22.1586L27.4769 22.3493L26.7986 22.7955L26.6043 22.8908L26.2966 23.0977L25.872 23.2542L25.4636 23.4971L25.3251 23.5349L25.586 23.328L25.8954 23.1229L25.6291 23.1517L25.2225 23.0545H24.9725V23.1283L24.7817 23.2327L24.5856 23.0761L24.5011 22.9718L24.4615 22.8818L24.3787 22.8602L24.2978 22.8998L24.5874 23.5385L24.7116 23.5655L24.8501 23.6303L24.6702 23.7778L24.4903 23.8876L24.1988 23.9613L23.9523 23.7274L23.8965 24.0171L23.8624 24.3086L23.7778 24.3823L23.6429 24.4867L23.5709 24.4057L23.5601 24.296L23.4737 24.3949L23.3478 24.4705L23.1427 24.4831L22.988 24.5209V24.6414L23.0222 24.7619L23.2974 24.6702L23.1949 24.9796L22.9394 25.2855L22.7325 25.3539L22.4176 25.3035L22.3403 25.3341L22.2683 25.3953L22.6281 25.8828L22.3817 26.6025L22.2251 26.8634L22.119 26.8958H22.0056L21.6008 26.6529L21.3813 26.4729L21.5612 26.9695L22.101 27.1242L22.1262 27.3042V27.4643L22.0182 27.6442L21.9139 27.8925L21.984 28.0724L22.0614 28.5024L22.1316 28.7021L22.2017 29.2994L22.2827 29.5621L22.7631 30.5229L22.9304 30.5337L22.9556 30.638L22.9376 30.8359L22.5778 30.8881L22.4266 30.9745L22.396 31.05L22.3745 31.0914H22.3277L22.1586 31.0338L21.7771 30.7568L21.2176 30.5769L20.4799 30.4977L19.978 30.3484L19.7135 30.1343L19.4346 30.0047L19.1413 29.9561L18.9003 29.8374L18.7203 29.6467L18.4415 29.519L18.0708 29.4542L17.8351 29.3066L17.6786 28.9612L17.5491 28.3891L17.3692 28.0292L17.0201 27.574L16.9877 27.5147V27.4427L17.0435 27.1872L17.0111 27.0073L16.9014 26.8526L16.8798 26.6925L16.95 26.5269L16.9608 26.3272L16.9158 26.0897L16.6945 25.8271L16.2951 25.5392L15.964 25.129L15.7013 24.5892L15.4351 24.215L15.1652 24.0009L14.9853 23.7472L14.8971 23.4522L14.8755 23.283L14.9187 23.2381L14.7622 22.9088L14.4023 22.2935L14.2062 21.8473L14.163 21.5684L13.9382 21.2284L13.5315 20.8254L13.312 20.5663L13.2653 20.3864L12.6302 19.8466L12.4502 19.5246L12.3063 19.4166H12.1264L12.0382 19.3806V19.3105H11.9825L11.8709 19.368H11.5111L10.9156 19.2925L10.4909 19.1773L10.2355 19.028H10.0556L9.93861 19.1881L9.70292 19.2799L9.35388 19.3033L9.03182 19.5929L8.73856 20.1471L8.60003 20.5069L8.61802 20.6724L8.54245 20.7876L8.37333 20.8488L8.19341 21.0053L8.02429 21.2374L7.81558 21.3471L7.59069 21.3201L7.18768 21.0934L6.61194 20.6526L6.15855 20.3702L5.82211 20.2478L5.53424 20.0409L5.29495 19.7477L5.06826 19.5462L4.85416 19.4364L4.62386 19.1162L4.37558 18.5764L4.26583 18.1716L4.30541 17.7614L4.00855 16.8294L3.84302 16.421L3.70989 16.2285L3.43641 15.9874L3.0244 15.6959L2.48465 15.14L1.83156 14.3196L1.36377 13.8176L1.07771 13.6377L0.845611 13.3408L0.665694 12.9342L0.476784 12.6661L0.455189 12.6517L0.179917 12.4718L0 11.9321H0.0143964L0.554147 11.9951L1.0939 12.058L1.63365 12.1174L2.1734 12.1768L2.71315 12.2343L3.2529 12.2901L3.79265 12.3459L4.3324 12.3999L4.87215 12.452L5.4119 12.5024L5.95165 12.5528L6.4914 12.6014L7.03115 12.6499L7.5709 12.6949L8.11065 12.7399L8.6504 12.7831L8.71697 11.9807L8.78354 11.18L8.85011 10.3794L8.91488 9.57877L8.98145 8.77994L9.04622 7.98111L9.11099 7.18048L9.17756 6.38165L9.24233 5.58282L9.3071 4.78579L9.37366 3.98696L9.43844 3.18813L9.50321 2.3911L9.56798 1.59407L9.63455 0.797035L9.69931 0H9.79467L10.2229 0.0323892L10.6529 0.0647729L11.0811 0.0953557L11.5111 0.124143L11.9411 0.154731L12.3711 0.181718L12.8011 0.208704L13.2311 0.235691L13.6611 0.260882L14.0911 0.286067L14.5211 0.311258L14.9511 0.332847L15.3793 0.354436L15.8093 0.377826L16.2393 0.39762L16.6693 0.417408L16.6567 0.757454L16.6423 1.09749L16.7233 1.44653L16.7089 1.78658L16.6945 2.12662L16.6801 2.46846L16.6675 2.8085L16.6513 3.14854L16.6369 3.48859L16.6225 3.82863L16.6099 4.17048L16.5955 4.51051L16.5811 4.85056L16.5667 5.1906L16.5523 5.53065L16.5398 5.87069L16.6765 5.90667L16.8438 6.00742L17.2576 6.38885L17.38 6.47341L17.6085 6.43563L17.8513 6.4896H17.9161L17.9701 6.33667L17.9953 6.30609H18.0295L18.2364 6.45361L18.2759 6.50939L18.3947 6.71269L18.4163 6.95019L18.4847 6.98797L18.6142 7.01856L18.9308 7.04374L19.3285 7.20927L19.4904 7.23805L19.7819 7.20387L20.0481 7.41797L20.1417 7.45216L20.2226 7.42517L20.3792 7.27583L20.7156 7.30103L20.9891 7.28123L21.0071 7.46115L21.0521 7.58529L21.277 7.72383L21.3291 7.7886V8.0009L21.3867 8.05488L21.4785 8.07826L21.5756 8.06747L21.689 8.0027L21.9391 7.79939L22.0146 7.75082H22.0596L22.1046 7.76341L22.1424 7.80839L22.2215 7.96852L22.4338 8.05847L22.5544 8.19521L22.6299 8.2168L22.7127 8.19341L22.8458 8.11245H22.9502L23.0689 8.02969L23.1157 8.04948L23.1355 8.10885L23.0977 8.28877L23.1175 8.35534L23.1643 8.4363L23.2291 8.49027L23.2902 8.49927L23.3388 8.45609L23.4324 8.23479V8.15383L23.5331 8.12684L23.5799 8.08546L23.6393 7.92534L23.7436 7.88215L23.7976 7.89115L23.848 7.93613L23.9469 8.08366L24.188 8.16822H24.251L24.314 8.13764L24.4219 8.01709L24.4795 8.0027L24.5227 8.01889L24.5496 8.03688V8.18082L24.7961 8.34454L24.976 8.39492L25.156 8.55864L25.2081 8.57844L25.2945 8.44529L25.4654 8.40031L25.6273 8.26358L26.0987 8.08366L26.2786 8.13944H26.4586L26.5071 8.06207L26.8418 7.95052L26.9084 7.90915L27.0019 7.96312L27.0343 8.04228L27.0775 8.07467L27.3078 8.11425H27.4337L27.6658 8.0081L27.7558 7.87676H27.8079L27.9735 7.93973L28.4143 8.20061L28.6374 8.41291L28.8856 8.51366L29.0224 8.60542L29.5675 8.70797ZM28.3765 21.6278L28.2505 21.6566L28.7903 21.2068L28.9036 21.0593H29.0512L28.8083 21.3093L28.3765 21.6278ZM23.9919 24.4975L23.8983 24.5083L24.0153 24.3535L24.2042 24.278L24.6216 23.9811L24.7907 23.9613L24.8789 23.8588L24.9167 23.8444L24.8915 23.9703L24.5568 24.1502L23.9919 24.4975ZM23.3442 25.2171H23.2884L23.4144 24.9832L23.4396 24.8879L23.6447 24.591L23.7526 24.5478L23.7958 24.6756L23.5853 24.8843L23.3442 25.2171ZM22.4446 26.9461L22.3619 27.1099L22.387 26.8616L22.6047 26.302L23.0383 25.568L23.2183 25.4456L22.7181 26.2517L22.4446 26.9461ZM22.8746 30.262L22.835 30.3969L22.6263 29.7636L22.2971 28.3243V27.5129L22.3565 27.2358L22.4284 28.3819L22.7883 29.8428L22.8746 30.262Z" fill="#0057B8"/>
  </g>
  <defs>
    <clipPath id="clip0_6931_11228">
      <rect width="32" height="32" fill="white"/>
    </clipPath>
  </defs>
</svg>