<?xml version="1.0" encoding="UTF-8"?>
<svg fill="none" viewBox="0 0 48 30" xmlns="http://www.w3.org/2000/svg">
<path d="m47.97 3.8091c-0.0714-0.15611-0.2451-0.08378-0.3268-0.12957 0-0.1098 0.0267-0.18005-0.1264-0.19462-0.0468-0.06978-0.1154-0.12164-0.1947-0.14726-0.239 0.00572-0.1429-0.23104-0.1634-0.39964-0.8011 0.15871-0.4111-1.3347-1.0128-1.5543-0.2775-0.30546-0.5981-0.13114-0.8407 0.10407-0.0827-0.31222-0.4758-0.27475-0.5523 0.064-0.2369 0.5058-0.2606 0.98141-0.3628 1.5059 0.0663 0.33927 0.0909 0.50371-0.0982 0.80968 0 0.26487-0.0698-0.1124-0.1027-0.12905-0.2806 1.7172-2.8061 0.65826-3.5214 2.2147-0.131 0.36425-0.6166 0.66398-0.2723 1.1229-0.0165 0.78055-1.3391 0.41265-1.7471 0.70874-0.9763 0.2378 0.167 0.71966-0.447 1.1078-0.3808 0.6593-1.1957 0.80448-1.6602 1.3639-0.1028 0.1217-0.1434 0.1561-0.2708 0.0822-0.2611 0.1847-0.4111 0.257-0.7097 0.1316-0.8093-0.3366 0.4712-0.4522 0.4553-0.96056-0.4044-0.29244 0.0812-0.60778-0.1767-0.77066-0.2529-0.4319-0.3659-1.6454-1.0986-1.0069 0.1747-0.31222 0.2348-0.76233-0.0031-1.0303 0.1973-0.39495-0.3412-0.61455-0.7112-0.68064-0.3232-0.25185-0.5904-0.11968-0.0776-0.16079l0.2811 0.01145-0.075-0.27475c-0.1511-0.24145-0.3782-0.62444-0.5652-0.67335-0.0848-0.07077-0.4337 0.18889-0.3993-0.02602 0.2143-0.4933-1.1911 0-1.3052 0.13581-0.5015 0.46001-0.8221-0.33511-1.2846-0.28984 0.1845-0.11656 0.2246-0.47561 0.1989-0.69-0.6505-0.02029-0.9039 0.8024-1.4901 0.90179-0.2837-0.01041-0.3757 0.42358-0.6912 0.30285 0.0843-0.49122-0.3083-0.42461-0.6217-0.1993 0.5102-0.96579 1.429-0.55835 1.4619-1.6693-0.3906 0.4064-0.8551 0.05724-1.3052 0.06608-0.3725 0.4829-0.5719-0.23832-0.9696-0.0947-0.0226-0.47718-0.074-0.01665-0.3664-0.25706-0.355-0.16079-0.5781 0.13581-0.8473-0.01613-0.4383 0.01196-0.5483-0.20815-0.6053-0.64577-0.0514-0.24926-0.4183-0.13374-0.5889-0.15611-0.0873 1.0407-5.2972 0.10719-6.5037 0.21231-3.3631-0.20815-6.6172-0.72851-9.8657-1.392-1.1356-0.22948-2.2419-0.53962-3.3364-0.78471-0.35146-0.12281-1.4244-0.5724-1.1304 0.1993 0.09712 0.13061 0.06783 0.25082 0.01439 0.36425 0.02312 0.056199-0.17882 0.19097-0.03751 0.20814-0.2451 0.08951 0.03083-0.42357 0.01798-0.4881l-0.43317 0.28828c-0.15415-0.1202-0.48866-0.093145-0.49123-0.29921-0.26874 0.029661-0.45064-0.4293-0.59297-0.59426 0.01798 0.39912-0.2857 0.64525-0.18498 1.0579 0.14593 0.2836 0.04213 0.64317 0.08067 0.9403-0.02261 0.0692-0.14747 0.22739 0.00822 0.23052-0.13771 0.19982 0.05138 0.47977 0.01182 0.69156-0.08735 0.03486-0.23174 0.06609-0.17317 0.20814-0.01181 0.15299-0.14233 0.3372-0.1002 0.50216-0.36431 0.63172-0.50356 1.5809-0.90898 2.1611-0.03083 0.24718-0.18087-0.21595-0.21787-0.22948-0.056522 0.87942-0.4825 1.6704-0.3453 2.6018-0.013874 0.30545-0.20554 0.51724-0.2857 0.80813-0.55752 0.32835-0.20554 0.91792-0.047274 1.3425-0.088377 0.3348-0.14634 0.6771-0.17316 1.0226 0.098144 0.3262 0.30522 0.6166 0.41775 0.8991-0.12846 0.2009 0.017471 0.395 0.085812 0.4403 0.32783 0.2602 0.051384 0.5604 0.087353 0.9158 0.055494 0.2925 0.25692 0.4163 0.39258 0.5552l-0.14542-0.0239-0.038024 0.1993c-0.12897 0.7868 0.62945 1.2551 0.53336 1.8936 0.37614 0.2243 0.05858 0.6916-0.13822 0.9523 0.31293-0.0567 0.36534 0.1009 0.63305 0.18 0.19321 0.0109 0.28107 0.039 0.35147 0.1749 0.17214-0.0188 0.27799-0.0089 0.37665 0.167 0.13462 0.5412 0.9172 0.333 0.63408 1.0215 0.3304-0.2014 0.39463-0.0547 0.59348 0.1816 0.77077 1.3144-0.47376 1.3212 1.7358 1.4534 0.85144-0.0141 1.3016 0.7155 2.1068 1.0407 1.261 0.8461 2.4994 1.4794 4.0696 1.5038 0.2924-0.0166 0.818 0.2519 0.9901 0.0125 0.0663-0.7353 0.9424-0.1951 1.4861-0.2602 0.2086 0.077 0.0606 0.3809 0.2764 0.4085 0.4065 0.2919 0.6742 0.7707 1.0858 1.0616-0.0345 0.104 0.0611 0.232 0.1228 0.3085 0.0318 0.2425-0.0088 0.51 0.132 0.6432 0.1126 0.1712-0.02 0.3242 0.2302 0.3169 0.389 0.3034 0.8042 0.7452 1.3561 0.7733 0.3401-0.1744 0.4182-0.6297 0.6454-0.856 0.1341 0.0442 0.188 0.142 0.2476-0.0713 0.3669 0.1015 0.668 0.0916 0.89 0.3122 0.4476 0.4116 0.7091 1.0157 0.8735 1.5845 0.3494 0.1624 0.3597 0.652 0.7194 0.766-0.0951 0.4215 0.1542 0.6458 0.2765 0.9928-0.0329 0.3185 0.2759 0.497 0.5138 0.498 0.0303 0.1801 0.0915 0.1681 0.2538 0.1426 0.3464 0.205 0.4275 0.2565 0.8607 0.2081 0.1495 0.2035 0.4702 0.2967 0.7482 0.2535-0.0935-0.1291 0-0.2082-0.0072-0.3476-0.0463-0.2233-0.1244-0.4621-0.1876-0.6911-0.1567-0.4381 0.0288-0.7582 0.2349-1.1583 0.2363 0.1764 0.0118-0.2175 0.0714-0.28 0.2009-0.3268 0.3915-0.307 0.6834-0.6041 0.0663-0.1931 0.2399-0.0567 0.391-0.0848 0.2446 0 0.0607-0.2602 0.3494-0.1499 0.1506-0.2425 0.4651-0.231 0.5565-0.5792 0.04-0.048 0.089-0.0873 0.1443-0.1158 0.0552-0.0284 0.1156-0.0453 0.1774-0.0496 0.0139 0-0.1079-0.2519-0.055-0.2212 0.4018 0.0474 0.6654-0.2123 1.0518-0.2784-0.2014 0.2082 0.4013-0.0775 0.4214-0.0484 0.1951 0.0923 0.4031 0.1535 0.6166 0.1816 0.1809 0.1093 0.4172-0.0041 0.5688 0.1202 0.0442-0.1561 0.128 0.0718 0.5375-0.1233 0.0211 0.2264 0.2872 0.3263 0.2991 0.5641 0.1885-0.2654 0.4388-0.0796 0.6998-0.1041 0.0298-0.4048 0.0858-0.0276 0.314-0.0296 0.4059-0.0131 0.2009-0.4939 0.5847-0.2233-0.0586 0.204 0.4275 0.1499 0.5904 0.2461 0.2441-0.3122 0.0827-0.5812-0.1074-0.767-0.1089 0.0718-0.1829 0.0162-0.2286-0.0962 0.3941 0.0556-0.257-0.6833 0.3489-0.7697 0.1921 0.0916 0.427 0.1562 0.5832-0.0114 0.3972-0.0916 0.578 0.242 0.8067 0.0286 0.0416-0.0973 0.1141-0.0942 0.2025-0.077-0.0288-0.0786 0.1541-0.0848 0.1238-0.0099 0.1896-0.0468 0.742-0.3034 0.3597 0 0.3504-0.0989 0.7651-0.052 1.0621 0.0214-0.2667 0.282 0.0545 0.1561 0.2281 0.2133 0.2318 0.1212 0.1434 1.0199 0.4497 0.2659 0.3468-0.0255 0.5652-0.2831 0.8632-0.4683-0.1336-0.2139 0.2739-0.1041 0.4054-0.0203 0.0267 0.1712 0.3263 0.2201 0.1845 0.4121 0.1449 0.0182 0.261 0.0427 0.3741 0.1613 0.9151 0.3726 0.4624 1.0095 0.575 1.7823 0.2569-0.115 0.1747 0.3939 0.3787 0.409 0.1844 0.5542 0.9079 0.8294 1.0749 1.4341 0.3016 0.1499 0.4162 0.0406 0.6022 0.3845 0.0771 0.1 0.1516 0.1869 0.2215 0.2868 0.1238-0.0828 0.1542 0.1425 0.1968 0.2034 0.3191-0.0223 0.5812-0.2419 0.892-0.1264-0.169-0.5875 0.239-1.5611-0.0364-2.1517-0.2056-0.7806-1.1706-1.3134-0.8962-2.108-0.6983-0.371-1.1551-1.687-1.3288-2.4457 0.0586-0.0333 0.1213-0.127 0.1203-0.2675 0.3627-0.052 0.0817-0.1275 0-0.2872 0.1413-0.1171 0.1803 0.1873 0.1027-0.3299 0.1717-0.1676 0.2698-0.4533 0.3546-0.6895-0.0668-0.0401-0.1146-0.0312-0.0386-0.1041 0.4486-0.0302 0.3489-0.357 0.8736-0.0359l-0.1824-0.3814c0.1639 0.0229 0.0077-0.3825 0.3525-0.3076 0.2055-0.5724 0.1644-1.253 0.9906-1.3082 0.1927 0.0136 0.0787-0.2378 0.2266-0.1717-0.1027-0.4896 0.4476-0.996 0.8736-1.0475 0.3083 0.0073 0.2204-0.1134 0.2569-0.3642-0.0514-0.2441-0.3772-0.4751 0.0766-0.3981 0.1248-0.1353 0.1063-0.4246 0.3386-0.3643 0.1315-0.4032-0.3541-0.8148-0.149-0.973-0.3027-0.0521-0.2821-0.3456-0.3412-0.586-0.0463-0.371-0.4496-0.1956-0.4558-0.5479 0.3304 0.0916 0.4625-0.1894 0.6598-0.4022-0.1603-0.2717 0.0883-0.7129 0.2261-0.9971-0.0684-0.2284-0.1881-0.4267-0.1146-0.6801l-0.2205 0.0115c-0.0092-0.0604 0.0483-0.0921 0.1069-0.0739 0.4111 0.1972 0.3032-0.038 0.3386-0.3502 0.4111-0.4637 0.0936-1.1937 0.3417-1.6053 0.6614-0.2706 1.1819-0.72856 1.7985-1.0564 0.0031 0-0.5005-0.07546-0.4537-0.09211l0.077 0.01041c-0.0441-0.1483 0.1542-0.18525 0.257-0.24353-0.0165-0.26955 0.6001 0.07909 0.7008-0.16027 0.0735-0.04059 0.0725-0.24457 0.0745-0.34813 0.4301-0.15194 0.6788-0.41629 0.1737-0.68219-0.3448 0.36425-0.389 0.10407-0.6094-0.1379-0.0894-0.17172-0.2662-0.06973-0.0267-0.24873-0.2569-0.23208-0.1727-0.58645-0.1485-0.87213 0.1988-0.20815 0.0514-0.511 0.334-0.65254 0.0452-0.20814 0.2261 0 0.3252-0.27527 0.0746-0.02342 0.2128-0.08794 0.2765-0.17953-0.1454-0.29608 0.1213-0.30857 0.3247-0.37674 0.24-0.11864 0.3438-0.16339 0.5879 0.02082-0.6022-0.92729 0.9424-0.54014 0.6772-1.1963zm-28.556 21.611c-0.0081 0.0211-0.0234 0.0385-0.0431 0.0491s-0.0425 0.0137-0.0643 0.0086c0.0206-0.0015 0.1588-0.2019 0.1074-0.0577zm4.0213 2.3864c0.0036-0.0521 0.0165-0.0562 0.0607-0.0297l-0.0607 0.0297zm2.2193-24.622c-0.0036-0.0562 0.02-0.03278 0.0396 0.00469l-0.0396-0.00469zm16.449 10.484c-0.0082-0.0166-0.0195-0.0375 0.0134-0.038l-0.0134 0.038zm0.1094 0.5282c0.0268 0.2295-0.0827-0.0666-0.0411-0.1468 0.0093-0.0821 3e-3 -0.1653-0.0185-0.2451 0.092-0.0177 0.0596 0.0224 0.0411 0.0849 0.1316-0.0333-0.0215 0.2263 0.0185 0.307zm3.0831-5.4363c0-0.07389-0.0041-0.09159 0.0704-0.06193l-0.0704 0.06193z" fill="url(#a)"/>
<defs>
<linearGradient id="a" x1="-.0012817" x2="26.96" y2="43.145" gradientUnits="userSpaceOnUse">
<stop stop-color="#50C476" offset="0"/>
<stop stop-color="#64CCC9" offset="1"/>
</linearGradient>
</defs>
</svg>
