<svg xmlns="http://www.w3.org/2000/svg" width="32" height="32" viewBox="0 0 32 32" fill="none">
  <path d="M21.2303 2.30281L21.1142 3.00998L20.9946 3.71714L20.8785 4.44243L20.7588 5.14597L20.6428 5.87126L20.5231 6.59656L20.4071 7.30372L20.2874 8.01088L21.3753 8.18858L22.4633 8.36265L23.5512 8.53672L24.6392 8.70717L25.7271 8.87035L26.815 9.03355L27.903 9.19311L28.9909 9.34905L28.7842 10.7706L28.5811 12.1886L28.3744 13.6102L28.1714 15.0281L27.9646 16.4461L27.7616 17.864L27.5548 19.282L27.3518 20.6999L27.1451 22.1179L26.942 23.5358L26.7353 24.9538L26.5322 26.3717L26.3255 27.7897L26.1224 29.2076L25.8214 30.5821L25.6183 32L24.1895 31.7788L22.7715 31.5648L21.3536 31.3472L19.932 31.1224L18.5177 30.8939L17.1179 30.6908L15.6999 30.4515L14.2856 30.2085L12.8713 29.9619L11.4606 29.7081L10.0462 29.4506L8.63554 29.1895L7.22484 28.9211L5.81777 28.6491L4.4107 28.3735L3 28.0907L3.17769 27.2131L3.35539 26.3354L3.53309 25.4578L3.70716 24.5802L3.88485 23.7026L4.05893 22.825L4.23662 21.9474L4.4107 21.0698L4.58839 20.1922L4.76609 19.3146L4.94016 18.437L5.11786 17.5594L5.29555 16.6818L5.46963 15.8042L5.6437 14.9266L5.8214 14.049L5.99909 13.1714L6.17316 12.2937L6.35086 11.4161L6.52493 10.5385L6.70263 9.66093L6.88033 8.78332L7.05439 7.90572L7.23209 7.02448L7.40979 6.1505L7.58386 5.26927L7.76156 4.39166L7.93926 3.51405L8.11332 2.63282L8.29102 1.75884L8.46509 0.877611L8.64279 0L9.42974 0.155936L10.2131 0.311882L11 0.464188L11.7869 0.616505L12.5739 0.768811L13.3608 0.917497L14.1478 1.06618L14.9347 1.21124L15.7253 1.3563L16.5086 1.49774L17.2992 1.63917L18.0898 1.7806L18.8767 1.91841L19.6564 2.04171L20.447 2.17588L21.2303 2.30281Z" fill="#0057B8"/>
</svg>