<svg xmlns="http://www.w3.org/2000/svg" width="32" height="32" viewBox="0 0 32 32" fill="none">
  <path d="M22.1677 30.4076L21.2669 30.6087L20.3662 30.8098L19.4654 31.0108L18.5567 31.2119L17.6559 31.4049L16.7552 31.6059L15.8545 31.807L14.9538 32L14.5115 31.3084V30.6328L14.3104 29.7643L14.045 28.6223L13.7474 27.3677L13.3453 25.6627L13.088 24.5207L12.8467 23.4994L12.517 22.092L11.7851 21.4486L11.5358 21.3682L11.3911 21.4888L11.1337 22.1H11.0131L10.8844 21.9874L10.7879 21.5129L10.6995 19.7678L10.5788 19.245L10.2812 18.3765L9.38857 16.4624L9.26791 16.0121V15.2722L9.34836 14.5162L9.60572 13.712V13.3903L9.25986 12.1679L9.09906 11.0018L8.10983 9.39332L7.75597 7.13345L7.33781 6.12013L7.27346 5.09877L7 4.29454L8.49589 3.90048L12.147 2.95149L15.8062 1.98643L19.4494 0.99724L23.0925 0L23.0201 0.281483L23.4946 1.20633L22.9879 3.15255L23.1568 3.68334L23.9611 5.05052L24.0334 5.41241L23.9369 5.62152V6.29706L23.7922 6.77155L23.5027 7.27016L22.4974 8.54889L22.1918 8.88666L21.09 9.52199L20.9211 9.94823L21.2428 12.3529L21.1945 13.7281L21.2749 14.3393L21.0176 15.4893L20.897 16.752L20.4788 17.8618L20.4386 19.1083L20.334 19.6069V20.3629L20.7844 22.848L20.8487 24.2473L21.1463 26.66L21.09 27.2873L20.9613 27.6572V28.7107L21.0256 29.0887L21.2347 29.3863L21.9505 30.0377L22.1677 30.4076Z" fill="#0057B8"/>
</svg>