<svg xmlns="http://www.w3.org/2000/svg" width="32" height="32" viewBox="0 0 32 32" fill="none">
  <path d="M20.974 7.06679L21.2316 7.20036L21.7913 7.31167L22.0489 7.48977L22.0044 7.73147L22.0235 7.89684L22.1539 8.02088L22.9044 8.17035L23.4164 8.48838L23.7058 8.55834L23.7917 8.57743L23.9984 8.63784L24.1129 8.74916L24.1701 9.31843L24.0493 9.63646L23.814 9.90996L23.5246 10.3647V10.7305L23.5436 11.4079L23.7472 11.5923L23.9189 11.6178L24.361 11.3729H24.6186L25.3278 12.0439L26.4091 12.1362L26.8225 12.2475L27.2137 12.5909L27.7194 12.7277L28.1455 12.9917L28.2059 13.2143L28.1423 13.5069L28.1709 13.8758L28.0692 14.1334L27.7162 14.2351H27.484L26.0402 13.2302L25.8748 13.1443L25.3023 12.5782L24.7203 12.3333L24.5645 12.3747L25.4264 12.874L25.8207 13.2683L26.479 13.7963L26.9084 13.9871L27.2773 14.3465L27.5731 14.4896L28.3331 14.62L28.136 14.8744L28.5621 14.9602L28.6862 15.2783L28.7307 15.6472L28.1614 15.6218L28.1996 15.8921L28.2822 16.0384L28.0724 16.2196L27.7034 16.1147L26.6349 15.3387L26.6698 15.4627L26.7716 15.5963L27.4077 16.1115L27.9356 16.3882L28.349 16.4741L28.7084 16.7189L28.8547 16.8843L28.9851 17.1546L28.8102 17.3995L28.5876 17.5585L28.3045 17.4186L28.0819 17.2532L27.6335 16.9893L27.4363 16.6235L27.1533 16.7062L25.8557 16.4677L24.9016 16.614L25.0161 16.6935L25.1497 16.7317L25.9416 16.6935L26.2914 16.8557L26.9624 16.9225L27.3441 16.897L27.6239 17.479L28.2282 17.7971L28.3618 18.0992L28.7148 18.0578L29.2618 17.6126L29.6784 17.6349L30.2699 17.5967L30.4544 17.8161L30.6579 18.2646L30.976 18.7511L31.224 19.2441L31.1 19.2727L30.782 19.3395L29.7961 19.5526L28.3618 19.8515L26.9243 20.1473L25.4836 20.4367L24.0429 20.7197L22.6023 20.9964L21.1584 21.2699L19.7178 21.5371L18.2707 21.7947L16.8269 22.0523L15.3798 22.3003L13.9296 22.542L12.4826 22.7806L11.0324 23.0095L9.58538 23.2353L8.13517 23.4548L8.05248 23.3912L7.48003 23.458L7.05705 23.5088L6.88532 23.6392L6.04572 23.7664L5.3715 23.865L4.23932 24.0304L2.85907 24.2244L0.909556 24.4916L0 24.6124L0.375271 24.3198L0.954085 24.0972L1.96541 23.5407L2.33115 23.0636L2.88452 22.6756L3.08169 22.2781L3.43154 21.8774L3.52058 21.4671L3.5651 21.4003L4.16935 20.9487L4.8054 20.4081L6.1157 18.9738L6.16976 19.1264L6.14431 19.3077L6.30014 19.489L6.45597 19.807L6.63406 19.9787L6.84079 20.1028L7.15882 20.1918L7.56272 20.3763L7.85848 20.4017L7.95389 20.3763L8.23376 20.0932L8.47546 19.9247L8.70761 19.6257L9.25145 19.8961L9.44863 19.8642L9.90022 19.6321L10.3455 19.5176L10.4504 19.454L10.5903 19.2822L10.5458 18.9897L10.5713 18.907L10.638 18.8593L10.7271 18.837L10.9465 18.9102L11.1469 18.8784L11.9292 18.3981H11.996L12.1296 18.5349L12.4476 18.2741L12.6353 18.0515L12.6798 17.7557L12.8134 17.4536L12.7561 17.3391L12.6098 17.2024L12.702 16.808L12.8642 16.4073L13.5194 15.1574L13.6689 14.445L13.9424 13.9521L13.9964 13.5895L14.2032 13.2079L14.2604 12.4796L14.3494 12.3206L14.5053 12.2665L14.6865 12.3238L14.8297 12.4319L14.9441 12.6259L15.4021 12.7309L15.7615 12.6863L15.9841 12.5083L16.0859 12.2379L16.194 11.7418L16.3308 11.4238L16.3848 11.0612L16.4643 10.8004L16.6265 10.616L17.1068 10.5333L17.3071 10.2789L17.4502 10.0054L17.552 9.90678L17.6855 9.89088L18.0418 9.42656L18.4488 8.52017L18.4711 7.99543L18.5474 7.60425L18.5315 7.22262L18.6015 7L19.1739 7.30213L19.492 7.47704L20.2457 7.87458L20.7482 8.13536L20.8372 7.69967L20.974 7.06679ZM31.8982 11.4174L32 11.3793L31.7551 12.2188L31.5993 12.3397L31.8982 11.4174ZM30.4226 12.1807L30.5244 11.9263L31.0873 11.7164L31.4403 11.5828L31.0268 13.7072L31.1445 14.0539L30.995 14.2097L30.7533 14.3624L30.5371 14.6359L30.413 14.9094L30.3908 15.5772L30.2349 16.3564L29.971 16.1052L29.866 15.8634L29.8056 15.1829L29.901 14.0252L30.1236 13.2683L30.3367 12.8867L30.4226 12.1807Z" fill="#0057B8"/>
</svg>