<svg xmlns="http://www.w3.org/2000/svg" width="32" height="32" viewBox="0 0 32 32" fill="none">
  <path d="M28.4357 27.9793L27.427 27.7422L26.343 27.4862L25.2665 27.2265L24.1863 26.9631L23.1099 26.6958L22.0334 26.4286L20.957 26.1576L19.8805 25.8828L19.809 25.864L19.6622 25.9431L19.0901 26.0221L18.055 25.8189H15.8607L14.8445 26.0146H13.9901L12.462 25.8113L11.043 25.7323L10.4898 25.5441L10.3166 25.2392L9.71442 24.9118L8.67185 24.573L7.73841 24.4789L6.77111 24.7386L6.49636 24.7123L6.28182 24.6634L4.89297 24.0386L4.53917 23.9181L4.3171 23.5606L4.36603 23.0976V21.6674L4.21172 20.7641L3.89179 20.3877L3.6095 20.1844L3.16914 20.207L3.06752 20.0903L2.88685 20.015L2.55564 19.5973L2.40508 19.2209L1.65232 19.0101L1.55822 18.7768L0.677489 18.7015L0.485536 18.4305L0 18.4079L0.278525 17.9073L0.474245 17.2298L0.7076 16.5824L0.666198 17.0943L0.782875 17.6928L1.09903 17.1583L1.41896 16.462L1.2383 16.0856L0.861918 15.7356L0.918373 15.0092L2.16043 14.7721L1.64103 14.4709L1.50177 14.1435L1.2383 14.023L1.1555 14.2188L0.982357 14.4484V14.072L1.08398 13.6542L1.1969 12.9203L1.12915 11.6594L1.33992 10.1162L1.24959 9.29193L0.850627 8.3999L0.816748 7.94448L1.00118 6.87932L1.33616 6.12656L1.40014 5.54316L1.6862 5.67113L2.32604 6.35239L3.19172 6.99976L3.41002 7.33851L3.82404 7.67349L6.36086 8.77628L6.54152 8.80263L6.9179 8.73488L7.05716 8.80263L7.3244 9.32204L7.5013 9.42743L7.761 9.48388L7.96801 9.46506L8.37074 9.28816V9.40484L8.28793 9.65702V10.0522L8.37827 10.5904V10.9367L7.65561 11.618H7.56151L7.68196 11.3131L7.63679 11.2416L6.31946 12.3707L5.80005 12.9315L5.67584 13.2214L5.63444 13.3983L5.74735 13.4773L6.05599 13.4999L6.5641 13.3531L6.60174 13.3004L6.17643 13.2778L5.98071 13.2251L6.10116 12.924L6.19525 12.7885L6.59421 12.4121L6.94801 12.2164L7.42225 12.0395L7.71583 11.8664L7.97554 11.5577L8.52882 11.2642L8.6455 11.1701L8.73206 10.8163L8.78099 10.7561L8.96918 10.8652L8.87509 11.4938L8.74336 11.7422L8.27664 11.9567L8.1976 12.0583L8.12609 12.5251L8.05834 12.5514L7.93037 12.4573H7.88144L8.08469 13.0445V13.4547L7.99812 13.7935L7.70831 14.4107L7.57657 14.486L7.41096 14.3957L7.24159 14.1247L7.17008 14.1736L6.8351 14.6177L6.78617 14.5537L6.85015 13.9252L6.80123 13.8612L6.36462 14.023L6.14256 14.2414L5.89414 14.6177L5.67584 14.7608L6.10868 14.9414L6.53399 14.9791L6.79746 15.2726L6.90284 15.314L7.25664 15.2087L7.38462 15.1033L7.81746 14.5537L7.97177 14.4785L8.15244 14.5274L8.35568 14.4898L8.73206 14.2225L8.78475 14.0908L8.92025 13.2929L9.07834 12.8638V12.7095L9.00682 12.5326L9.06328 12.3971L9.22136 12.1938L9.28911 11.9868L9.26653 11.7798L9.36439 11.5803L9.74077 11.204L9.84616 11.0195L10.2752 10.6431L10.2564 10.4399L10.1021 10.1538L10.0231 9.91672L9.97412 9.57045L9.89885 9.43872L9.84992 9.47635V10.0183L9.80851 10.0409L9.50365 9.66454L9.46601 9.46883L9.48859 9.22795L9.5714 9.0661L9.8311 8.95695H10.0946L10.1172 8.81016L9.94025 8.30204L9.79722 8.02729L9.67302 7.87673L9.46977 7.7864L9.41332 7.67349V7.55681L9.49988 7.42507H9.62409L9.93649 7.57939L10.1435 7.53423L10.1811 7.34227V7.22559L10.3844 6.56692L10.422 5.99106L10.3844 5.88191L10.3204 5.8518L10.2263 5.90449L10.0155 5.85932L9.94025 5.64479L9.90261 5.26841V4.37638L10.279 4.49682L11.9087 4.98235L13.5385 5.46413L15.1682 5.9346L16.8017 6.40131L18.439 6.8605L20.0762 7.3084L21.7172 7.75252L23.362 8.18537L25.0031 8.61068L26.6516 9.02846L28.3002 9.43872L29.945 9.84521L31.5973 10.2404L32 10.3383L31.7855 11.2792L31.5672 12.2239L31.3489 13.1687L31.1306 14.1096L30.9085 15.0543L30.6902 15.9953L30.4719 16.9362L30.2498 17.881L30.0315 18.8219L29.8132 19.7629L29.5987 20.7038L29.3766 21.6448L29.1621 22.582L28.9438 23.5229L28.7292 24.4601L28.5109 25.3973L28.4695 25.4462L28.4093 25.5742L28.4319 25.992L28.5712 26.6281V27.0459L28.4131 27.2529L28.3943 27.6707L28.4357 27.9793ZM8.74336 4L8.88638 4.0414L8.80734 4.11291L8.75841 4.0828L8.74336 4ZM9.3418 6.20559V6.34862L9.14985 6.4239H9.03694L8.92025 6.17549L8.85251 6.13032L8.81863 6.45401L8.76594 6.5481L8.46483 6.25452L8.44225 6.08515L8.58904 5.96095L8.8638 5.87061H8.9466L9.3418 6.20559ZM8.15244 6.93201L8.1976 7.15032L7.82122 6.9019L7.68196 6.74006L7.66314 6.61585L7.70831 6.23947L7.77229 6.13409H7.96801L8.17879 6.67231L8.15244 6.93201ZM8.7697 7.56057L8.69066 7.59821L8.51 7.45895L8.42719 7.28957V7.11644L8.59656 6.83416L8.72454 6.78522L8.78475 6.82287L8.7283 7.10138L8.81863 7.44389L8.7697 7.56057ZM9.24394 9.44248L9.20631 10.2592L9.38321 9.96941L9.75959 10.6733L9.68055 10.9405L9.59022 11.0158H9.46977L9.3945 10.9028L9.35686 10.6883L9.26653 10.5528L9.03317 10.4135L8.96918 10.1576V9.99576L9.08586 9.57045L9.05952 9.4199L8.93531 9.34838L8.83369 9.20913L8.7283 8.85533V8.76499L8.89391 8.55046L9.23265 8.21171L9.44719 8.06869L9.53752 8.11761L9.62032 8.27569L9.6956 8.53917L9.62032 8.68972L8.95036 8.82145L8.91273 8.8892L9.1649 9.05857L9.24394 9.16772V9.44248ZM8.56269 12.7772L8.51 12.8826L8.3331 12.6831L8.29922 12.5401L8.38956 12.2691L8.49494 12.1073L8.54764 12.0809L8.65302 12.1976V12.2541L8.56269 12.7772ZM8.62291 14.0494L8.56646 14.1774L8.38579 14.2301L8.31428 14.1849L8.35568 14.0268L8.31804 13.9929L8.1035 14.1284L8.22395 13.7521L8.41967 13.3757H8.49494L8.52129 13.6617L8.62291 14.0494ZM6.49259 14.6064L6.41731 14.7081L6.36462 14.6855L6.31193 14.4183L6.3458 14.2526L6.48883 14.1661L6.52646 14.5425L6.49259 14.6064Z" fill="#0057B8"/>
</svg>