<svg xmlns="http://www.w3.org/2000/svg" width="32" height="32" viewBox="0 0 32 32" fill="none">
  <g clip-path="url(#clip0_6931_11248)">
    <path d="M19.5178 6.82224L19.7031 7.94524L19.8884 9.06825L20.0793 10.1912L20.2646 11.3143L21.0114 10.5001L21.4213 10.1856L22.6285 8.50114L22.8194 8.45621L23.3809 8.5629L24.24 7.34443L24.2962 6.95139L24.3972 6.8054H24.532L24.6331 6.88962V7.10861L24.7285 7.19283L25.2114 7.35567H25.8459H25.9302L26.4917 7.24337L26.6938 7.00192L26.7331 6.5808L26.9296 6.30567L27.4574 6.0979L28.3502 5.50271L28.9117 5.4578L29.4732 5.76661L29.9954 5.8677L30.4783 5.74977L30.6861 5.81154L30.6131 6.04176L30.7928 6.25514L31.2195 6.45165L31.3936 6.67626L31.3206 6.93455L31.3936 7.09739L31.6126 7.16476L31.781 7.39498L31.9045 7.7824L32 7.83856L31.7754 8.96156L31.6181 9.72521L30.731 9.26477L29.3946 8.55728L28.8331 8.25408L27.8168 7.69258L27.6933 8.08562L27.7213 8.75943L27.5922 9.45006L27.5529 10.3766L26.8342 11.9768L26.2053 12.7966L25.9694 12.8247L25.7954 13.0044L25.5427 13.4873L25.1834 13.9309L24.3355 14.0768L24.0547 14.4025L23.9087 14.8629L23.8133 15.503L23.5719 16.0646L23.3753 16.9349L23.2012 17.4122L22.8082 17.7266L22.1737 17.8052L21.3652 17.6199L21.163 17.2774L20.9103 17.0921L20.5903 16.9854L20.3095 17.0809L20.1579 17.3616L20.0625 18.6419L19.6975 19.3213L19.6077 19.9614L19.1192 20.8261L18.8552 22.0895L17.6985 24.2962L17.4065 25.0037L17.2493 25.6999L17.502 25.9358L17.6143 26.1435L17.3729 26.6769L17.2943 27.1935L16.963 27.5866L16.3734 28.0526L16.1376 27.8112L16.0197 27.7831L14.5766 28.6366L14.2285 28.6871L13.8354 28.558L13.6838 28.5973L13.5603 28.6815L13.5153 28.8275L13.5996 29.3385L13.3413 29.6473L13.156 29.7652L12.3755 29.9673L11.5782 30.3772L11.2357 30.4334L10.2699 29.9561L9.85997 30.4839L9.43325 30.7759L8.93913 31.2812L8.77065 31.3262L8.25408 31.2869L7.541 30.9556L6.97949 30.7984L6.6145 30.5794L6.30006 30.2705L6.02493 29.7427L5.74418 29.4227L5.80032 29.1026L5.69925 28.8331L4.69418 28.7096L3.31287 27.8673L2.33587 26.7443L1.99894 26.1828L1.65082 25.8403L1.51606 25.4529L0.623293 24.5488L0.359369 24.1333L0.303233 23.8582L0.466056 23.2967V23.0216L0.196546 21.7301L0 21.5111L0.836666 21.6852L1.57782 21.4044L1.99336 20.9272L2.08318 20.2646L2.29094 19.8603L2.61662 19.7031L2.72892 19.3999L2.57169 18.7317L2.392 18.2769L2.56607 17.5638L3.03212 16.4408L3.45325 15.941L3.82944 16.0758L4.09899 16.3678L4.24495 16.8114L4.32919 16.8619H4.42463L4.63239 16.4688L4.85138 16.2948H4.95245H5.05351V16.0646L4.76718 15.4694L4.72225 15.0988L4.92438 14.9528L5.09282 14.498L5.22199 13.7287L5.45781 13.3132L5.80032 13.2402L6.126 12.8808L6.43482 12.2407L6.76612 12.0161L7.12546 12.207L7.53537 12.1621L7.98457 11.8758L8.72013 11.129L9.74207 9.92174L10.2081 9.00649L10.1183 8.37761L10.326 6.78293L10.8258 4.21126L11.0055 2.57167L10.8707 1.86419L10.6405 1.30269L10.326 0.898406L10.4103 0.516589L11.1346 0L11.303 1.0107L11.4771 2.02141L11.6456 3.0321L11.8252 4.04282L11.9993 5.05351L12.1734 6.06421L12.3474 7.08053L12.5215 8.09124L13.403 7.93964L14.2846 7.7824L15.1605 7.6308L16.0421 7.47358L16.918 7.31636L17.7996 7.15914L18.6755 6.9963L19.5178 6.82224Z" fill="#0057B8"/>
  </g>
  <defs>
    <clipPath id="clip0_6931_11248">
      <rect width="32" height="32" fill="white"/>
    </clipPath>
  </defs>
</svg>