<svg xmlns="http://www.w3.org/2000/svg" width="32" height="32" viewBox="0 0 32 32" fill="none">
  <path d="M12.5646 0.326256L12.4103 0.445299L12.3486 0.396801L12.375 0.176354L12.4456 0.0440852L12.5646 0L12.6308 0.0484985V0.189581L12.5646 0.326256ZM11.2419 1.09782L11.1714 1.15073L10.9818 1.04491L10.951 0.947917L10.9906 0.846514H11.0788L11.2067 0.983189L11.2419 1.09782ZM12.8336 3.36401V3.41692L12.9438 3.66823L13.1907 3.58445L13.3097 3.73436L13.4596 3.78727L13.7462 3.89749L13.9005 4.17966L14.0548 4.46624L14.2047 4.75282L14.359 5.035L14.9763 5.16726L15.5935 5.29512L16.2152 5.42298L16.8325 5.54643L17.4541 5.67429L18.0758 5.79774L18.6974 5.9256L19.3191 6.04464L19.6762 6.21659L20.0333 6.39295L20.3905 6.56048L20.752 6.72802H21.2899L21.7749 6.80739L22.445 6.75889L23.1284 6.84707L24.1513 7.09396L24.407 7.35409L24.4599 7.53926L24.4026 7.98016L25.3858 8.28879L25.8267 8.5445L25.9986 8.75613V8.95894L26.1309 9.37338L26.0515 9.61147L26.0868 10.0127L25.9104 10.4536L25.8575 10.6872V10.8768L25.9149 10.9959L26.0339 11.0355L26.391 10.9782L26.7393 10.8195L26.9025 10.8856L26.9421 10.9474V11.0664L26.7217 11.8115L26.757 12.0981L26.9069 12.367L27.1317 12.6272L27.3742 12.6977V12.8785L27.3125 13.24L27.0568 13.5442L26.3558 13.9631L26.2632 14.21V14.404L25.862 15.2858L25.6812 15.8016L25.571 16.3351L25.6459 16.6569L25.906 16.7716L26.1044 16.701L26.2367 16.4497L26.4527 16.216L26.7525 15.9956L26.9598 15.6914L27.2199 14.9771L27.5418 14.5362L27.7313 14.4966H27.7842L28.1414 14.2849L28.4456 14.3158L28.6528 14.5671L28.86 14.7346L28.9129 14.9022L28.86 15.299L28.7278 15.7399L28.5161 16.1808L28.3486 16.8465L28.2251 17.7283V18.3808L28.3883 18.8217L28.3133 19.2229L28.0003 19.5977L27.7622 20.0871L27.6079 20.6779L27.5329 21.1717V21.5641L27.5902 21.8551L27.7578 22.2386V22.4414L27.458 23.3232L27.361 23.7641V24.0992L27.2993 24.4387L27.07 25.1309L27.0127 25.5145V25.854L27.1317 26.4095V26.5991L27.1626 26.7402L27.242 26.8327V27.0091L27.189 27.2692L27.2375 27.4676L27.383 27.5999L27.4933 27.8644L27.5682 28.2568L27.6961 28.5831L27.8812 28.8388L27.943 29.2268L27.8856 29.7426L27.9209 30.7038L27.9518 31.0212L27.2904 31.0741L24.9713 31.2549L22.6522 31.4268L20.3288 31.59L18.0052 31.7355L15.6817 31.8722L13.3097 32L13.2745 31.9515L13.0805 31.3298L12.5337 30.889L11.652 30.6376L11.0656 30.1967L10.7834 29.5575L10.585 28.8388L10.4748 28.032L10.5101 27.3486L10.6864 26.7887L10.6159 26.4227L10.294 26.2464L10.0736 26.0039L9.95895 25.6908L9.89721 25.2499L9.62386 23.1954L9.35934 22.2386L9.02426 21.8727L8.33646 21.4627L7.29594 21.0218L6.64784 20.5809L6.25544 19.9372L5.50593 19.1921L5.02094 18.8923L4.55801 18.7909L4.18325 18.5572L3.89667 18.1868L3.51309 17.962L3.03251 17.8782L2.48581 17.5872L1.83328 17.0449V17.0008L1.68779 16.5996L1.75392 16.3703L1.83328 15.5812L1.81124 15.3343L1.64811 14.6244L1.81124 14.3422L1.74511 13.4605L1.7936 13.1695L2.10665 12.4376V12.0672L1.97437 11.6484L1.71424 11.3089L1.03527 10.9694L1 10.5285L1.097 10.189L1.50702 9.54974L1.72747 8.98539L1.93469 8.73409L3.2221 7.8523L3.50427 7.78176L3.69826 7.53926L3.85258 7.42904L3.8129 6.41499L3.77322 5.40094L3.73354 4.39129L3.68945 3.37724L4.01571 3.29347L4.14797 3.03334L4.46541 2.62331H4.5536L4.72555 2.79526L5.16644 3.04216H5.48829L5.89831 2.97161L7.50317 2.44254L8.17772 2.09424L8.82144 1.53431H8.89199L9.17414 1.61367L9.26674 1.65335L10.1088 1.00082L10.391 0.908238H10.6159L10.9068 1.12868L10.9774 1.26977L10.9025 1.55635L10.6732 1.99724L10.5674 2.34996V2.62772L10.4792 2.94075L10.2235 3.38165L10.3293 3.49187L11.0524 3.15238L11.1537 3.02893V2.95839L11.1053 2.87903L11.1846 2.83935L11.793 3.2097L12.1943 3.4081L12.5249 3.49628L12.8336 3.36401ZM12.0488 1.11105L11.8901 1.15954L11.5374 1.11986V1.01846L11.8901 0.855333L12.0488 0.802422L12.0885 0.85974L12.0488 1.11105ZM11.3125 2.11629L11.0435 2.22651H10.9289L10.9642 2.09424L11.1008 1.9267L11.7181 1.48581H11.8327L11.8724 1.5784L11.5726 1.79002L11.4624 1.90025V2.00606L11.3125 2.11629ZM30.8837 10.6476L30.7426 10.7313H30.4693L30.3547 10.5814L30.4561 10.167L30.5222 10.2375H30.7559L30.8396 10.2684L30.8749 10.3654L30.8837 10.6476ZM30.3018 11.5029L30.2224 11.5999L30.0637 11.5558L30.0152 11.6925L30.0813 12.0143L30.046 12.1686H29.9093V12.226L30.0416 12.3582L30.0681 12.5125L29.9887 12.6889L29.9093 12.7771H29.8212L29.7065 12.9843L29.561 13.3987L29.5214 13.6368L29.5875 13.6985L29.5566 13.8352L29.1598 14.4877L28.9879 14.5627L28.7895 14.4966L28.6352 14.329L28.5294 14.0689L28.4853 13.8617V13.7118L28.838 13.1342L28.9835 12.7638L29.0452 12.3582L29.2039 12.0893L29.464 11.9526L29.658 11.6881L29.7859 11.2869L29.9623 11.1061L30.1871 11.1325L30.2973 11.2648L30.3018 11.5029Z" fill="#0057B8"/>
</svg>