<svg xmlns="http://www.w3.org/2000/svg" width="32" height="32" viewBox="0 0 32 32" fill="none">
  <path d="M31.0247 17.9709L30.9027 19.3873L30.7808 20.8037L30.6589 22.2165L30.537 23.6508L30.4151 25.0637L30.2967 26.4801L30.1748 27.8929L30.0529 29.3057L28.7082 29.1838L27.3671 29.0583L26.0224 28.9256L24.6777 28.7929L23.3366 28.6531L21.9955 28.5096L20.6544 28.359L19.3133 28.2048L17.9722 28.0471L16.6311 27.8821L15.2936 27.7172L13.9561 27.5451L12.615 27.3658L11.281 27.1865L9.94352 27L8.60601 26.8064L7.53026 26.6522L6.45451 26.4944L5.37875 26.333L4.303 26.1717L3.22725 26.0031L2.1515 25.831L1.07575 25.6589L0 25.4832L0.118328 24.784L0.233077 24.0847L0.351405 23.3676L0.466154 22.6504L0.584482 21.9547L0.699232 21.2376L0.81757 20.5383L0.932309 19.8391L1.07933 18.9642L1.22635 18.0892L1.36978 17.2143L1.62079 16.3823L1.76781 15.5074L1.91484 14.6325L2.05827 13.7575L2.20529 12.8826L2.35231 12.004L2.49933 11.1291L2.64276 10.2542L2.78978 9.37562L2.9368 8.50068L3.08381 7.62573L3.23083 6.7472L3.37427 5.86867L3.4926 5.1515L3.61093 4.43433L3.73286 3.71717L3.85118 3L4.72613 3.14702L5.59749 3.29046L6.47602 3.43389L7.35096 3.57015L8.22949 3.70641L9.10443 3.83909L9.98297 3.97176L10.8615 4.10444L11.7364 4.23353L12.615 4.35904L13.4935 4.48454L14.372 4.60646L15.2506 4.72479L16.1327 4.84313L17.0076 4.95787L17.8897 5.07262L18.7683 5.18019L19.6504 5.29135L20.5289 5.39893L21.411 5.50292L22.2931 5.6069L23.1753 5.70731L24.0538 5.80771L24.9359 5.90453L25.818 5.99418L26.7001 6.09099L27.5858 6.17705L28.4679 6.2667L29.3501 6.35276L30.2322 6.43523L31.1179 6.51771L32 6.5966L31.8781 8.03093L31.7562 9.46527L31.6342 10.8996L31.5123 12.3339L31.3904 13.7683L31.2685 15.1847L31.1502 16.619L31.0247 17.9709Z" fill="#0057B8"/>
</svg>